<?xml version="1.0" standalone="no"?>
<!DOCTYPE svg PUBLIC "-//W3C//DTD SVG 20010904//EN"
 "http://www.w3.org/TR/2001/REC-SVG-20010904/DTD/svg10.dtd">
<svg version="1.0" xmlns="http://www.w3.org/2000/svg"
 width="48.000000pt" height="48.000000pt" viewBox="0 0 48.000000 48.000000"
 preserveAspectRatio="xMidYMid meet">

<g transform="translate(0.000000,48.000000) scale(0.100000,-0.100000)"
fill="#000000" stroke="none">
<path d="M230 456 c0 -8 -19 -18 -45 -25 -59 -15 -120 -75 -136 -133 -23 -89
12 -182 88 -229 57 -36 154 -34 210 3 47 31 78 77 88 131 10 51 -8 47 -22 -6
-15 -57 -47 -95 -97 -118 -55 -25 -102 -24 -156 4 -150 75 -122 292 43 332 21
6 27 4 27 -9 0 -22 13 -20 35 4 17 19 17 21 0 40 -21 23 -35 26 -35 6z"/>
<path d="M190 285 c0 -44 0 -45 34 -45 38 0 51 -19 32 -45 -9 -13 -22 -16 -45
-13 -20 3 -30 1 -28 -6 6 -19 67 -19 88 0 36 32 19 84 -28 84 -18 0 -23 6 -23
25 0 21 5 25 30 25 17 0 30 5 30 10 0 6 -20 10 -45 10 l-45 0 0 -45z"/>
</g>
</svg>
