<?xml version="1.0" encoding="UTF-8"?>
<!DOCTYPE svg PUBLIC "-//W3C//DTD SVG 1.1//EN" "http://www.w3.org/Graphics/SVG/1.1/DTD/svg11.dtd">
<svg xmlns="http://www.w3.org/2000/svg" version="1.1" width="48px" height="48px" style="shape-rendering:geometricPrecision; text-rendering:geometricPrecision; image-rendering:optimizeQuality; fill-rule:evenodd; clip-rule:evenodd" xmlns:xlink="http://www.w3.org/1999/xlink">
<g><path style="opacity:0.85" fill="#000000" d="M 8.5,4.5 C 10.2554,5.07217 11.9221,5.9055 13.5,7C 16.682,10.3493 20.0154,13.516 23.5,16.5C 27.8722,12.1256 32.5389,8.12561 37.5,4.5C 39.4219,5.71101 41.2552,7.04434 43,8.5C 43.6667,9.5 43.6667,10.5 43,11.5C 38.8333,15.6667 34.6667,19.8333 30.5,24C 34.6667,28.1667 38.8333,32.3333 43,36.5C 43.7112,38.3668 43.2112,39.8668 41.5,41C 39.9452,42.2893 38.2785,42.956 36.5,43C 32.0181,39.3525 27.6848,35.5192 23.5,31.5C 19.1278,35.8744 14.4611,39.8744 9.5,43.5C 7.5781,42.289 5.74477,40.9557 4,39.5C 3.33333,38.5 3.33333,37.5 4,36.5C 8.16667,32.3333 12.3333,28.1667 16.5,24C 12.3333,19.8333 8.16667,15.6667 4,11.5C 3.33333,10.5 3.33333,9.5 4,8.5C 5.66668,7.26683 7.16668,5.9335 8.5,4.5 Z"/></g>
</svg>
