<?xml version="1.0" encoding="UTF-8"?>
<!DOCTYPE svg PUBLIC "-//W3C//DTD SVG 1.1//EN" "http://www.w3.org/Graphics/SVG/1.1/DTD/svg11.dtd">
<svg xmlns="http://www.w3.org/2000/svg" version="1.1" width="48px" height="48px" style="shape-rendering:geometricPrecision; text-rendering:geometricPrecision; image-rendering:optimizeQuality; fill-rule:evenodd; clip-rule:evenodd" xmlns:xlink="http://www.w3.org/1999/xlink">
<g><path style="opacity:1" fill="#000000" d="M 22.5,2.5 C 24.9238,4.2276 25.0904,6.2276 23,8.5C 21.2002,6.63486 21.0336,4.63486 22.5,2.5 Z"/></g>
<g><path style="opacity:0.934" fill="#000000" d="M 17.5,10.5 C 31.9871,8.81969 38.1537,15.153 36,29.5C 32.0155,37.0419 25.8488,39.5419 17.5,37C 9.95815,33.0155 7.45815,26.8488 10,18.5C 11.6904,14.9791 14.1904,12.3124 17.5,10.5 Z"/></g>
<g><path style="opacity:1" fill="#000000" d="M 2.5,21.5 C 4.42865,21.2308 6.09531,21.7308 7.5,23C 6.06962,24.4404 4.40295,24.7737 2.5,24C 1.40191,23.2303 1.40191,22.397 2.5,21.5 Z"/></g>
<g><path style="opacity:1" fill="#000000" d="M 40.5,21.5 C 42.4286,21.2308 44.0953,21.7308 45.5,23C 44.0696,24.4404 42.403,24.7737 40.5,24C 39.4019,23.2303 39.4019,22.397 40.5,21.5 Z"/></g>
<g><path style="opacity:1" fill="#000000" d="M 22.5,39.5 C 24.9238,41.2276 25.0904,43.2276 23,45.5C 21.2002,43.6349 21.0336,41.6349 22.5,39.5 Z"/></g>
</svg>
