<?xml version="1.0" standalone="no"?>
<!DOCTYPE svg PUBLIC "-//W3C//DTD SVG 1.1//EN" "http://www.w3.org/Graphics/SVG/1.1/DTD/svg11.dtd" >
<svg xmlns="http://www.w3.org/2000/svg" xmlns:xlink="http://www.w3.org/1999/xlink" version="1.1">
<metadata>
Created by FontForge 20201107 at Thu Dec 17 16:14:32 2015
 By 
Copyright (c) 2015, Abdullah Arif (abdullah.a@gmail.com), with Reserved Font Name 'Kawkab Mono'. Non-Arabic Portions Copyright 2010, 2012 Adobe Systems Incorporated (http://www.adobe.com/), with Reserved Font Name 'Source'. All Rights Reserved.
</metadata>
<defs>
<font id="KawkabMono-Light" horiz-adv-x="700" >
  <font-face 
    font-family="Kawkab Mono Light"
    font-weight="300"
    font-stretch="normal"
    units-per-em="1000"
    panose-1="0 0 4 9 0 0 0 0 0 0"
    ascent="800"
    descent="-200"
    x-height="562"
    cap-height="768"
    bbox="-917 -795 2292 1316"
    underline-thickness="50"
    underline-position="-100"
    unicode-range="U+0020-1F512"
  />
<missing-glyph 
d="M616 770v-770h-531v770h531zM412 548l93 166h-311l92 -166l61 -108h5zM145 688v-580l164 288zM552 688l-161 -292l161 -288v580zM418 232l-66 121h-5l-68 -121l-102 -179h341z" />
    <glyph glyph-name="uniFEF5" unicode="&#xfedf;&#xfe82;" arabic-form="isolated" 
d="M581 0h-370q-21 0 -27.5 8.5t-3.5 19.5l5 17q5 16 19 20.5t36 4.5h22q48 52 103.5 134t98.5 176q-41 82 -86 146.5t-87 104.5l-13 -10q-9 -5 -20 -5t-23 9l-49 37q-12 9 -20 24.5t-9 32.5l-1 18q-1 14 9.5 23t22.5 9q10 0 15 -5l111 -96q35 -32 82 -91t93 -141
q55 138 60 253q1 12 1 34q0 38 -4 88q-3 26 -3 43q0 16 4 23.5t15 7.5h16q11 0 16 -8t6 -29t1 -75q0 -170 -93 -373q77 -153 117 -335l3 -16q5 -49 -47 -49zM390.5 191q-48.5 -72 -91.5 -121h279q-36 144 -97 275q-42 -82 -90.5 -154zM43 932q17 60 48.5 88.5t64.5 28.5
q13 0 21.5 -6t24.5 -21q22 -20 40.5 -31t48.5 -11q26 0 61.5 13.5t109.5 50.5q7 0 11.5 -4t4.5 -11q0 -16 -19 -36t-71 -41t-94 -21q-45 0 -89 27.5t-67 69.5q-18 -9 -35.5 -39t-39.5 -83z" />
    <glyph glyph-name="uniFEF6" unicode="&#xfee0;&#xfe82;" arabic-form="final" 
d="M590.5 110q38.5 -40 109.5 -40v-70q-56 0 -90 16t-59.5 87.5t-32.5 225.5q-11 -119 -36.5 -189.5t-61 -105.5t-87.5 -57l-42 -18q-48 -21 -116 -37t-117 -13v23q78 16 143.5 39.5t127.5 66.5q23 16 30 23q-17 140 -62 274.5t-116 274.5l49 69l13 -40q56 -171 90.5 -300.5
t45.5 -260.5q47 43 73.5 89.5t33.5 85.5l10 532l56 75v-607q0 -103 38.5 -143zM29 822q17 60 48.5 88.5t64.5 28.5q13 0 21.5 -6t24.5 -21q22 -20 40.5 -31t48.5 -11q26 0 61.5 13.5t109.5 50.5q7 0 11.5 -4t4.5 -11q0 -16 -19 -36t-71 -41t-94 -21q-45 0 -89 27.5t-67 69.5
q-18 -9 -35.5 -39t-39.5 -83z" />
    <glyph glyph-name="uniFEF7" unicode="&#xfedf;&#xfe84;" arabic-form="isolated" 
d="M350 1015q0 -7 -22 -14l-24 -6q-101 -23 -131 -33t-77 -37h-3q-3 0 -6 5q-4 8 -4 19q0 6 19 17l62 36q-26 12 -39 34.5t-13 50.5q0 65 30.5 102.5t84.5 37.5q29 0 44 -15.5t18 -32.5l1 -6q0 -8 -4.5 -12t-10.5 -4q-5 1 -32 14t-49 13q-33 0 -44.5 -11t-11.5 -40
q0 -42 18 -73t83 -31q16 0 26 1l38 1l19 1q20 0 25 -11l2 -3q1 -1 1 -3zM581 0h-370q-21 0 -27.5 8.5t-3.5 19.5l5 17q5 16 19 20.5t36 4.5h22q48 52 103.5 134t98.5 176q-41 82 -86 146.5t-87 104.5l-13 -10q-9 -5 -20 -5t-23 9l-49 37q-12 9 -20 24.5t-9 32.5l-1 18
q-1 14 9.5 23t22.5 9q10 0 15 -5l111 -96q35 -32 82 -91t93 -141q55 138 60 253q1 12 1 34q0 38 -4 88q-3 26 -3 43q0 16 4 23.5t15 7.5h16q11 0 16 -8t6 -29t1 -75q0 -170 -93 -373q77 -153 117 -335l3 -16q5 -49 -47 -49zM390.5 191q-48.5 -72 -91.5 -121h279
q-36 144 -97 275q-42 -82 -90.5 -154z" />
    <glyph glyph-name="uniFEF8" unicode="&#xfee0;&#xfe84;" arabic-form="final" 
d="M93 835q-3 0 -6 5q-4 8 -4 19q0 6 19 17l62 36q-26 12 -39 34.5t-13 50.5q0 65 30.5 102.5t84.5 37.5q29 0 44 -15.5t18 -32.5l1 -6q0 -8 -4.5 -12t-10.5 -4q-5 1 -32 14t-49 13q-33 0 -44.5 -11t-11.5 -40q0 -42 18 -73t83 -31q16 0 26 1l38 1l19 1q20 0 25 -11l2 -3
q1 -1 1 -3q0 -7 -22 -14l-24 -6q-101 -23 -131 -33t-77 -37h-3zM590.5 110q38.5 -40 109.5 -40v-70q-56 0 -90 16t-59.5 87.5t-32.5 225.5q-11 -119 -36.5 -189.5t-61 -105.5t-87.5 -57l-42 -18q-48 -21 -116 -37t-117 -13v23q78 16 143.5 39.5t127.5 66.5q23 16 30 23
q-17 140 -62 274.5t-116 274.5l49 69l13 -40q56 -171 90.5 -300.5t45.5 -260.5q47 43 73.5 89.5t33.5 85.5l10 532l56 75v-607q0 -103 38.5 -143z" />
    <glyph glyph-name="uniFEF9" unicode="&#xfedf;&#xfe88;" arabic-form="isolated" 
d="M581 0h-370q-21 0 -27.5 8.5t-3.5 19.5l5 17q5 16 19 20.5t36 4.5h22q48 52 103.5 134t98.5 176q-41 82 -86 146.5t-87 104.5l-13 -10q-9 -5 -20 -5t-23 9l-49 37q-12 9 -20 24.5t-9 32.5l-1 18q-1 14 9.5 23t22.5 9q10 0 15 -5l111 -96q35 -32 82 -91t93 -141
q55 138 60 253q1 12 1 34q0 38 -4 88q-3 26 -3 43q0 16 4 23.5t15 7.5h16q11 0 16 -8t6 -29t1 -75q0 -170 -93 -373q77 -153 117 -335l3 -16q5 -49 -47 -49zM390.5 191q-48.5 -72 -91.5 -121h279q-36 144 -97 275q-42 -82 -90.5 -154zM324 -514q-5 0 -7 6q-5 12 -5 21
q0 6 21 19l68 39q-28 14 -42.5 38.5t-14.5 55.5q0 72 33.5 113t93.5 41q31 0 48 -17t20 -36l1 -6q0 -8 -5 -13t-11 -5q-2 0 -33.5 15t-56.5 15q-36 0 -48.5 -12.5t-12.5 -44.5q0 -28 5.5 -51.5t30 -43t75.5 -19.5q17 0 28 1l42 1l22 1q21 0 27 -12l2 -3q1 -1 1 -3
q0 -9 -24 -16q-96 -22 -131 -31t-59.5 -19.5t-64.5 -32.5q-1 -1 -3 -1z" />
    <glyph glyph-name="uniFEFA" unicode="&#xfee0;&#xfe88;" arabic-form="final" 
d="M590.5 110q38.5 -40 109.5 -40v-70q-56 0 -90 16t-59.5 87.5t-32.5 225.5q-11 -119 -36.5 -189.5t-61 -105.5t-87.5 -57l-42 -18q-48 -21 -116 -37t-117 -13v23q78 16 143.5 39.5t127.5 66.5q23 16 30 23q-17 140 -62 274.5t-116 274.5l49 69l13 -40q56 -171 90.5 -300.5
t45.5 -260.5q47 43 73.5 89.5t33.5 85.5l10 532l56 75v-607q0 -103 38.5 -143zM327 -536q-5 0 -7 6q-5 12 -5 21q0 6 21 19l68 39q-28 14 -42.5 38.5t-14.5 55.5q0 72 33.5 113t93.5 41q31 0 48 -17t20 -36l1 -6q0 -8 -5 -13t-11 -5q-2 0 -33.5 15t-56.5 15
q-36 0 -48.5 -12.5t-12.5 -44.5q0 -28 5.5 -51.5t30 -43t75.5 -19.5q17 0 28 1l42 1l22 1q21 0 27 -12l2 -3q1 -1 1 -3q0 -9 -24 -16q-96 -22 -131 -31t-59.5 -19.5t-64.5 -32.5q-1 -1 -3 -1z" />
    <glyph glyph-name="uniFEFB" unicode="&#xfedf;&#xfe8e;" arabic-form="isolated" 
d="M581 0h-370q-21 0 -27.5 8.5t-3.5 19.5l5 17q5 16 19 20.5t36 4.5h22q48 52 103.5 134t98.5 176q-41 82 -86 146.5t-87 104.5l-13 -10q-9 -5 -20 -5t-23 9l-49 37q-12 9 -20 24.5t-9 32.5l-1 18q-1 14 9.5 23t22.5 9q10 0 15 -5l111 -96q35 -32 82 -91t93 -141
q55 138 60 253q1 12 1 34q0 38 -4 88q-3 26 -3 43q0 16 4 23.5t15 7.5h16q11 0 16 -8t6 -29t1 -75q0 -170 -93 -373q77 -153 117 -335l3 -16q5 -49 -47 -49zM390.5 191q-48.5 -72 -91.5 -121h279q-36 144 -97 275q-42 -82 -90.5 -154z" />
    <glyph glyph-name="uniFEFC" unicode="&#xfee0;&#xfe8e;" arabic-form="final" 
d="M590.5 110q38.5 -40 109.5 -40v-70q-56 0 -90 16t-59.5 87.5t-32.5 225.5q-11 -119 -36.5 -189.5t-61 -105.5t-87.5 -57l-42 -18q-48 -21 -116 -37t-117 -13v23q78 16 143.5 39.5t127.5 66.5q23 16 30 23q-17 140 -62 274.5t-116 274.5l49 69l13 -40q56 -171 90.5 -300.5
t45.5 -260.5q47 43 73.5 89.5t33.5 85.5l10 532l56 75v-607q0 -103 38.5 -143z" />
    <glyph glyph-name="uni06440671" unicode="&#xfedf;&#xfb51;" 
d="M131 917.5q-25 -6.5 -80 -5.5v25q56 1 89 12.5t33 26.5v65l21 21q-3 -18 -3 -55q0 -27 1 -34q1 -15 5 -15t32 33q46 56 86 91.5t80 35.5q34 0 55.5 -29.5t21.5 -73.5q0 -59 -42.5 -81t-132.5 -22q-57 0 -85 8.5t-39 30.5q-17 -27 -42 -33.5zM227 957q33 -11 85 -11
q60 0 100.5 14.5t40.5 41.5q0 14 -10.5 33t-28 33t-36.5 14q-52 0 -151 -125zM581 0h-370q-21 0 -27.5 8.5t-3.5 19.5l5 17q5 16 19 20.5t36 4.5h22q48 52 103.5 134t98.5 176q-41 82 -86 146.5t-87 104.5l-13 -10q-9 -5 -20 -5t-23 9l-49 37q-12 9 -20 24.5t-9 32.5l-1 18
q-1 14 9.5 23t22.5 9q10 0 15 -5l111 -96q35 -32 82 -91t93 -141q55 138 60 253q1 12 1 34q0 38 -4 88q-3 26 -3 43q0 16 4 23.5t15 7.5h16q11 0 16 -8t6 -29t1 -75q0 -170 -93 -373q77 -153 117 -335l3 -16q5 -49 -47 -49zM390.5 191q-48.5 -72 -91.5 -121h279
q-36 144 -97 275q-42 -82 -90.5 -154z" />
    <glyph glyph-name="uni06440671.fina" unicode="&#xfee0;&#xfb51;" 
d="M91 811.5q-25 -6.5 -80 -5.5v25q56 1 89 12.5t33 26.5v65l21 21q-3 -18 -3 -55q0 -27 1 -34q1 -15 5 -15t32 33q46 56 86 91.5t80 35.5q34 0 55.5 -29.5t21.5 -73.5q0 -59 -42.5 -81t-132.5 -22q-57 0 -85 8.5t-39 30.5q-17 -27 -42 -33.5zM187 851q33 -11 85 -11
q60 0 100.5 14.5t40.5 41.5q0 14 -10.5 33t-28 33t-36.5 14q-52 0 -151 -125zM590.5 110q38.5 -40 109.5 -40v-70q-56 0 -90 16t-59.5 87.5t-32.5 225.5q-11 -119 -36.5 -189.5t-61 -105.5t-87.5 -57l-42 -18q-48 -21 -116 -37t-117 -13v23q78 16 143.5 39.5t127.5 66.5
q23 16 30 23q-17 140 -62 274.5t-116 274.5l49 69l13 -40q56 -171 90.5 -300.5t45.5 -260.5q47 43 73.5 89.5t33.5 85.5l10 532l56 75v-607q0 -103 38.5 -143z" />
    <glyph glyph-name="uni066E.init" unicode="&#x66e;" 
d="M0 70h408q53 0 94 16.5t63.5 42t22.5 50.5q0 17 -8.5 68.5t-23.5 111.5l41 91q18 -64 33 -131.5t15 -111.5q0 -55 -28.5 -102t-88.5 -76t-151 -29h-377v70z" />
    <glyph glyph-name="uni066E.medi" unicode="&#x66e;" 
d="M700 0q-75 0 -122 14t-76.5 49t-49.5 101q-20 -61 -45.5 -96t-65.5 -51.5t-102 -16.5h-239v70h230q92 0 148.5 29t56.5 90q0 39 -10 106l69 83q-1 -24 -1 -119q0 -90 1 -106q3 -37 62 -60t144 -23v-70z" />
    <glyph glyph-name="uni066E.fina" unicode="&#x66e;" 
d="M58.5 45q-58.5 45 -58.5 122q0 48 22 107.5t49 101.5h13q-33 -85 -33 -155q0 -69 33.5 -110t101.5 -41h243q50 0 85 22t56 72q10 25 15.5 51t5.5 37l50 42l-5 -32q-5 -31 -8 -44t-7 -34q-2 -8 -2 -24q0 -40 23.5 -65t57.5 -25v-70h-5q-32 0 -57.5 31.5t-39.5 89.5
q-32 -65 -80.5 -93t-139.5 -28h-165q-96 0 -154.5 45z" />
    <glyph glyph-name="uni066F.fina" unicode="&#x66f;" 
d="M700 70v-70h-53q-12 -175 -104.5 -265.5t-243.5 -90.5q-138 0 -218.5 73t-80.5 203q0 62 19 113.5t57 104.5l15 -22q-1 -1 -15 -22.5t-28 -67t-14 -91.5q0 -111 73 -166t183 -55q77 0 143 28.5t110 92.5t51 165q-102 4 -192.5 41.5t-90.5 138.5q0 42 13 102.5t45 108.5
t85 48q36 0 73 -27.5t69 -94.5q28 -57 40.5 -121.5t12.5 -125.5h51zM378 119.5q18 -19.5 65 -29.5t151 -18q-4 72 -22.5 142.5t-47.5 116.5t-64 46q-32 0 -54.5 -32.5t-34 -79t-11.5 -85.5q0 -41 18 -60.5z" />
    <glyph glyph-name="uni06A1.init" unicode="&#x6a1;" 
d="M544 597q46 -53 75 -141.5t29 -190.5t-33.5 -159t-105 -81.5t-192.5 -24.5h-317v70h369q89 0 164 35t75 138v2q-114 -12 -179 -12q-151 0 -151 125q0 53 23 122.5t62.5 119.5t86.5 50q48 0 94 -53zM603 306q-10 65 -32.5 130t-57.5 110t-79 45q-37 0 -61 -32t-35 -76
t-11 -81q0 -61 31 -81t93 -20q44 0 152 5z" />
    <glyph glyph-name="uni06A1.medi" unicode="&#x6a1;" 
d="M700 70v-70h-55q-34 0 -85.5 26.5t-100.5 71.5q-44 -32 -79.5 -51t-101.5 -33t-168 -14h-110v70h72q119 0 181 3t101.5 13t65.5 31q-67 35 -110.5 60.5t-69.5 48.5q-47 41 -47 97q0 38 19 85.5t56.5 81t88.5 33.5q52 0 95 -34.5t67 -87t24 -102.5q0 -77 -59 -174
q8 -4 33 -21t56 -26q18 -5 38.5 -6.5t54.5 -1.5h34zM483 219q10 39 10 72q0 59 -26 99.5t-62 60.5t-64 20q-27 0 -48.5 -20t-34 -49t-12.5 -53q0 -31 22.5 -60t62.5 -60t117 -83q25 34 35 73z" />
    <glyph glyph-name="uni06A1.fina" unicode="&#x6a1;" 
d="M658.5 92q32.5 -22 41.5 -22v-70q-18 0 -45.5 20t-51.5 44.5t-31 34.5q-36 -55 -80.5 -77t-126.5 -22h-152q-213 0 -213 165q0 74 45 140l16 -20q-20 -28 -26 -52t-6 -47q0 -43 12.5 -68t43.5 -36.5t88 -11.5h224q4 0 33.5 -0.5t64.5 9t58 28.5q-85 62 -126.5 97.5
t-63 67.5t-21.5 68q0 38 20 81t53 71.5t69 28.5q41 0 77.5 -37.5t59 -94t22.5 -110.5t-32 -152q15 -13 47.5 -35zM601 234q0 51 -15.5 101t-45 83t-71.5 33q-26 0 -46 -13t-31 -32t-11 -36q0 -33 40 -74t125 -113l39 -33q8 17 12 36q4 20 4 48z" />
    <glyph glyph-name="uni06C2.fina" unicode="&#x6c2;" 
d="M185 563q-4 8 -4 17q0 6 17 15l54 32q-23 11 -34.5 30.5t-11.5 44.5q0 57 27 90t75 33q25 0 38.5 -13.5t15.5 -28.5l1 -5q0 -7 -4 -11t-9 -4q-4 1 -28 12.5t-44 11.5q-29 0 -38.5 -9.5t-9.5 -35.5q0 -37 15.5 -64t72.5 -27l56 1l18 1q17 0 22 -10l1 -2l1 -2
q0 -4 -5.5 -7.5t-13.5 -5.5q-103 -24 -131 -33t-73 -34q-7 -2 -8 4zM132 0q0 16 6 43q12 47 40.5 121.5t69 136t82.5 61.5q20 0 35.5 -15.5t29.5 -42.5q9 -18 33 -77q13 -35 25 -61q20 -41 45 -62t59.5 -27.5t90.5 -6.5h52v-70h-117q-61 0 -101 28.5t-61 65.5t-44 94
q-16 40 -28 58t-32 18q-37 0 -69 -64q-7 -15 -26 -65q-29 -75 -48 -115.5t-33 -40.5q-9 0 -9 21z" />
    <glyph glyph-name="uni06C3.fina" unicode="&#x6c3;" 
d="M338 659l55 63l57 -61l-54 -64zM174 656l54 63l57 -60l-53 -65zM132 0q0 16 6 43q12 47 40.5 121.5t69 136t82.5 61.5q20 0 35.5 -15.5t29.5 -42.5q9 -18 33 -77q13 -35 25 -61q20 -41 45 -62t59.5 -27.5t90.5 -6.5h52v-70h-117q-61 0 -101 28.5t-61 65.5t-44 94
q-16 40 -28 58t-32 18q-37 0 -69 -64q-7 -15 -26 -65q-29 -75 -48 -115.5t-33 -40.5q-9 0 -9 21z" />
    <glyph glyph-name="uniFB51" unicode="&#x671;" arabic-form="final" 
d="M79 957q56 1 89 12.5t33 26.5v65l21 21q-3 -18 -3 -55q0 -27 1 -34q1 -15 5 -15t32 33q46 56 86 91.5t80 35.5q34 0 55.5 -29.5t21.5 -73.5q0 -59 -42.5 -81t-132.5 -22q-57 0 -85 8.5t-39 30.5q-17 -27 -42 -33.5t-80 -5.5v25zM440.5 980.5q40.5 14.5 40.5 41.5
q0 14 -10.5 33t-28 33t-36.5 14q-52 0 -151 -125q33 -11 85 -11q60 0 100.5 14.5zM335.5 14q-50.5 14 -78 66t-32.5 165l-3 101q-1 23 -4.5 140t-12.5 270l65 65v-538q0 -93 11 -137t39.5 -60t89.5 -16h290v-70h-214q-100 0 -150.5 14z" />
    <glyph glyph-name="uniFB57" unicode="&#x67e;" arabic-form="final" 
d="M58.5 45q-58.5 45 -58.5 122q0 48 22 107.5t49 101.5h13q-33 -85 -33 -155q0 -69 33.5 -110t101.5 -41h243q50 0 85 22t56 72q10 25 15.5 51t5.5 37l50 42l-5 -32q-5 -31 -8 -44t-7 -34q-2 -8 -2 -24q0 -40 23.5 -65t57.5 -25v-70h-5q-32 0 -57.5 31.5t-39.5 89.5
q-32 -65 -80.5 -93t-139.5 -28h-165q-96 0 -154.5 45zM366 -229l55 63l57 -61l-54 -64zM202 -232l54 63l57 -60l-53 -65zM282 -382l54 63l57 -60l-53 -65z" />
    <glyph glyph-name="uniFB58" unicode="&#x67e;" arabic-form="initial" 
d="M0 70h408q53 0 94 16.5t63.5 42t22.5 50.5q0 17 -8.5 68.5t-23.5 111.5l41 91q18 -64 33 -131.5t15 -111.5q0 -55 -28.5 -102t-88.5 -76t-151 -29h-377v70zM401 -229l55 63l57 -61l-54 -64zM237 -232l54 63l57 -60l-53 -65zM317 -382l54 63l57 -60l-53 -65z" />
    <glyph glyph-name="uniFB59" unicode="&#x67e;" arabic-form="medial" 
d="M700 0q-75 0 -122 14t-76.5 49t-49.5 101q-20 -61 -45.5 -96t-65.5 -51.5t-102 -16.5h-239v70h230q92 0 148.5 29t56.5 90q0 39 -10 106l69 83q-1 -24 -1 -119q0 -90 1 -106q3 -37 62 -60t144 -23v-70zM379 -229l55 63l57 -61l-54 -64zM215 -232l54 63l57 -60l-53 -65z
M295 -382l54 63l57 -60l-53 -65z" />
    <glyph glyph-name="uniFB67" unicode="&#x679;" arabic-form="final" 
d="M58.5 45q-58.5 45 -58.5 122q0 48 22 107.5t49 101.5h13q-33 -85 -33 -155q0 -69 33.5 -110t101.5 -41h243q50 0 85 22t56 72q10 25 15.5 51t5.5 37l50 42l-5 -32q-5 -31 -8 -44t-7 -34q-2 -8 -2 -24q0 -40 23.5 -65t57.5 -25v-70h-5q-32 0 -57.5 31.5t-39.5 89.5
q-32 -65 -80.5 -93t-139.5 -28h-165q-96 0 -154.5 45zM476.5 650.5q17.5 -32.5 17.5 -68.5q0 -41 -30.5 -60.5t-95.5 -19.5h-160q0 14 8.5 23t18.5 10q14 1 21.5 3t12.5 8l5 7v59v183l23 19v-38v-191q73 98 127 98q35 0 52.5 -32.5zM454 547.5q20 8.5 20 31.5q0 26 -21.5 49
t-43.5 23q-23 0 -48.5 -25.5t-75.5 -87.5l107 1q42 0 62 8.5z" />
    <glyph glyph-name="uniFB68" unicode="&#x679;" arabic-form="initial" 
d="M0 70h408q53 0 94 16.5t63.5 42t22.5 50.5q0 17 -8.5 68.5t-23.5 111.5l41 91q18 -64 33 -131.5t15 -111.5q0 -55 -28.5 -102t-88.5 -76t-151 -29h-377v70zM426.5 700.5q17.5 -32.5 17.5 -68.5q0 -41 -30.5 -60.5t-95.5 -19.5h-160q0 14 8.5 23t18.5 10q14 1 21.5 3
t12.5 8l5 7v59v183l23 19v-38v-191q73 98 127 98q35 0 52.5 -32.5zM404 597.5q20 8.5 20 31.5q0 26 -21.5 49t-43.5 23q-23 0 -48.5 -25.5t-75.5 -87.5l107 1q42 0 62 8.5z" />
    <glyph glyph-name="uniFB69" unicode="&#x679;" arabic-form="medial" 
d="M700 0q-75 0 -122 14t-76.5 49t-49.5 101q-20 -61 -45.5 -96t-65.5 -51.5t-102 -16.5h-239v70h230q92 0 148.5 29t56.5 90q0 39 -10 106l69 83q-1 -24 -1 -119q0 -90 1 -106q3 -37 62 -60t144 -23v-70zM386.5 670.5q17.5 -32.5 17.5 -68.5q0 -41 -30.5 -60.5t-95.5 -19.5
h-160q0 14 8.5 23t18.5 10q14 1 21.5 3t12.5 8l5 7v59v183l23 19v-38v-191q73 98 127 98q35 0 52.5 -32.5zM364 567.5q20 8.5 20 31.5q0 26 -21.5 49t-43.5 23q-23 0 -48.5 -25.5t-75.5 -87.5l107 1q42 0 62 8.5z" />
    <glyph glyph-name="uniFB6B" unicode="&#x6a4;" arabic-form="final" 
d="M658.5 92q32.5 -22 41.5 -22v-70q-18 0 -45.5 20t-51.5 44.5t-31 34.5q-36 -55 -80.5 -77t-126.5 -22h-152q-213 0 -213 165q0 74 45 140l16 -20q-20 -28 -26 -52t-6 -47q0 -43 12.5 -68t43.5 -36.5t88 -11.5h224q4 0 33.5 -0.5t64.5 9t58 28.5q-85 62 -126.5 97.5
t-63 67.5t-21.5 68q0 38 20 81t53 71.5t69 28.5q41 0 77.5 -37.5t59 -94t22.5 -110.5t-32 -152q15 -13 47.5 -35zM601 234q0 51 -15.5 101t-45 83t-71.5 33q-26 0 -46 -13t-31 -32t-11 -36q0 -33 40 -74t125 -113l39 -33q8 17 12 36q4 20 4 48zM418 892l57 63l56 -63
l-56 -64zM363 734l57 63l56 -63l-56 -64zM505 734l57 63l56 -63l-56 -64z" />
    <glyph glyph-name="uniFB6C" unicode="&#x6a4;" arabic-form="initial" 
d="M544 597q46 -53 75 -141.5t29 -190.5t-33.5 -159t-105 -81.5t-192.5 -24.5h-317v70h369q89 0 164 35t75 138v2q-114 -12 -179 -12q-151 0 -151 125q0 53 23 122.5t62.5 119.5t86.5 50q48 0 94 -53zM603 306q-10 65 -32.5 130t-57.5 110t-79 45q-37 0 -61 -32t-35 -76
t-11 -81q0 -61 31 -81t93 -20q44 0 152 5zM355 1002l57 63l56 -63l-56 -64zM300 844l57 63l56 -63l-56 -64zM442 844l57 63l56 -63l-56 -64z" />
    <glyph glyph-name="uniFB6D" unicode="&#x6a4;" arabic-form="medial" 
d="M700 70v-70h-55q-34 0 -85.5 26.5t-100.5 71.5q-44 -32 -79.5 -51t-101.5 -33t-168 -14h-110v70h72q119 0 181 3t101.5 13t65.5 31q-67 35 -110.5 60.5t-69.5 48.5q-47 41 -47 97q0 38 19 85.5t56.5 81t88.5 33.5q52 0 95 -34.5t67 -87t24 -102.5q0 -77 -59 -174
q8 -4 33 -21t56 -26q18 -5 38.5 -6.5t54.5 -1.5h34zM483 219q10 39 10 72q0 59 -26 99.5t-62 60.5t-64 20q-27 0 -48.5 -20t-34 -49t-12.5 -53q0 -31 22.5 -60t62.5 -60t117 -83q25 34 35 73zM270 918l57 63l56 -63l-56 -64zM215 760l57 63l56 -63l-56 -64zM357 760l57 63
l56 -63l-56 -64z" />
    <glyph glyph-name="uniFB7B" unicode="&#x686;" arabic-form="final" 
d="M267.5 178.5q-78.5 -50.5 -129 -126.5t-50.5 -174q0 -71 28.5 -132t90 -98.5t156.5 -37.5q86 0 146.5 37t112.5 101l15 -18q-43 -77 -120.5 -131.5t-191.5 -54.5q-90 0 -156 38t-101 107t-35 161q0 177 132.5 301.5t389.5 182.5l-19 8q-93 39 -139 53.5t-96 14.5
q-53 0 -108.5 -16.5t-104.5 -45.5l-8 6l43 68q41 31 90 45.5t99 14.5t85 -12t83 -37t87.5 -39t96.5 -17q1 -8 -24 -58q-14 -30 -15 -33q-62 3 -144 -17q6 -82 23.5 -125.5t43 -58.5t62.5 -15h90v-70h-84q-82 0 -130.5 64t-49.5 193q-90 -28 -168.5 -78.5zM391 -79l55 63
l57 -61l-54 -64zM227 -82l54 63l57 -60l-53 -65zM307 -232l54 63l57 -60l-53 -65z" />
    <glyph glyph-name="uniFB7C" unicode="&#x686;" arabic-form="initial" 
d="M0 70h185q77 0 166.5 16t157.5 66q32 24 52 55.5t53 104.5q-123 41 -196.5 56t-121.5 15q-106 0 -167 -62l-8 6l23 68q87 60 182 60q51 0 98 -15t113 -45q49 -21 77 -31.5t57 -15.5l-6 -25q-13 -1 -21 -13.5t-20 -42.5q-20 -51 -45.5 -94.5t-74.5 -86.5
q-44 -39 -99.5 -58t-104 -23.5t-106.5 -4.5h-194v70zM391 -229l55 63l57 -61l-54 -64zM227 -232l54 63l57 -60l-53 -65zM307 -382l54 63l57 -60l-53 -65z" />
    <glyph glyph-name="uniFB7D" unicode="&#x686;" arabic-form="medial" 
d="M700 70v-70h-22q-56 0 -79 56t-25 127q-37 -50 -80 -87q-51 -44 -101.5 -65t-94 -26t-104.5 -5h-194v70h185q77 0 167 16t158 67q31 23 51 54.5t53 104.5q-129 43 -192.5 57.5t-114.5 14.5q-56 0 -93 -14.5t-75 -48.5l-8 6l13 68q87 60 182 60q51 0 98 -15t113 -45
q49 -21 77 -31.5t57 -15.5l-6 -45q-12 0 -21.5 -12t-28.5 -44q-5 -7 -15 -25q1 -60 7.5 -91.5t22.5 -46t48 -14.5h22zM391 -229l55 63l57 -61l-54 -64zM227 -232l54 63l57 -60l-53 -65zM307 -382l54 63l57 -60l-53 -65z" />
    <glyph glyph-name="uniFB89" unicode="&#x688;" arabic-form="final" 
d="M139.5 5q-20.5 4 -34 17t-13.5 41q0 37 28 37q12 0 34 -11q21 -9 36.5 -14t37.5 -5h52q50 0 74.5 4.5t38 24t13.5 63.5q0 90 -47 271l41 82q27 -106 60 -285q13 -70 16 -82q12 -43 52 -60.5t88 -17.5h84v-70h-84q-167 0 -185 140q-17 -58 -43.5 -88t-64.5 -41.5
t-98 -11.5l-31 1q-34 1 -54.5 5zM469.5 870.5q17.5 -32.5 17.5 -68.5q0 -41 -30.5 -60.5t-95.5 -19.5h-160q0 14 8.5 23t18.5 10q14 1 21.5 3t12.5 8l5 7v59v183l23 19v-38v-191q73 98 127 98q35 0 52.5 -32.5zM447 767.5q20 8.5 20 31.5q0 26 -21.5 49t-43.5 23
q-23 0 -48.5 -25.5t-75.5 -87.5l107 1q42 0 62 8.5z" />
    <glyph glyph-name="uniFB8B" unicode="&#x698;" arabic-form="final" 
d="M55 -317v26q97 0 169 25t121 68q63 54 92 129t29 144q0 45 -11.5 94.5t-39.5 139.5l-10 34l41 41q-1 3 8 -30q22 -80 43 -137.5t56.5 -102t83.5 -44.5h63v-70h-43q-47 0 -83.5 19t-74.5 72q3 -24 3 -47q0 -88 -33.5 -172t-84.5 -131q-40 -36 -101 -56t-130 -20
q-63 0 -98 18zM348 769l57 63l56 -63l-56 -64zM293 611l57 63l56 -63l-56 -64zM435 611l57 63l56 -63l-56 -64z" />
    <glyph glyph-name="uniFB8D" unicode="&#x691;" arabic-form="final" 
d="M55 -317v26q97 0 169 25t121 68q63 54 92 129t29 144q0 45 -11.5 94.5t-39.5 139.5l-10 34l41 41q-1 3 8 -30q22 -80 43 -137.5t56.5 -102t83.5 -44.5h63v-70h-43q-47 0 -83.5 19t-74.5 72q3 -24 3 -47q0 -88 -33.5 -172t-84.5 -131q-40 -36 -101 -56t-130 -20
q-63 0 -98 18zM536.5 752.5q17.5 -32.5 17.5 -68.5q0 -41 -30.5 -60.5t-95.5 -19.5h-160q0 14 8.5 23t18.5 10q14 1 21.5 3t12.5 8l5 7v59v183l23 19v-38v-191q73 98 127 98q35 0 52.5 -32.5zM514 649.5q20 8.5 20 31.5q0 26 -21.5 49t-43.5 23q-23 0 -48.5 -25.5
t-75.5 -87.5l107 1q42 0 62 8.5z" />
    <glyph glyph-name="uniFB8F" unicode="&#x6a9;" arabic-form="final" 
d="M700 70v-70h-12q-18 0 -38 25.5t-61 90.5q-1 2 -28 45q-5 -66 -50 -113.5t-136 -47.5h-225q-65 0 -107.5 31.5t-42.5 82.5q0 31 16 62.5t41 53.5q6 -2 -3 -23q-11 -31 -11 -49q0 -39 31.5 -63.5t75.5 -24.5l144 -1q79 0 133.5 5.5t82.5 20.5q12 24 12 48q0 63 -66 126.5
t-146.5 107t-97.5 40.5q-31 0 -31 29q0 26 20 66q75 85 210 176t244 142l-13 -66l-433 -278q96 -31 182 -86.5t131 -115.5l-1 3q34 -34 96 -129q30 -45 46.5 -66.5t24.5 -21.5h12z" />
    <glyph glyph-name="uniFB90" unicode="&#x6a9;" arabic-form="initial" 
d="M642 764l-433 -278q81 -26 156 -70.5t126.5 -96.5t64.5 -100q5 -22 5 -44q0 -42 -18.5 -82t-60 -66.5t-107.5 -26.5h-375v70h150l144 -1q79 0 133.5 5.5t82.5 20.5q12 24 12 48q0 63 -66 126.5t-146.5 107t-97.5 40.5q-31 0 -31 29q0 26 20 66q75 85 210 176t244 142z
" />
    <glyph glyph-name="uniFB91" unicode="&#x6a9;" arabic-form="medial" 
d="M700 70v-70h-38q-39 0 -83.5 42t-97.5 120q-4 -65 -49.5 -113.5t-136.5 -48.5h-295v70h70l144 -1q79 0 133.5 5.5t82.5 20.5q12 24 12 48q0 63 -66 126.5t-146.5 107t-97.5 40.5q-31 0 -31 29q0 26 20 66q75 85 210 176t244 142l-13 -66l-433 -278q104 -33 194.5 -94.5
t131.5 -126.5q37 -43 73 -92q5 -7 23.5 -31t31.5 -36q18 -16 40.5 -26t42.5 -10h34z" />
    <glyph glyph-name="uniFB93" unicode="&#x6af;" arabic-form="final" 
d="M350.5 772.5q-94.5 -62.5 -159.5 -123.5l-7 33q73 62 168 126.5t197 121.5l8 -39q-112 -56 -206.5 -118.5zM700 70v-70h-12q-18 0 -38 25.5t-61 90.5q-1 2 -28 45q-5 -66 -50 -113.5t-136 -47.5h-225q-65 0 -107.5 31.5t-42.5 82.5q0 31 16 62.5t41 53.5q6 -2 -3 -23
q-11 -31 -11 -49q0 -39 31.5 -63.5t75.5 -24.5l144 -1q79 0 133.5 5.5t82.5 20.5q12 24 12 48q0 63 -66 126.5t-146.5 107t-97.5 40.5q-31 0 -31 29q0 26 20 66q75 85 210 176t244 142l-13 -66l-433 -278q96 -31 182 -86.5t131 -115.5l-1 3q34 -34 96 -129
q30 -45 46.5 -66.5t24.5 -21.5h12z" />
    <glyph glyph-name="uniFB94" unicode="&#x6af;" arabic-form="initial" 
d="M360.5 803.5q-94.5 -62.5 -159.5 -123.5l-7 33q73 62 168 126.5t197 121.5l8 -39q-112 -56 -206.5 -118.5zM642 764l-433 -278q81 -26 156 -70.5t126.5 -96.5t64.5 -100q5 -22 5 -44q0 -42 -18.5 -82t-60 -66.5t-107.5 -26.5h-375v70h150l144 -1q79 0 133.5 5.5
t82.5 20.5q12 24 12 48q0 63 -66 126.5t-146.5 107t-97.5 40.5q-31 0 -31 29q0 26 20 66q75 85 210 176t244 142z" />
    <glyph glyph-name="uniFB95" unicode="&#x6af;" arabic-form="medial" 
d="M290.5 803.5q-94.5 -62.5 -159.5 -123.5l-7 33q73 62 168 126.5t197 121.5l8 -39q-112 -56 -206.5 -118.5zM700 70v-70h-38q-39 0 -83.5 42t-97.5 120q-4 -65 -49.5 -113.5t-136.5 -48.5h-295v70h70l144 -1q79 0 133.5 5.5t82.5 20.5q12 24 12 48q0 63 -66 126.5
t-146.5 107t-97.5 40.5q-31 0 -31 29q0 26 20 66q75 85 210 176t244 142l-13 -66l-433 -278q104 -33 194.5 -94.5t131.5 -126.5q37 -43 73 -92q5 -7 23.5 -31t31.5 -36q18 -16 40.5 -26t42.5 -10h34z" />
    <glyph glyph-name="uniFB9F" unicode="&#x6ba;" arabic-form="final" 
d="M117 -312q-62 39 -90 103t-28 141q0 64 18 128t47 114l31 -20q-50 -111 -50 -205q0 -110 66 -168t170 -58q90 0 155 42t98.5 108t33.5 138q0 113 -85 246l41 55q11 -21 21 -48q40 -91 70 -142.5t58 -51.5h27v-70h-16q-34 0 -79 70q2 -36 2 -52q0 -129 -48 -211.5
t-123 -120t-161 -37.5q-96 0 -158 39z" />
    <glyph glyph-name="uniFBA7" unicode="&#x6c1;" arabic-form="final" 
d="M132 0q0 16 6 43q12 47 40.5 121.5t69 136t82.5 61.5q20 0 35.5 -15.5t29.5 -42.5q9 -18 33 -77q13 -35 25 -61q20 -41 45 -62t59.5 -27.5t90.5 -6.5h52v-70h-117q-61 0 -101 28.5t-61 65.5t-44 94q-16 40 -28 58t-32 18q-37 0 -69 -64q-7 -15 -26 -65
q-29 -75 -48 -115.5t-33 -40.5q-9 0 -9 21z" />
    <glyph glyph-name="uniFBA8" unicode="&#x6c1;" arabic-form="initial" 
d="M620 109l-2 -2q-18 -30 -47 -53q-61 -68 -88 -109.5t-27 -80.5q0 -25 11.5 -45.5t32.5 -31.5q20 -11 31 -22.5t11 -32.5q0 -18 -9 -34.5t-32 -16.5q-9 0 -19 3q-60 16 -60 96q0 26 6 56q20 102 84 186q-57 -22 -135 -22h-377v70h408q53 0 94 16.5t63.5 42t22.5 50.5
q0 17 -8.5 68.5t-23.5 111.5l41 91q18 -64 33 -131.5t15 -111.5q0 -53 -25 -97v-1z" />
    <glyph glyph-name="uniFBA9" unicode="&#x6c1;" arabic-form="medial" 
d="M218 -376q-5 11 -10 37q-7 37 -10 90.5t-3 92.5q0 74 15 177q7 53 7 72q0 26 -12 26q-8 0 -19.5 -10.5t-29.5 -30.5q-33 -37 -59.5 -57.5t-56.5 -20.5h-40v70h56q11 0 36.5 20.5t67.5 58.5q76 68 89 68q19 0 23.5 -18.5t3.5 -38.5q0 -2 -10 -83q-13 -85 -20 -157t-8 -172
q18 62 74 138.5t127.5 130t132.5 53.5h128v-70h-117q-57 0 -118.5 -32.5t-110.5 -92t-72 -135.5q-7 -25 -11 -43q-11 -43 -19 -63.5t-21 -20.5q-8 0 -13 11z" />
    <glyph glyph-name="uniFBAB" unicode="&#x6be;" arabic-form="final" 
d="M700 70v-70h-273h-9q-25 0 -50.5 6.5t-64.5 22.5l-180 -100l-25 -14q-28 -16 -43 -23.5t-21 -7.5q-7 0 -10.5 5t-3.5 12q0 15 26 32.5t102 55.5l103 51q-69 0 -103.5 36t-34.5 91q0 48 25.5 97t69 80.5t95.5 31.5h3q33 120 77.5 211t96.5 91q48 0 89 -79.5t66 -184
t25 -165.5q0 -51 -21 -97.5t-57 -81.5h118zM413 58q37 0 72 9q55 14 92 49t37 82q0 44 -28 147.5t-66.5 185.5t-69.5 82q-29 0 -62.5 -70.5t-63.5 -167.5q52 -8 81 -54.5t29 -125.5q0 -49 -14 -76t-51 -57q12 -4 44 -4zM361 94q32 24 32 84q0 44 -16.5 82t-44 61t-58.5 23
q-35 0 -66 -28.5t-49 -71.5t-18 -82q0 -45 29.5 -68.5t96.5 -23.5q62 0 94 24z" />
    <glyph glyph-name="uniFBAC" unicode="&#x6be;" arabic-form="initial" 
d="M569 599q41 -79 66 -182.5t25 -162.5q0 -68 -38.5 -126.5t-94.5 -93t-105 -34.5h-422v70h97q0 113 35.5 181t83 96t90.5 29q33 120 77.5 211t96.5 91q48 0 89 -79zM526.5 80.5q40.5 18.5 64 49.5t23.5 68q0 44 -28 147.5t-66.5 185.5t-69.5 82q-29 0 -62.5 -70.5
t-63.5 -167.5q50 -6 80 -53.5t30 -127.5q0 -47 -11.5 -73.5t-38.5 -51.5q41 -7 54 -7q48 0 88.5 18.5zM360 93q33 23 33 84q0 44 -16.5 82.5t-44 61.5t-58.5 23q-35 0 -66 -30.5t-49 -76.5t-18 -91q0 -24 8.5 -40.5t34.5 -26t76 -9.5q67 0 100 23z" />
    <glyph glyph-name="uniFBAD" unicode="&#x6be;" arabic-form="medial" 
d="M700 70v-70h-276h-2h-422v70h97q0 113 35.5 181t83 96t90.5 29q33 120 77.5 211t96.5 91q48 0 89 -79t66 -182.5t25 -162.5q0 -53 -23.5 -100t-62.5 -84h126zM438 62q48 0 88.5 18.5t64 49.5t23.5 68q0 44 -28 147.5t-66.5 185.5t-69.5 82q-29 0 -62.5 -70.5
t-63.5 -167.5q50 -6 80 -53.5t30 -127.5q0 -47 -11.5 -73.5t-38.5 -51.5q41 -7 54 -7zM360 93q33 23 33 84q0 44 -16.5 82.5t-44 61.5t-58.5 23q-35 0 -66 -30.5t-49 -76.5t-18 -91q0 -24 8.5 -40.5t34.5 -26t76 -9.5q67 0 100 23z" />
    <glyph glyph-name="uniFBAF" unicode="&#x6d2;" arabic-form="final" 
d="M28 -168q0 45 26.5 88t71.5 76q62 45 139 59.5t190 14.5h245v-70h-274q-104 0 -168.5 -12.5t-110.5 -43.5q-31 -22 -50 -47t-19 -51q0 -56 84 -75.5t220 -19.5q172 0 300 22l-3 -44q-96 -27 -176 -38t-161 -11q-314 0 -314 152z" />
    <glyph glyph-name="uniFBB1" unicode="&#x6d3;" arabic-form="final" 
d="M241 332q-4 8 -4 17q0 6 17 15l54 32q-23 11 -34.5 30.5t-11.5 44.5q0 57 27 90t75 33q25 0 38.5 -13.5t15.5 -28.5l1 -5q0 -7 -4 -11t-9 -4q-4 1 -28 12.5t-44 11.5q-29 0 -38.5 -9.5t-9.5 -35.5q0 -37 15.5 -64t72.5 -27l56 1l18 1q17 0 22 -10l1 -2l1 -2
q0 -4 -5.5 -7.5t-13.5 -5.5q-103 -24 -131 -33t-73 -34q-7 -2 -8 4zM28 -168q0 45 26.5 88t71.5 76q62 45 139 59.5t190 14.5h245v-70h-274q-104 0 -168.5 -12.5t-110.5 -43.5q-31 -22 -50 -47t-19 -51q0 -56 84 -75.5t220 -19.5q172 0 300 22l-3 -44q-96 -27 -176 -38
t-161 -11q-314 0 -314 152z" />
    <glyph glyph-name="uniFBFD" unicode="&#x6cc;" arabic-form="final" 
d="M122.5 -292.5q-62.5 57.5 -62.5 186.5q0 77 23.5 152t73.5 136l11 -5q-39 -70 -56.5 -125t-17.5 -119q0 -120 56.5 -166.5t166.5 -46.5q70 0 131.5 14.5t99 41.5t37.5 62q0 31 -24.5 61.5t-46 49.5t-26.5 24l-20 18q-44 42 -62 56l30 54q60 -14 135.5 -22.5t129.5 -8.5
v-70q-127 0 -219 33q82 -57 114.5 -106t32.5 -100q0 -40 -21 -70.5t-77 -56.5q-49 -23 -113 -36.5t-118 -13.5q-115 0 -177.5 57.5z" />
    <glyph glyph-name="uniFBFE" unicode="&#x6cc;" arabic-form="initial" 
d="M0 70h408q53 0 94 16.5t63.5 42t22.5 50.5q0 17 -8.5 68.5t-23.5 111.5l41 91q18 -64 33 -131.5t15 -111.5q0 -55 -28.5 -102t-88.5 -76t-151 -29h-377v70zM361 -255l55 63l57 -61l-54 -64zM197 -258l54 63l57 -60l-53 -65z" />
    <glyph glyph-name="uniFBFF" unicode="&#x6cc;" arabic-form="medial" 
d="M700 0q-75 0 -122 14t-76.5 49t-49.5 101q-20 -61 -45.5 -96t-65.5 -51.5t-102 -16.5h-239v70h230q92 0 148.5 29t56.5 90q0 39 -10 106l69 83q-1 -24 -1 -119q0 -90 1 -106q3 -37 62 -60t144 -23v-70zM361 -255l55 63l57 -61l-54 -64zM197 -258l54 63l57 -60l-53 -65z
" />
    <glyph glyph-name="uniFCCC" unicode="&#xfccc;" arabic-form="initial" 
d="M623 49q0 -8 -8 -18l-26 -30q-14 -16 -28 -16q-15 0 -32 12l-99 70q-14 10 -16 24q-31 -45 -84.5 -68t-108.5 -23h-221v70h264q53 0 81.5 17.5t40 56t11.5 106.5q0 81 -11 246.5t-26 278.5l66 65l50 -86q-20 -31 -28.5 -49t-6.5 -39q0 -44 1 -72q2 -90 2 -197v-202
q0 -13 -1 -20q43 -32 118 -73q30 -16 36 -20q26 -16 26 -33z" />
    <glyph glyph-name="uniFCD1" unicode="&#xfcd1;" arabic-form="initial" 
d="M556 517q0 -21 -10.5 -36.5t-34.5 -29.5q-17 -10 -42 -20t-31 -12q-60 -22 -103.5 -45t-78.5 -62q-32 -35 -32 -68q0 -28 21 -67.5t70 -101.5q28 -16 63 -33t47 -23q31 -15 35 -17q6 -3 6 -7q0 -3 -10 -15l-33 -38q-14 -16 -23 -16q-5 0 -13 5l-91 67q-18 13 -25 32
q-22 -20 -58.5 -25t-106.5 -5h-106v70h231q-29 33 -46.5 76.5t-17.5 85.5q0 41 20 76q29 50 97.5 96.5t144.5 68.5q-40 12 -54 26.5t-14 36.5q0 14 6 26.5t20 34.5q16 24 30 33t21 9t30 -15.5t47.5 -37.5t37.5 -41q3 -15 3 -28z" />
    <glyph glyph-name="uniFDF2" unicode="&#xfdf2;" horiz-adv-x="2800" arabic-form="isolated" 
d="M2292 110l-20 -150h-20l-40 752l78 98zM1842 787l30 -86q-12 -14 -14.5 -75.5t-2.5 -228.5v-137q0 -136 -62.5 -208t-185.5 -72q-121 0 -196 70.5t-93 208.5q0 -279 -314 -279q-126 0 -199.5 60t-107.5 147l-12 -34q-63 -42 -160 -42q-38 0 -72 6.5t-54 15.5
q-25 12 -40.5 35.5t-15.5 53.5q0 73 98 176q99 104 225 159l-10 51l52 23q8 -201 13.5 -289t11.5 -123q16 -91 78.5 -130t176.5 -39q106 0 171.5 22.5t98.5 75.5t33 143q0 129 -2 186t-11 135l68 75l8 -2q0 -53 -4 -151q-4 -100 -4 -144q0 -85 9 -140q18 -110 84.5 -155
t172.5 -45q60 0 102 16.5t68 65.5t26 142q0 58 -7 190t-20 258zM692 203q-3 85 -7.5 149.5t-12.5 160.5q-65 -27 -139.5 -90.5t-109.5 -110.5q-30 -39 -30 -69t31.5 -46.5t93.5 -16.5q71 0 174 23z" />
    <glyph glyph-name="uniFE82" unicode="&#x622;" arabic-form="final" 
d="M28 942q17 60 48.5 88.5t64.5 28.5q13 0 21.5 -6t24.5 -21q22 -20 40.5 -31t48.5 -11q26 0 61.5 13.5t109.5 50.5q7 0 11.5 -4t4.5 -11q0 -16 -19 -36t-71 -41t-94 -21q-45 0 -89 27.5t-67 69.5q-18 -9 -35.5 -39t-39.5 -83zM335.5 14q-50.5 14 -78 66t-32.5 165l-3 101
q-1 23 -4.5 140t-12.5 270l65 65v-538q0 -93 11 -137t39.5 -60t89.5 -16h290v-70h-214q-100 0 -150.5 14z" />
    <glyph glyph-name="uniFE84" unicode="&#x623;" arabic-form="final" 
d="M101 900q-1 3 -2.5 8.5t-1.5 10.5q0 6 19 17l61 35q-25 12 -38 34.5t-13 50.5q0 64 30 101t84 37q28 0 43 -15t18 -32l1 -6q0 -8 -4.5 -12t-9.5 -4q-2 0 -30.5 13.5t-50.5 13.5q-33 0 -44 -11t-11 -40q0 -42 17.5 -72.5t82.5 -30.5q15 0 24 1l39 1l20 1q19 0 24 -11l2 -3
q1 -1 1 -3q0 -7 -22 -14q-65 -15 -107.5 -25.5t-64 -19.5t-58.5 -29q-6 -3 -9 4zM335.5 14q-50.5 14 -78 66t-32.5 165l-3 101q-1 23 -4.5 140t-12.5 270l65 65v-538q0 -93 11 -137t39.5 -60t89.5 -16h290v-70h-214q-100 0 -150.5 14z" />
    <glyph glyph-name="uniFE86" unicode="&#x624;" arabic-form="final" 
d="M202 613q0 2 -2 7.5t-2 9.5q0 6 17 16l57 32q-24 12 -36 32t-12 46q0 59 28 93t77 34q26 0 40 -14t17 -30v-4q0 -7 -4 -11t-9 -4q-4 1 -29 12.5t-45 11.5q-30 0 -40.5 -10t-10.5 -37q0 -38 16 -66t76 -28q14 0 23 1l35 1l18 1q17 0 22 -10l2 -3l1 -2q0 -4 -6 -7.5
t-14 -5.5q-110 -26 -137.5 -35t-73.5 -34q-5 -2 -8 4zM700 0q-78 0 -131 -1q-20 -160 -107.5 -252.5t-231.5 -92.5q-81 0 -147 29v21h61q69 0 123.5 9.5t105.5 40.5q65 41 99.5 106t44.5 139q-48 -1 -101 -1q-116 0 -170.5 45.5t-54.5 128.5q0 59 23 131t63.5 122.5
t88.5 50.5q81 0 152 -156q57 -126 57 -250h125v-70zM258 104.5q22 -23.5 61.5 -29t125.5 -5.5h76q-2 74 -26.5 153.5t-61.5 132t-75 52.5q-30 0 -58.5 -34t-46 -86.5t-17.5 -104.5q0 -55 22 -78.5z" />
    <glyph glyph-name="uniFE88" unicode="&#x625;" arabic-form="final" 
d="M335.5 14q-50.5 14 -78 66t-32.5 165l-3 101q-1 23 -4.5 140t-12.5 270l65 65v-538q0 -93 11 -137t39.5 -60t89.5 -16h290v-70h-214q-100 0 -150.5 14zM223 -472q-4 0 -6 6q0 2 -2 7.5t-2 11.5t19 17l61 35q-26 12 -38.5 34t-12.5 50q0 65 30 102t84 37q28 0 43 -15.5
t18 -32.5l1 -5q0 -8 -4.5 -12t-9.5 -4q-2 0 -30.5 13.5t-50.5 13.5q-33 0 -44 -11.5t-11 -40.5q0 -41 17.5 -71.5t82.5 -30.5q15 0 24 1l39 1l19 1q20 0 25 -11l2 -3q1 -1 1 -3q0 -7 -22 -14q-86 -20 -118 -28t-53.5 -17.5t-58.5 -29.5q-1 -1 -3 -1z" />
    <glyph glyph-name="uniFE8A" unicode="&#x626;" arabic-form="final" 
d="M270 419q-4 8 -4 17q0 6 17 15l54 32q-23 11 -34.5 30.5t-11.5 44.5q0 57 27 90t75 33q25 0 38.5 -13.5t15.5 -28.5l1 -5q0 -7 -4 -11t-9 -4q-4 1 -28 12.5t-44 11.5q-29 0 -38.5 -9.5t-9.5 -35.5q0 -37 15.5 -64t72.5 -27l56 1l18 1q17 0 22 -10l1 -2l1 -2
q0 -4 -5.5 -7.5t-13.5 -5.5q-103 -24 -131 -33t-73 -34q-7 -2 -8 4zM122.5 -292.5q-62.5 57.5 -62.5 186.5q0 77 23.5 152t73.5 136l11 -5q-39 -70 -56.5 -125t-17.5 -119q0 -120 56.5 -166.5t166.5 -46.5q70 0 131.5 14.5t99 41.5t37.5 62q0 31 -24.5 61.5t-46 49.5
t-26.5 24l-20 18q-44 42 -62 56l30 54q60 -14 135.5 -22.5t129.5 -8.5v-70q-127 0 -219 33q82 -57 114.5 -106t32.5 -100q0 -40 -21 -70.5t-77 -56.5q-49 -23 -113 -36.5t-118 -13.5q-115 0 -177.5 57.5z" />
    <glyph glyph-name="uniFE8B" unicode="&#x626;" arabic-form="initial" 
d="M212 571q-4 8 -4 17q0 6 17 15l54 32q-23 11 -34.5 30.5t-11.5 44.5q0 57 27 90t75 33q25 0 38.5 -13.5t15.5 -28.5l1 -5q0 -7 -4 -11t-9 -4q-4 1 -28 12.5t-44 11.5q-29 0 -38.5 -9.5t-9.5 -35.5q0 -37 15.5 -64t72.5 -27l56 1l18 1q17 0 22 -10l1 -2l1 -2
q0 -4 -5.5 -7.5t-13.5 -5.5q-103 -24 -131 -33t-73 -34q-7 -2 -8 4zM0 70h408q53 0 94 16.5t63.5 42t22.5 50.5q0 17 -8.5 68.5t-23.5 111.5l41 91q18 -64 33 -131.5t15 -111.5q0 -55 -28.5 -102t-88.5 -76t-151 -29h-377v70z" />
    <glyph glyph-name="uniFE8C" unicode="&#x626;" arabic-form="medial" 
d="M225 532q-4 8 -4 17q0 6 17 15l54 32q-23 11 -34.5 30.5t-11.5 44.5q0 57 27 90t75 33q25 0 38.5 -13.5t15.5 -28.5l1 -5q0 -7 -4 -11t-9 -4q-4 1 -28 12.5t-44 11.5q-29 0 -38.5 -9.5t-9.5 -35.5q0 -37 15.5 -64t72.5 -27l56 1l18 1q17 0 22 -10l1 -2l1 -2
q0 -4 -5.5 -7.5t-13.5 -5.5q-103 -24 -131 -33t-73 -34q-7 -2 -8 4zM700 0q-75 0 -122 14t-76.5 49t-49.5 101q-20 -61 -45.5 -96t-65.5 -51.5t-102 -16.5h-239v70h230q92 0 148.5 29t56.5 90q0 39 -10 106l69 83q-1 -24 -1 -119q0 -90 1 -106q3 -37 62 -60t144 -23v-70z
" />
    <glyph glyph-name="uniFE8E" unicode="&#x627;" arabic-form="final" 
d="M335.5 14q-50.5 14 -78 66t-32.5 165l-3 101q-1 23 -4.5 140t-12.5 270l65 65v-538q0 -93 11 -137t39.5 -60t89.5 -16h290v-70h-214q-100 0 -150.5 14z" />
    <glyph glyph-name="uniFE90" unicode="&#x628;" arabic-form="final" 
d="M58.5 45q-58.5 45 -58.5 122q0 48 22 107.5t49 101.5h13q-33 -85 -33 -155q0 -69 33.5 -110t101.5 -41h243q50 0 85 22t56 72q10 25 15.5 51t5.5 37l50 42l-5 -32q-5 -31 -8 -44t-7 -34q-2 -8 -2 -24q0 -40 23.5 -65t57.5 -25v-70h-5q-32 0 -57.5 31.5t-39.5 89.5
q-32 -65 -80.5 -93t-139.5 -28h-165q-96 0 -154.5 45zM294 -260l57 63l56 -63l-56 -64z" />
    <glyph glyph-name="uniFE91" unicode="&#x628;" arabic-form="initial" 
d="M0 70h408q53 0 94 16.5t63.5 42t22.5 50.5q0 17 -8.5 68.5t-23.5 111.5l41 91q18 -64 33 -131.5t15 -111.5q0 -55 -28.5 -102t-88.5 -76t-151 -29h-377v70zM294 -260l57 63l56 -63l-56 -64z" />
    <glyph glyph-name="uniFE92" unicode="&#x628;" arabic-form="medial" 
d="M700 0q-75 0 -122 14t-76.5 49t-49.5 101q-20 -61 -45.5 -96t-65.5 -51.5t-102 -16.5h-239v70h230q92 0 148.5 29t56.5 90q0 39 -10 106l69 83q-1 -24 -1 -119q0 -90 1 -106q3 -37 62 -60t144 -23v-70zM294 -260l57 63l56 -63l-56 -64z" />
    <glyph glyph-name="uniFE94" unicode="&#x629;" arabic-form="final" 
d="M700 70v-70h-59q-95 0 -149 49t-69 127l-12 -36q-63 -42 -160 -42q-38 0 -72 6.5t-54 15.5q-25 12 -40.5 35.5t-15.5 53.5q0 73 98 176q99 104 225 159l-10 51l52 23q2 -40 2 -55q5 -111 8.5 -179.5t12.5 -177.5q5 -57 50 -96.5t126 -39.5h67zM418 190q-3 85 -7.5 149.5
t-12.5 160.5q-65 -27 -136.5 -87.5t-112.5 -113.5q-30 -39 -30 -68q0 -30 32 -47t94 -17q70 0 173 23zM363 814l55 63l57 -61l-54 -64zM199 811l54 63l57 -60l-53 -65z" />
    <glyph glyph-name="uniFE96" unicode="&#x62a;" arabic-form="final" 
d="M58.5 45q-58.5 45 -58.5 122q0 48 22 107.5t49 101.5h13q-33 -85 -33 -155q0 -69 33.5 -110t101.5 -41h243q50 0 85 22t56 72q10 25 15.5 51t5.5 37l50 42l-5 -32q-5 -31 -8 -44t-7 -34q-2 -8 -2 -24q0 -40 23.5 -65t57.5 -25v-70h-5q-32 0 -57.5 31.5t-39.5 89.5
q-32 -65 -80.5 -93t-139.5 -28h-165q-96 0 -154.5 45zM401 626l55 63l57 -61l-54 -64zM237 623l54 63l57 -60l-53 -65z" />
    <glyph glyph-name="uniFE97" unicode="&#x62a;" arabic-form="initial" 
d="M0 70h408q53 0 94 16.5t63.5 42t22.5 50.5q0 17 -8.5 68.5t-23.5 111.5l41 91q18 -64 33 -131.5t15 -111.5q0 -55 -28.5 -102t-88.5 -76t-151 -29h-377v70zM310 626l55 63l57 -61l-54 -64zM146 623l54 63l57 -60l-53 -65z" />
    <glyph glyph-name="uniFE98" unicode="&#x62a;" arabic-form="medial" 
d="M700 0q-75 0 -122 14t-76.5 49t-49.5 101q-20 -61 -45.5 -96t-65.5 -51.5t-102 -16.5h-239v70h230q92 0 148.5 29t56.5 90q0 39 -10 106l69 83q-1 -24 -1 -119q0 -90 1 -106q3 -37 62 -60t144 -23v-70zM310 626l55 63l57 -61l-54 -64zM146 623l54 63l57 -60l-53 -65z" />
    <glyph glyph-name="uniFE9A" unicode="&#x62b;" arabic-form="final" 
d="M58.5 45q-58.5 45 -58.5 122q0 48 22 107.5t49 101.5h13q-33 -85 -33 -155q0 -69 33.5 -110t101.5 -41h243q50 0 85 22t56 72q10 25 15.5 51t5.5 37l50 42l-5 -32q-5 -31 -8 -44t-7 -34q-2 -8 -2 -24q0 -40 23.5 -65t57.5 -25v-70h-5q-32 0 -57.5 31.5t-39.5 89.5
q-32 -65 -80.5 -93t-139.5 -28h-165q-96 0 -154.5 45zM296 702l57 63l56 -63l-56 -64zM241 544l57 63l56 -63l-56 -64zM383 544l57 63l56 -63l-56 -64z" />
    <glyph glyph-name="uniFE9B" unicode="&#x62b;" arabic-form="initial" 
d="M0 70h408q53 0 94 16.5t63.5 42t22.5 50.5q0 17 -8.5 68.5t-23.5 111.5l41 91q18 -64 33 -131.5t15 -111.5q0 -55 -28.5 -102t-88.5 -76t-151 -29h-377v70zM186 757l57 63l56 -63l-56 -64zM131 599l57 63l56 -63l-56 -64zM273 599l57 63l56 -63l-56 -64z" />
    <glyph glyph-name="uniFE9C" unicode="&#x62b;" arabic-form="medial" 
d="M700 0q-75 0 -122 14t-76.5 49t-49.5 101q-20 -61 -45.5 -96t-65.5 -51.5t-102 -16.5h-239v70h230q92 0 148.5 29t56.5 90q0 39 -10 106l69 83q-1 -24 -1 -119q0 -90 1 -106q3 -37 62 -60t144 -23v-70zM231 757l57 63l56 -63l-56 -64zM176 599l57 63l56 -63l-56 -64z
M318 599l57 63l56 -63l-56 -64z" />
    <glyph glyph-name="uniFE9E" unicode="&#x62c;" arabic-form="final" 
d="M267.5 178.5q-78.5 -50.5 -129 -126.5t-50.5 -174q0 -71 28.5 -132t90 -98.5t156.5 -37.5q86 0 146.5 37t112.5 101l15 -18q-43 -77 -120.5 -131.5t-191.5 -54.5q-90 0 -156 38t-101 107t-35 161q0 177 132.5 301.5t389.5 182.5l-19 8q-93 39 -139 53.5t-96 14.5
q-53 0 -108.5 -16.5t-104.5 -45.5l-8 6l43 68q41 31 90 45.5t99 14.5t85 -12t83 -37t87.5 -39t96.5 -17q1 -8 -24 -58q-14 -30 -15 -33q-62 3 -144 -17q6 -82 23.5 -125.5t43 -58.5t62.5 -15h90v-70h-84q-82 0 -130.5 64t-49.5 193q-90 -28 -168.5 -78.5zM339 -131l57 63
l56 -63l-56 -64z" />
    <glyph glyph-name="uniFE9F" unicode="&#x62c;" arabic-form="initial" 
d="M0 70h185q77 0 166.5 16t157.5 66q32 24 52 55.5t53 104.5q-123 41 -196.5 56t-121.5 15q-106 0 -167 -62l-8 6l23 68q87 60 182 60q51 0 98 -15t113 -45q49 -21 77 -31.5t57 -15.5l-6 -25q-13 -1 -21 -13.5t-20 -42.5q-20 -51 -45.5 -94.5t-74.5 -86.5
q-44 -39 -99.5 -58t-104 -23.5t-106.5 -4.5h-194v70zM294 -260l57 63l56 -63l-56 -64z" />
    <glyph glyph-name="uniFEA0" unicode="&#x62c;" arabic-form="medial" 
d="M700 70v-70h-22q-56 0 -79 56t-25 127q-37 -50 -80 -87q-51 -44 -101.5 -65t-94 -26t-104.5 -5h-194v70h185q77 0 167 16t158 67q31 23 51 54.5t53 104.5q-129 43 -192.5 57.5t-114.5 14.5q-56 0 -93 -14.5t-75 -48.5l-8 6l13 68q87 60 182 60q51 0 98 -15t113 -45
q49 -21 77 -31.5t57 -15.5l-6 -45q-12 0 -21.5 -12t-28.5 -44q-5 -7 -15 -25q1 -60 7.5 -91.5t22.5 -46t48 -14.5h22zM294 -260l57 63l56 -63l-56 -64z" />
    <glyph glyph-name="uniFEA2" unicode="&#x62d;" arabic-form="final" 
d="M267.5 178.5q-78.5 -50.5 -129 -126.5t-50.5 -174q0 -71 28.5 -132t90 -98.5t156.5 -37.5q86 0 146.5 37t112.5 101l15 -18q-43 -77 -120.5 -131.5t-191.5 -54.5q-90 0 -156 38t-101 107t-35 161q0 177 132.5 301.5t389.5 182.5l-19 8q-93 39 -139 53.5t-96 14.5
q-53 0 -108.5 -16.5t-104.5 -45.5l-8 6l43 68q41 31 90 45.5t99 14.5t85 -12t83 -37t87.5 -39t96.5 -17q1 -8 -24 -58q-14 -30 -15 -33q-62 3 -144 -17q6 -82 23.5 -125.5t43 -58.5t62.5 -15h90v-70h-84q-82 0 -130.5 64t-49.5 193q-90 -28 -168.5 -78.5z" />
    <glyph glyph-name="uniFEA3" unicode="&#x62d;" arabic-form="initial" 
d="M0 70h185q77 0 166.5 16t157.5 66q32 24 52 55.5t53 104.5q-123 41 -196.5 56t-121.5 15q-106 0 -167 -62l-8 6l23 68q87 60 182 60q51 0 98 -15t113 -45q49 -21 77 -31.5t57 -15.5l-6 -25q-13 -1 -21 -13.5t-20 -42.5q-20 -51 -45.5 -94.5t-74.5 -86.5
q-44 -39 -99.5 -58t-104 -23.5t-106.5 -4.5h-194v70z" />
    <glyph glyph-name="uniFEA4" unicode="&#x62d;" arabic-form="medial" 
d="M700 70v-70h-22q-56 0 -79 56t-25 127q-37 -50 -80 -87q-51 -44 -101.5 -65t-94 -26t-104.5 -5h-194v70h185q77 0 167 16t158 67q31 23 51 54.5t53 104.5q-129 43 -192.5 57.5t-114.5 14.5q-56 0 -93 -14.5t-75 -48.5l-8 6l13 68q87 60 182 60q51 0 98 -15t113 -45
q49 -21 77 -31.5t57 -15.5l-6 -45q-12 0 -21.5 -12t-28.5 -44q-5 -7 -15 -25q1 -60 7.5 -91.5t22.5 -46t48 -14.5h22z" />
    <glyph glyph-name="uniFEA6" unicode="&#x62e;" arabic-form="final" 
d="M267.5 178.5q-78.5 -50.5 -129 -126.5t-50.5 -174q0 -71 28.5 -132t90 -98.5t156.5 -37.5q86 0 146.5 37t112.5 101l15 -18q-43 -77 -120.5 -131.5t-191.5 -54.5q-90 0 -156 38t-101 107t-35 161q0 177 132.5 301.5t389.5 182.5l-19 8q-93 39 -139 53.5t-96 14.5
q-53 0 -108.5 -16.5t-104.5 -45.5l-8 6l43 68q41 31 90 45.5t99 14.5t85 -12t83 -37t87.5 -39t96.5 -17q1 -8 -24 -58q-14 -30 -15 -33q-62 3 -144 -17q6 -82 23.5 -125.5t43 -58.5t62.5 -15h90v-70h-84q-82 0 -130.5 64t-49.5 193q-90 -28 -168.5 -78.5zM293 700l57 63
l56 -63l-56 -64z" />
    <glyph glyph-name="uniFEA7" unicode="&#x62e;" arabic-form="initial" 
d="M0 70h185q77 0 166.5 16t157.5 66q32 24 52 55.5t53 104.5q-123 41 -196.5 56t-121.5 15q-106 0 -167 -62l-8 6l23 68q87 60 182 60q51 0 98 -15t113 -45q49 -21 77 -31.5t57 -15.5l-6 -25q-13 -1 -21 -13.5t-20 -42.5q-20 -51 -45.5 -94.5t-74.5 -86.5
q-44 -39 -99.5 -58t-104 -23.5t-106.5 -4.5h-194v70zM293 720l57 63l56 -63l-56 -64z" />
    <glyph glyph-name="uniFEA8" unicode="&#x62e;" arabic-form="medial" 
d="M700 70v-70h-22q-56 0 -79 56t-25 127q-37 -50 -80 -87q-51 -44 -101.5 -65t-94 -26t-104.5 -5h-194v70h185q77 0 167 16t158 67q31 23 51 54.5t53 104.5q-129 43 -192.5 57.5t-114.5 14.5q-56 0 -93 -14.5t-75 -48.5l-8 6l13 68q87 60 182 60q51 0 98 -15t113 -45
q49 -21 77 -31.5t57 -15.5l-6 -45q-12 0 -21.5 -12t-28.5 -44q-5 -7 -15 -25q1 -60 7.5 -91.5t22.5 -46t48 -14.5h22zM333 720l57 63l56 -63l-56 -64z" />
    <glyph glyph-name="uniFEAA" unicode="&#x62f;" arabic-form="final" 
d="M139.5 5q-20.5 4 -34 17t-13.5 41q0 37 28 37q12 0 34 -11q21 -9 36.5 -14t37.5 -5h52q50 0 74.5 4.5t38 24t13.5 63.5q0 90 -47 271l41 82q27 -106 60 -285q13 -70 16 -82q12 -43 52 -60.5t88 -17.5h84v-70h-84q-167 0 -185 140q-17 -58 -43.5 -88t-64.5 -41.5
t-98 -11.5l-31 1q-34 1 -54.5 5z" />
    <glyph glyph-name="uniFEAC" unicode="&#x630;" arabic-form="final" 
d="M139.5 5q-20.5 4 -34 17t-13.5 41q0 37 28 37q12 0 34 -11q21 -9 36.5 -14t37.5 -5h52q50 0 74.5 4.5t38 24t13.5 63.5q0 90 -47 271l41 82q27 -106 60 -285q13 -70 16 -82q12 -43 52 -60.5t88 -17.5h84v-70h-84q-167 0 -185 140q-17 -58 -43.5 -88t-64.5 -41.5
t-98 -11.5l-31 1q-34 1 -54.5 5zM288 754l57 63l56 -63l-56 -64z" />
    <glyph glyph-name="uniFEAE" unicode="&#x631;" arabic-form="final" 
d="M55 -317v26q97 0 169 25t121 68q63 54 92 129t29 144q0 45 -11.5 94.5t-39.5 139.5l-10 34l41 41q-1 3 8 -30q22 -80 43 -137.5t56.5 -102t83.5 -44.5h63v-70h-43q-47 0 -83.5 19t-74.5 72q3 -24 3 -47q0 -88 -33.5 -172t-84.5 -131q-40 -36 -101 -56t-130 -20
q-63 0 -98 18z" />
    <glyph glyph-name="uniFEB0" unicode="&#x632;" arabic-form="final" 
d="M55 -317v26q97 0 169 25t121 68q63 54 92 129t29 144q0 45 -11.5 94.5t-39.5 139.5l-10 34l41 41q-1 3 8 -30q22 -80 43 -137.5t56.5 -102t83.5 -44.5h63v-70h-43q-47 0 -83.5 19t-74.5 72q3 -24 3 -47q0 -88 -33.5 -172t-84.5 -131q-40 -36 -101 -56t-130 -20
q-63 0 -98 18zM293 610l57 63l56 -63l-56 -64z" />
    <glyph glyph-name="uniFEB2" unicode="&#x633;" arabic-form="final" 
d="M700 70v-70q-39 0 -54 47q-17 -19 -38.5 -29.5t-42.5 -11.5l-18 -1q-25 -1 -48 12t-38 39q-21 -23 -53.5 -36t-72.5 -14h-6q-2 -183 -61 -277.5t-171 -94.5q-100 0 -154 71t-54 196q0 71 18 120.5t58 106.5l15 -22q-25 -39 -41 -80t-16 -107q0 -97 44 -156t119 -59
q81 0 134.5 75t53.5 237q0 95 -22 185l55 20q18 -62 21 -149q48 1 79.5 15.5t29.5 56.5v8v96q0 13 8.5 22t19.5 9q12 0 20.5 -12t8.5 -19l1 -122q0 -54 52 -54q30 0 55.5 13.5t25.5 40.5v233l57 51v-258q0 -29 -10 -56q6 -26 25 -26z" />
    <glyph glyph-name="uniFEB3" unicode="&#x633;" arabic-form="initial" 
d="M656 396v-180q0 -66 -21.5 -115t-59 -75t-83.5 -26q-55 0 -96 39q-43 -39 -122 -39q-50 0 -85.5 17t-57.5 53q-12 -29 -37 -49.5t-48 -20.5h-46v70h58q26 0 43.5 37t32.5 111q2 8 6 29t9 31.5t13 10.5q12 0 15 -17t3 -47q0 -24 -8.5 -62.5t-23.5 -70.5q22 -12 48 -17
t78 -5q62 0 88 13.5t32 41t6 91.5q0 50 1 68.5t5.5 25.5t16.5 7q14 0 19.5 -8t7 -29t1.5 -80q0 -66 -21 -113q26 -17 61 -17q49 0 82 31.5t33 73.5v174z" />
    <glyph glyph-name="uniFEB4" unicode="&#x633;" arabic-form="medial" 
d="M700 70v-70q-47 0 -74.5 18t-42.5 55q-47 -73 -121 -73q-27 0 -48.5 9.5t-35.5 24.5q-43 -38 -121 -38q-43 0 -68.5 15.5t-35.5 64.5q-18 -34 -53 -55t-71 -21h-29v70h84q27 0 40.5 11t18 26t16.5 64q5 23 11 35.5t16 12.5q14 0 14 -35q0 -17 -2.5 -38.5t-3.5 -28.5
q-3 -16 -3 -23q0 -14 17.5 -21t49.5 -7q56 0 82.5 20t33 47t6.5 65q0 35 4.5 52t20.5 17q13 0 21 -15.5t8 -62.5q0 -65 -20 -108q29 -15 58 -15q33 0 62 19.5t34 46.5q2 9 2 56l-1 59q-1 17 -1 43q0 16 6.5 26t15.5 10q8 0 14.5 -9t10.5 -27q4 -20 4 -57q0 -56 -7 -88
q-4 -18 -8 -27q15 -48 96 -48z" />
    <glyph glyph-name="uniFEB6" unicode="&#x634;" arabic-form="final" 
d="M700 70v-70q-39 0 -54 47q-17 -19 -38.5 -29.5t-42.5 -11.5l-18 -1q-25 -1 -48 12t-38 39q-21 -23 -53.5 -36t-72.5 -14h-6q-2 -183 -61 -277.5t-171 -94.5q-100 0 -154 71t-54 196q0 71 18 120.5t58 106.5l15 -22q-25 -39 -41 -80t-16 -107q0 -97 44 -156t119 -59
q81 0 134.5 75t53.5 237q0 95 -22 185l55 20q18 -62 21 -149q48 1 79.5 15.5t29.5 56.5v8v96q0 13 8.5 22t19.5 9q12 0 20.5 -12t8.5 -19l1 -122q0 -54 52 -54q30 0 55.5 13.5t25.5 40.5v233l57 51v-258q0 -29 -10 -56q6 -26 25 -26zM346 752l57 63l56 -63l-56 -64zM291 594
l57 63l56 -63l-56 -64zM433 594l57 63l56 -63l-56 -64z" />
    <glyph glyph-name="uniFEB7" unicode="&#x634;" arabic-form="initial" 
d="M656 396v-180q0 -66 -21.5 -115t-59 -75t-83.5 -26q-55 0 -96 39q-43 -39 -122 -39q-50 0 -85.5 17t-57.5 53q-12 -29 -37 -49.5t-48 -20.5h-46v70h58q26 0 43.5 37t32.5 111q2 8 6 29t9 31.5t13 10.5q12 0 15 -17t3 -47q0 -24 -8.5 -62.5t-23.5 -70.5q22 -12 48 -17
t78 -5q62 0 88 13.5t32 41t6 91.5q0 50 1 68.5t5.5 25.5t16.5 7q14 0 19.5 -8t7 -29t1.5 -80q0 -66 -21 -113q26 -17 61 -17q49 0 82 31.5t33 73.5v174zM336 782l57 63l56 -63l-56 -64zM281 624l57 63l56 -63l-56 -64zM423 624l57 63l56 -63l-56 -64z" />
    <glyph glyph-name="uniFEB8" unicode="&#x634;" arabic-form="medial" 
d="M700 70v-70q-47 0 -74.5 18t-42.5 55q-47 -73 -121 -73q-27 0 -48.5 9.5t-35.5 24.5q-43 -38 -121 -38q-43 0 -68.5 15.5t-35.5 64.5q-18 -34 -53 -55t-71 -21h-29v70h84q27 0 40.5 11t18 26t16.5 64q5 23 11 35.5t16 12.5q14 0 14 -35q0 -17 -2.5 -38.5t-3.5 -28.5
q-3 -16 -3 -23q0 -14 17.5 -21t49.5 -7q56 0 82.5 20t33 47t6.5 65q0 35 4.5 52t20.5 17q13 0 21 -15.5t8 -62.5q0 -65 -20 -108q29 -15 58 -15q33 0 62 19.5t34 46.5q2 9 2 56l-1 59q-1 17 -1 43q0 16 6.5 26t15.5 10q8 0 14.5 -9t10.5 -27q4 -20 4 -57q0 -56 -7 -88
q-4 -18 -8 -27q15 -48 96 -48zM326 702l57 63l56 -63l-56 -64zM271 544l57 63l56 -63l-56 -64zM413 544l57 63l56 -63l-56 -64z" />
    <glyph glyph-name="uniFEBA" unicode="&#x635;" arabic-form="final" 
d="M700 70v-70h-213h-10q-106 0 -148 11q-1 -186 -59.5 -281.5t-172.5 -95.5q-100 0 -154 71t-54 196q0 73 13 123t43 104l15 -22q-1 -4 -7 -21q-13 -39 -21.5 -76t-8.5 -90q0 -97 44 -156t119 -59q81 0 134.5 75t53.5 237q0 49 -10.5 123.5t-21.5 121.5l55 20
q7 -25 14.5 -68t11.5 -85q35 104 68 175t78.5 115t104.5 44q66 0 94 -75.5t28 -168.5q0 -96 -41 -148h45zM449 69q62 0 105.5 9t71.5 37.5t28 84.5q0 27 -6.5 74.5t-26.5 88.5t-56 41q-55 0 -115 -89t-114 -245h39z" />
    <glyph glyph-name="uniFEBB" unicode="&#x635;" arabic-form="initial" 
d="M0 70h29q10 0 14.5 5.5t6 20.5t1.5 47v67q0 31 5 45.5t19 14.5t18.5 -14t4.5 -47l-1 -99q0 -17 2.5 -24.5t12.5 -11.5t33 -4q11 0 15.5 5t11.5 22q54 128 117.5 216t124 131t110.5 43q48 0 85 -38.5t57 -99.5t20 -127q0 -119 -71.5 -170.5t-221.5 -51.5h-187
q-26 0 -50.5 11t-42 25t-22.5 23q-8 -23 -33.5 -41t-57.5 -18v70zM453 70q77 0 118 11t57 35.5t16 69.5q0 56 -19.5 109t-53 86t-73.5 33q-69 0 -153 -97.5t-157 -246.5h265z" />
    <glyph glyph-name="uniFEBC" unicode="&#x635;" arabic-form="medial" 
d="M700 70v-70h-438q-73 0 -101 18t-40 41q0 -39 -34 -49t-87 -10v70h91q5 0 11 12.5t6 35.5v152h51l-2 -160v-16l2 3q113 192 195.5 293.5t153.5 101.5q48 0 82.5 -46t52.5 -113t18 -128q0 -115 -71 -136zM414 70q108 0 161 29t53 102q0 43 -16 95.5t-46 90t-70 37.5
q-47 0 -102 -52t-105.5 -124t-116.5 -178h242z" />
    <glyph glyph-name="uniFEBE" unicode="&#x636;" arabic-form="final" 
d="M700 70v-70h-213h-10q-106 0 -148 11q-1 -186 -59.5 -281.5t-172.5 -95.5q-100 0 -154 71t-54 196q0 73 13 123t43 104l15 -22q-1 -4 -7 -21q-13 -39 -21.5 -76t-8.5 -90q0 -97 44 -156t119 -59q81 0 134.5 75t53.5 237q0 49 -10.5 123.5t-21.5 121.5l55 20
q7 -25 14.5 -68t11.5 -85q35 104 68 175t78.5 115t104.5 44q66 0 94 -75.5t28 -168.5q0 -96 -41 -148h45zM449 69q62 0 105.5 9t71.5 37.5t28 84.5q0 27 -6.5 74.5t-26.5 88.5t-56 41q-55 0 -115 -89t-114 -245h39zM406 660l57 63l56 -63l-56 -64z" />
    <glyph glyph-name="uniFEBF" unicode="&#x636;" arabic-form="initial" 
d="M0 70h29q10 0 14.5 5.5t6 20.5t1.5 47v67q0 31 5 45.5t19 14.5t18.5 -14t4.5 -47l-1 -99q0 -17 2.5 -24.5t12.5 -11.5t33 -4q11 0 15.5 5t11.5 22q54 128 117.5 216t124 131t110.5 43q48 0 85 -38.5t57 -99.5t20 -127q0 -119 -71.5 -170.5t-221.5 -51.5h-187
q-26 0 -50.5 11t-42 25t-22.5 23q-8 -23 -33.5 -41t-57.5 -18v70zM453 70q77 0 118 11t57 35.5t16 69.5q0 56 -19.5 109t-53 86t-73.5 33q-69 0 -153 -97.5t-157 -246.5h265zM293 660l57 63l56 -63l-56 -64z" />
    <glyph glyph-name="uniFEC0" unicode="&#x636;" arabic-form="medial" 
d="M700 70v-70h-438q-73 0 -101 18t-40 41q0 -39 -34 -49t-87 -10v70h91q5 0 11 12.5t6 35.5v152h51l-2 -160v-16l2 3q113 192 195.5 293.5t153.5 101.5q48 0 82.5 -46t52.5 -113t18 -128q0 -115 -71 -136zM414 70q108 0 161 29t53 102q0 43 -16 95.5t-46 90t-70 37.5
q-47 0 -102 -52t-105.5 -124t-116.5 -178h242zM293 680l57 63l56 -63l-56 -64z" />
    <glyph glyph-name="uniFEC2" unicode="&#x637;" arabic-form="final" 
d="M700 70v-70h-349h-351q0 21 9.5 37t22 24t22.5 9h4q35 0 49 4t24 23l12 22q7 45 7 134v36q-1 94 -6.5 284.5t-10.5 216.5l40 70l37 -81q-32 -71 -32 -532v-62q72 131 148 216.5t157 85.5q52 0 90 -37.5t57.5 -97t19.5 -125.5q0 -103 -51 -157h101zM554.5 105.5
q53.5 35.5 53.5 113.5q0 47 -19.5 92.5t-52.5 74t-72 28.5q-119 0 -288 -301q-9 -30 -17 -43h258q84 0 137.5 35.5z" />
    <glyph glyph-name="uniFEC3" unicode="&#x637;" arabic-form="initial" 
d="M609 449.5q38 -37.5 57.5 -97t19.5 -125.5q0 -91 -37.5 -141t-101 -68t-154.5 -18h-393v70h94q35 0 49 4t24 23l1 2q13 46 13 140l-1 50q-1 94 -6.5 284.5t-10.5 216.5l40 70l37 -81q-32 -71 -32 -543v-62q73 135 150.5 224t160.5 89q52 0 90 -37.5zM590.5 105.5
q53.5 35.5 53.5 113.5q0 47 -19.5 92.5t-52.5 74t-72 28.5q-66 0 -141.5 -85.5t-161.5 -241.5q-3 -8 -8 -17h264q84 0 137.5 35.5z" />
    <glyph glyph-name="uniFEC4" unicode="&#x637;" arabic-form="medial" 
d="M700 70v-70h-349h-297h-53v70h57q35 0 49 4t24 23l12 22q7 45 7 134v36q-1 94 -6.5 284.5t-10.5 216.5l40 70l37 -81q-32 -71 -32 -532v-62q72 131 148 216.5t157 85.5q52 0 90 -37.5t57.5 -97t19.5 -125.5q0 -103 -51 -157h101zM554.5 105.5q53.5 35.5 53.5 113.5
q0 47 -19.5 92.5t-52.5 74t-72 28.5q-119 0 -288 -301q-9 -30 -17 -43h258q84 0 137.5 35.5z" />
    <glyph glyph-name="uniFEC6" unicode="&#x638;" arabic-form="final" 
d="M700 70v-70h-349h-351q0 21 9.5 37t22 24t22.5 9h4q35 0 49 4t24 23l12 22q7 45 7 134v36q-1 94 -6.5 284.5t-10.5 216.5l40 70l37 -81q-32 -71 -32 -532v-62q72 131 148 216.5t157 85.5q52 0 90 -37.5t57.5 -97t19.5 -125.5q0 -103 -51 -157h101zM554.5 105.5
q53.5 35.5 53.5 113.5q0 47 -19.5 92.5t-52.5 74t-72 28.5q-119 0 -288 -301q-9 -30 -17 -43h258q84 0 137.5 35.5zM393 660l57 63l56 -63l-56 -64z" />
    <glyph glyph-name="uniFEC7" unicode="&#x638;" arabic-form="initial" 
d="M609 449.5q38 -37.5 57.5 -97t19.5 -125.5q0 -91 -37.5 -141t-101 -68t-154.5 -18h-393v70h94q35 0 49 4t24 23l1 2q13 46 13 140l-1 50q-1 94 -6.5 284.5t-10.5 216.5l40 70l37 -81q-32 -71 -32 -543v-62q73 135 150.5 224t160.5 89q52 0 90 -37.5zM590.5 105.5
q53.5 35.5 53.5 113.5q0 47 -19.5 92.5t-52.5 74t-72 28.5q-66 0 -141.5 -85.5t-161.5 -241.5q-3 -8 -8 -17h264q84 0 137.5 35.5zM433 675l57 63l56 -63l-56 -64z" />
    <glyph glyph-name="uniFEC8" unicode="&#x638;" arabic-form="medial" 
d="M700 70v-70h-349h-297h-53v70h57q35 0 49 4t24 23l12 22q7 45 7 134v36q-1 94 -6.5 284.5t-10.5 216.5l40 70l37 -81q-32 -71 -32 -532v-62q72 131 148 216.5t157 85.5q52 0 90 -37.5t57.5 -97t19.5 -125.5q0 -103 -51 -157h101zM554.5 105.5q53.5 35.5 53.5 113.5
q0 47 -19.5 92.5t-52.5 74t-72 28.5q-119 0 -288 -301q-9 -30 -17 -43h258q84 0 137.5 35.5zM393 675l57 63l56 -63l-56 -64z" />
    <glyph glyph-name="uniFECA" unicode="&#x639;" arabic-form="final" 
d="M155 -61.5q-51 -74.5 -51 -170.5q0 -71 28.5 -132t90 -98.5t156.5 -37.5q86 0 146.5 37t112.5 101l15 -18q-43 -77 -120.5 -131.5t-191.5 -54.5q-90 0 -156 38t-101 107t-35 161q0 96 42 176t126 151q53 44 142 100l-64 46l-86 62q-38 27 -49.5 45.5t-11.5 51.5
q0 48 18.5 77t62.5 43t121 14t116.5 -12.5t53 -32.5t15.5 -49q5 -72 -39 -143q-32 -51 -90 -102q12 -9 32 -27q44 -38 71.5 -54t62.5 -16h128v-70h-103q-42 0 -81 28.5t-93 82.5l-38 37q-25 -21 -91 -70q-88 -65 -139 -139.5zM389 185q54 76 79.5 120.5t25.5 80.5q0 6 -2 16
q-3 14 -14 21t-39 9.5t-85 2.5q-74 0 -107 -4.5t-43.5 -17.5t-10.5 -41q0 -19 6.5 -32.5t29.5 -30.5z" />
    <glyph glyph-name="uniFECB" unicode="&#x639;" arabic-form="initial" 
d="M592 52q-154 -34 -253.5 -43t-267.5 -9h-71v70h338q-84 37 -123.5 96.5t-39.5 123.5t37 126.5t93 101.5t108 39q50 0 92 -36.5t58 -93.5l-14 -23q-5 5 -26.5 28t-51 39t-60.5 16q-36 0 -83 -19.5t-81 -58.5t-34 -93q0 -42 20 -94.5t69.5 -93t132.5 -40.5q61 0 153 25z
" />
    <glyph glyph-name="uniFECC" unicode="&#x639;" arabic-form="medial" 
d="M700 70v-70h-38q-38 0 -72.5 9t-68.5 33q-44 30 -78 82q-132 -124 -338 -124h-105v70h127q80 0 164.5 26.5t117.5 60.5l-64 46l-86 62q-38 27 -49.5 45.5t-11.5 51.5q0 48 18.5 77t62.5 43t121 14t116.5 -12.5t52.5 -32t16 -49.5q1 -9 1 -24q0 -27 -9 -52t-32 -66
q-20 -34 -36.5 -59t-41.5 -52q20 -29 39 -46t47 -25t97 -8h50zM439 176l13 18q41 57 66.5 102t25.5 82q0 5 -2 15q-3 14 -14 21t-39 9.5t-85 2.5q-74 0 -107 -4.5t-43.5 -17.5t-10.5 -41q0 -19 6.5 -32.5t29.5 -30.5z" />
    <glyph glyph-name="uniFECE" unicode="&#x63a;" arabic-form="final" 
d="M290 679l57 63l56 -63l-56 -64zM155 -61.5q-51 -74.5 -51 -170.5q0 -71 28.5 -132t90 -98.5t156.5 -37.5q86 0 146.5 37t112.5 101l15 -18q-43 -77 -120.5 -131.5t-191.5 -54.5q-90 0 -156 38t-101 107t-35 161q0 96 42 176t126 151q53 44 142 100l-64 46l-86 62
q-38 27 -49.5 45.5t-11.5 51.5q0 48 18.5 77t62.5 43t121 14t116.5 -12.5t53 -32.5t15.5 -49q5 -72 -39 -143q-32 -51 -90 -102q12 -9 32 -27q44 -38 71.5 -54t62.5 -16h128v-70h-103q-42 0 -81 28.5t-93 82.5l-38 37q-25 -21 -91 -70q-88 -65 -139 -139.5zM389 185
q54 76 79.5 120.5t25.5 80.5q0 6 -2 16q-3 14 -14 21t-39 9.5t-85 2.5q-74 0 -107 -4.5t-43.5 -17.5t-10.5 -41q0 -19 6.5 -32.5t29.5 -30.5z" />
    <glyph glyph-name="uniFECF" unicode="&#x63a;" arabic-form="initial" 
d="M592 52q-154 -34 -253.5 -43t-267.5 -9h-71v70h338q-84 37 -123.5 96.5t-39.5 123.5t37 126.5t93 101.5t108 39q50 0 92 -36.5t58 -93.5l-14 -23q-5 5 -26.5 28t-51 39t-60.5 16q-36 0 -83 -19.5t-81 -58.5t-34 -93q0 -42 20 -94.5t69.5 -93t132.5 -40.5q61 0 153 25z
M306 776l57 63l56 -63l-56 -64z" />
    <glyph glyph-name="uniFED0" unicode="&#x63a;" arabic-form="medial" 
d="M700 70v-70h-38q-38 0 -72.5 9t-68.5 33q-44 30 -78 82q-132 -124 -338 -124h-105v70h127q80 0 164.5 26.5t117.5 60.5l-64 46l-86 62q-38 27 -49.5 45.5t-11.5 51.5q0 48 18.5 77t62.5 43t121 14t116.5 -12.5t52.5 -32t16 -49.5q1 -9 1 -24q0 -27 -9 -52t-32 -66
q-20 -34 -36.5 -59t-41.5 -52q20 -29 39 -46t47 -25t97 -8h50zM439 176l13 18q41 57 66.5 102t25.5 82q0 5 -2 15q-3 14 -14 21t-39 9.5t-85 2.5q-74 0 -107 -4.5t-43.5 -17.5t-10.5 -41q0 -19 6.5 -32.5t29.5 -30.5zM340 701l57 63l56 -63l-56 -64z" />
    <glyph glyph-name="uniFED2" unicode="&#x641;" arabic-form="final" 
d="M658.5 92q32.5 -22 41.5 -22v-70q-18 0 -45.5 20t-51.5 44.5t-31 34.5q-36 -55 -80.5 -77t-126.5 -22h-152q-213 0 -213 165q0 74 45 140l16 -20q-20 -28 -26 -52t-6 -47q0 -43 12.5 -68t43.5 -36.5t88 -11.5h224q4 0 33.5 -0.5t64.5 9t58 28.5q-85 62 -126.5 97.5
t-63 67.5t-21.5 68q0 38 20 81t53 71.5t69 28.5q41 0 77.5 -37.5t59 -94t22.5 -110.5t-32 -152q15 -13 47.5 -35zM601 234q0 51 -15.5 101t-45 83t-71.5 33q-26 0 -46 -13t-31 -32t-11 -36q0 -33 40 -74t125 -113l39 -33q8 17 12 36q4 20 4 48zM424 749l57 63l56 -63
l-56 -64z" />
    <glyph glyph-name="uniFED3" unicode="&#x641;" arabic-form="initial" 
d="M544 597q46 -53 75 -141.5t29 -190.5t-33.5 -159t-105 -81.5t-192.5 -24.5h-317v70h369q89 0 164 35t75 138v2q-114 -12 -179 -12q-151 0 -151 125q0 53 23 122.5t62.5 119.5t86.5 50q48 0 94 -53zM603 306q-10 65 -32.5 130t-57.5 110t-79 45q-37 0 -61 -32t-35 -76
t-11 -81q0 -61 31 -81t93 -20q44 0 152 5zM385 865l57 63l56 -63l-56 -64z" />
    <glyph glyph-name="uniFED4" unicode="&#x641;" arabic-form="medial" 
d="M700 70v-70h-55q-34 0 -85.5 26.5t-100.5 71.5q-44 -32 -79.5 -51t-101.5 -33t-168 -14h-110v70h72q119 0 181 3t101.5 13t65.5 31q-67 35 -110.5 60.5t-69.5 48.5q-47 41 -47 97q0 38 19 85.5t56.5 81t88.5 33.5q52 0 95 -34.5t67 -87t24 -102.5q0 -77 -59 -174
q8 -4 33 -21t56 -26q18 -5 38.5 -6.5t54.5 -1.5h34zM483 219q10 39 10 72q0 59 -26 99.5t-62 60.5t-64 20q-27 0 -48.5 -20t-34 -49t-12.5 -53q0 -31 22.5 -60t62.5 -60t117 -83q25 34 35 73zM273 756l57 63l56 -63l-56 -64z" />
    <glyph glyph-name="uniFED6" unicode="&#x642;" arabic-form="final" 
d="M700 70v-70h-53q-12 -175 -104.5 -265.5t-243.5 -90.5q-138 0 -218.5 73t-80.5 203q0 62 19 113.5t57 104.5l15 -22q-1 -1 -15 -22.5t-28 -67t-14 -91.5q0 -111 73 -166t183 -55q77 0 143 28.5t110 92.5t51 165q-102 4 -192.5 41.5t-90.5 138.5q0 42 13 102.5t45 108.5
t85 48q36 0 73 -27.5t69 -94.5q28 -57 40.5 -121.5t12.5 -125.5h51zM378 119.5q18 -19.5 65 -29.5t151 -18q-4 72 -22.5 142.5t-47.5 116.5t-64 46q-32 0 -54.5 -32.5t-34 -79t-11.5 -85.5q0 -41 18 -60.5zM485 662l55 63l57 -61l-54 -64zM321 659l54 63l57 -60l-53 -65z
" />
    <glyph glyph-name="uniFED7" unicode="&#x642;" arabic-form="initial" 
d="M544 597q46 -53 75 -141.5t29 -190.5t-33.5 -159t-105 -81.5t-192.5 -24.5h-317v70h369q89 0 164 35t75 138v2q-114 -12 -179 -12q-151 0 -151 125q0 53 23 122.5t62.5 119.5t86.5 50q48 0 94 -53zM603 306q-10 65 -32.5 130t-57.5 110t-79 45q-37 0 -61 -32t-35 -76
t-11 -81q0 -61 31 -81t93 -20q44 0 152 5zM439 856l55 63l57 -61l-54 -64zM275 853l54 63l57 -60l-53 -65z" />
    <glyph glyph-name="uniFED8" unicode="&#x642;" arabic-form="medial" 
d="M700 70v-70h-55q-34 0 -85.5 26.5t-100.5 71.5q-44 -32 -79.5 -51t-101.5 -33t-168 -14h-110v70h72q119 0 181 3t101.5 13t65.5 31q-67 35 -110.5 60.5t-69.5 48.5q-47 41 -47 97q0 38 19 85.5t56.5 81t88.5 33.5q52 0 95 -34.5t67 -87t24 -102.5q0 -77 -59 -174
q8 -4 33 -21t56 -26q18 -5 38.5 -6.5t54.5 -1.5h34zM483 219q10 39 10 72q0 59 -26 99.5t-62 60.5t-64 20q-27 0 -48.5 -20t-34 -49t-12.5 -53q0 -31 22.5 -60t62.5 -60t117 -83q25 34 35 73zM373 758l55 63l57 -61l-54 -64zM209 755l54 63l57 -60l-53 -65z" />
    <glyph glyph-name="uniFEDA" unicode="&#x643;" arabic-form="final" 
d="M113 15q-49 15 -81 46t-32 77t13.5 85.5t37.5 79.5l15 -4q-16 -38 -20 -65.5t-4 -67.5q0 -55 35.5 -75.5t95.5 -20.5h245q61 0 96.5 11t56 44t24.5 98q2 25 2 120q0 120 -4 251.5t-11 192.5l63 73h8q0 -32 -6 -228q-8 -232 -8 -308q0 -74 9.5 -132t24 -90t27.5 -32v-70
q-35 0 -58 76.5t-29 203.5q-7 -129 -37.5 -190t-71 -75.5t-106.5 -14.5h-185q-51 0 -100 15zM194 367q47 23 80 40t44 27t11 21q0 19 -15 27.5t-43 14.5q-18 4 -25 7q-10 4 -14 9.5t-4 17.5q0 32 18.5 62.5t47 49.5t55.5 19q12 0 17 -2l-18 -34q-26 0 -48.5 -10.5t-36 -25
t-13.5 -26.5q0 -15 12.5 -21.5t38.5 -12.5q29 -6 43.5 -14t14.5 -27q0 -34 -24 -59.5t-57 -42t-84 -35.5v15z" />
    <glyph glyph-name="uniFEDB" unicode="&#x643;" arabic-form="initial" 
d="M642 764l-433 -278q81 -26 156 -70.5t126.5 -96.5t64.5 -100q5 -22 5 -44q0 -42 -18.5 -82t-60 -66.5t-107.5 -26.5h-375v70h150l144 -1q79 0 133.5 5.5t82.5 20.5q12 24 12 48q0 63 -66 126.5t-146.5 107t-97.5 40.5q-31 0 -31 29q0 26 20 66q75 85 210 176t244 142z
" />
    <glyph glyph-name="uniFEDC" unicode="&#x643;" arabic-form="medial" 
d="M700 70v-70h-38q-39 0 -83.5 42t-97.5 120q-4 -65 -49.5 -113.5t-136.5 -48.5h-295v70h70l144 -1q79 0 133.5 5.5t82.5 20.5q12 24 12 48q0 63 -66 126.5t-146.5 107t-97.5 40.5q-31 0 -31 29q0 26 20 66q75 85 210 176t244 142l-13 -66l-433 -278q104 -33 194.5 -94.5
t131.5 -126.5q37 -43 73 -92q5 -7 23.5 -31t31.5 -36q18 -16 40.5 -26t42.5 -10h34z" />
    <glyph glyph-name="uniFEDE" unicode="&#x644;" arabic-form="final" 
d="M114 -318q-54 32 -84 92.5t-30 143.5q0 78 25 154t65 110l15 -22q-22 -30 -41.5 -101.5t-19.5 -139.5q0 -112 56.5 -155.5t158.5 -43.5q68 0 104.5 24.5t54 101.5t17.5 234q0 135 -10.5 337.5t-21.5 353.5l71 89q2 -42 3.5 -125t2.5 -118q4 -219 9.5 -348t18.5 -159
q11 -27 51 -33.5t103 -6.5h38v-70h-38q-19 0 -54.5 8t-68 22t-46.5 31q0 -195 -61 -303t-193 -108q-71 0 -125 32z" />
    <glyph glyph-name="uniFEDF" unicode="&#x644;" arabic-form="initial" 
d="M0 70h292q47 0 72 14t35 44.5t10 86.5q0 97 -13 271t-31 289l61 75l53 -116l-28 -68q0 -44 1 -72q2 -90 2 -197v-202q0 -75 -13 -115.5t-52 -60t-116 -19.5h-273v70z" />
    <glyph glyph-name="uniFEE0" unicode="&#x644;" arabic-form="medial" 
d="M0 70h105q106 0 164.5 25t80 66t21.5 99q0 102 -9 243.5t-23 267.5l69 89h10l1 -583q0 -96 67.5 -151.5t213.5 -55.5v-70q-86 0 -150 19.5t-108 80.5t-50 178q-9 -110 -44 -171t-88 -84t-125 -23h-135v70z" />
    <glyph glyph-name="uniFEE2" unicode="&#x645;" arabic-form="final" 
d="M59 -489q0 101 -15 360q-1 13 -1 37q0 62 23.5 106t88.5 85q6 5 21.5 30.5t27 45.5t17.5 30q91 160 125 191q6 6 27 9.5t47 3.5q53 0 69 -13q30 -25 46.5 -91t16.5 -139q0 -16 -2 -44q16 -25 37.5 -36t46 -13.5t66.5 -2.5v-70h-40q-51 0 -90 30q-17 13 -30 32
q-5 -30 -19 -61t-28 -51q-96 5 -169 36t-132 84l-110 -89l40 -447l-55 -25zM497 140q0 57 -11.5 105.5t-35.5 93.5h-88q-46 -68 -73 -112l-65 -100q111 -104 263 -107q10 64 10 120z" />
    <glyph glyph-name="uniFEE3" unicode="&#x645;" arabic-form="initial" 
d="M246 70q-23 -34 -52.5 -52t-56.5 -18h-137v70h171q10 0 36 37t83 124q50 77 76 115t41 50q6 6 25 9t42 3q46 0 63 -12q35 -25 52.5 -92t17.5 -141q0 -76 -17 -130t-47 -74q-178 5 -297 111zM550 111q0 60 -13 121t-37 107h-78q-32 -53 -109 -169l-29 -43q104 -99 236 -99
q15 0 23 1q7 35 7 82z" />
    <glyph glyph-name="uniFEE4" unicode="&#x645;" arabic-form="medial" 
d="M324 -14q-73 31 -132 84q-17 -33 -54 -51.5t-61 -18.5h-77v70h111q10 0 37.5 39t79.5 120q51 78 76.5 115.5t41.5 51.5q6 6 27 9.5t47 3.5q53 0 69 -13q30 -25 46.5 -91t16.5 -139q0 -16 -2 -44q16 -25 37.5 -36t46 -13.5t66.5 -2.5v-70h-40q-51 0 -90 30q-17 13 -30 32
q-5 -30 -19 -61t-28 -51q-96 5 -169 36zM497 140q0 57 -11.5 105.5t-35.5 93.5h-88q-46 -68 -73 -112l-65 -100q49 -50 113 -78t150 -29q10 64 10 120z" />
    <glyph glyph-name="uniFEE6" unicode="&#x646;" arabic-form="final" 
d="M117 -312q-62 39 -90 103t-28 141q0 64 18 128t47 114l31 -20q-50 -111 -50 -205q0 -110 66 -168t170 -58q90 0 155 42t98.5 108t33.5 138q0 113 -85 246l41 55q11 -21 21 -48q40 -91 70 -142.5t58 -51.5h27v-70h-16q-34 0 -79 70q2 -36 2 -52q0 -129 -48 -211.5
t-123 -120t-161 -37.5q-96 0 -158 39zM173 455l57 63l56 -63l-56 -64z" />
    <glyph glyph-name="uniFEE7" unicode="&#x646;" arabic-form="initial" 
d="M0 70h408q53 0 94 16.5t63.5 42t22.5 50.5q0 17 -8.5 68.5t-23.5 111.5l41 91q18 -64 33 -131.5t15 -111.5q0 -55 -28.5 -102t-88.5 -76t-151 -29h-377v70zM259 630l57 63l56 -63l-56 -64z" />
    <glyph glyph-name="uniFEE8" unicode="&#x646;" arabic-form="medial" 
d="M700 0q-75 0 -122 14t-76.5 49t-49.5 101q-20 -61 -45.5 -96t-65.5 -51.5t-102 -16.5h-239v70h230q92 0 148.5 29t56.5 90q0 39 -10 106l69 83q-1 -24 -1 -119q0 -90 1 -106q3 -37 62 -60t144 -23v-70zM200 630l57 63l56 -63l-56 -64z" />
    <glyph glyph-name="uniFEEA" unicode="&#x647;" arabic-form="final" 
d="M700 70v-70h-59q-95 0 -149 49t-69 127l-12 -36q-63 -42 -160 -42q-38 0 -72 6.5t-54 15.5q-25 12 -40.5 35.5t-15.5 53.5q0 73 98 176q99 104 225 159l-10 51l52 23q2 -40 2 -55q5 -111 8.5 -179.5t12.5 -177.5q5 -57 50 -96.5t126 -39.5h67zM418 190q-3 85 -7.5 149.5
t-12.5 160.5q-65 -27 -136.5 -87.5t-112.5 -113.5q-30 -39 -30 -68q0 -30 32 -47t94 -17q70 0 173 23z" />
    <glyph glyph-name="uniFEEB" unicode="&#x647;" arabic-form="initial" 
d="M569 599q41 -79 66 -182.5t25 -162.5q0 -68 -38.5 -126.5t-94.5 -93t-105 -34.5h-422v70h97q0 113 35.5 181t83 96t90.5 29q33 120 77.5 211t96.5 91q48 0 89 -79zM526.5 80.5q40.5 18.5 64 49.5t23.5 68q0 44 -28 147.5t-66.5 185.5t-69.5 82q-29 0 -62.5 -70.5
t-63.5 -167.5q50 -6 80 -53.5t30 -127.5q0 -47 -11.5 -73.5t-38.5 -51.5q41 -7 54 -7q48 0 88.5 18.5zM360 93q33 23 33 84q0 44 -16.5 82.5t-44 61.5t-58.5 23q-35 0 -66 -30.5t-49 -76.5t-18 -91q0 -24 8.5 -40.5t34.5 -26t76 -9.5q67 0 100 23z" />
    <glyph glyph-name="uniFEEC" unicode="&#x647;" arabic-form="medial" 
d="M700 0h-289q57 -45 82 -89t25 -93q0 -52 -22.5 -99.5t-57 -76.5t-66.5 -29t-73.5 27.5t-68.5 65.5q-20 28 -41.5 82t-21.5 130q0 37 8 82h-175v70h187q12 42 11 39q36 126 56 177t57 97q36 43 79.5 71.5t78.5 28.5t51.5 -29.5t16.5 -80.5q0 -77 -37 -146t-117 -159l317 2
v-70zM272 257.5q-24 -64.5 -52 -187.5h130q56 60 103.5 128.5t47.5 121.5q0 35 -22.5 60.5t-48.5 25.5q-20 0 -51 -13t-55 -40q-28 -31 -52 -95.5zM466.5 -168.5q-8.5 29.5 -38 70.5t-87.5 98h-142q-12 -28 -12 -58q0 -73 31 -133t79.5 -94t97.5 -34q50 0 65 28.5t15 58.5
q0 34 -8.5 63.5z" />
    <glyph glyph-name="uniFEEE" unicode="&#x648;" arabic-form="final" 
d="M700 0q-78 0 -131 -1q-20 -160 -107.5 -252.5t-231.5 -92.5q-81 0 -147 29v21h61q69 0 123.5 9.5t105.5 40.5q65 41 99.5 106t44.5 139q-48 -1 -101 -1q-116 0 -170.5 45.5t-54.5 128.5q0 59 23 131t63.5 122.5t88.5 50.5q81 0 152 -156q57 -126 57 -250h125v-70z
M258 104.5q22 -23.5 61.5 -29t125.5 -5.5h76q-2 74 -26.5 153.5t-61.5 132t-75 52.5q-30 0 -58.5 -34t-46 -86.5t-17.5 -104.5q0 -55 22 -78.5z" />
    <glyph glyph-name="uniFEF0" unicode="&#x649;" arabic-form="final" 
d="M122.5 -292.5q-62.5 57.5 -62.5 186.5q0 77 23.5 152t73.5 136l11 -5q-39 -70 -56.5 -125t-17.5 -119q0 -120 56.5 -166.5t166.5 -46.5q70 0 131.5 14.5t99 41.5t37.5 62q0 31 -24.5 61.5t-46 49.5t-26.5 24l-20 18q-44 42 -62 56l30 54q60 -14 135.5 -22.5t129.5 -8.5
v-70q-127 0 -219 33q82 -57 114.5 -106t32.5 -100q0 -40 -21 -70.5t-77 -56.5q-49 -23 -113 -36.5t-118 -13.5q-115 0 -177.5 57.5z" />
    <glyph glyph-name="uniFEF2" unicode="&#x64a;" arabic-form="final" 
d="M122.5 -292.5q-62.5 57.5 -62.5 186.5q0 77 23.5 152t73.5 136l11 -5q-39 -70 -56.5 -125t-17.5 -119q0 -120 56.5 -166.5t166.5 -46.5q70 0 131.5 14.5t99 41.5t37.5 62q0 31 -24.5 61.5t-46 49.5t-26.5 24l-20 18q-44 42 -62 56l30 54q60 -14 135.5 -22.5t129.5 -8.5
v-70q-127 0 -219 33q82 -57 114.5 -106t32.5 -100q0 -40 -21 -70.5t-77 -56.5q-49 -23 -113 -36.5t-118 -13.5q-115 0 -177.5 57.5zM415 -540l55 63l57 -61l-54 -64zM251 -543l54 63l57 -60l-53 -65z" />
    <glyph glyph-name="uniFEF3" unicode="&#x64a;" arabic-form="initial" 
d="M0 70h408q53 0 94 16.5t63.5 42t22.5 50.5q0 17 -8.5 68.5t-23.5 111.5l41 91q18 -64 33 -131.5t15 -111.5q0 -55 -28.5 -102t-88.5 -76t-151 -29h-377v70zM361 -255l55 63l57 -61l-54 -64zM197 -258l54 63l57 -60l-53 -65z" />
    <glyph glyph-name="uniFEF4" unicode="&#x64a;" arabic-form="medial" 
d="M700 0q-75 0 -122 14t-76.5 49t-49.5 101q-20 -61 -45.5 -96t-65.5 -51.5t-102 -16.5h-239v70h230q92 0 148.5 29t56.5 90q0 39 -10 106l69 83q-1 -24 -1 -119q0 -90 1 -106q3 -37 62 -60t144 -23v-70zM361 -255l55 63l57 -61l-54 -64zM197 -258l54 63l57 -60l-53 -65z
" />
    <glyph glyph-name=".notdef" 
d="M616 770v-770h-531v770h531zM412 548l93 166h-311l92 -166l61 -108h5zM145 688v-580l164 288zM552 688l-161 -292l161 -288v580zM418 232l-66 121h-5l-68 -121l-102 -179h341z" />
    <glyph glyph-name=".null" horiz-adv-x="0" 
 />
    <glyph glyph-name="nonmarkingreturn" horiz-adv-x="333" 
 />
    <glyph glyph-name="space" unicode=" " 
 />
    <glyph glyph-name="exclam" unicode="!" 
d="M317 781h65l-1 -91l-7 -429h-48l-8 429zM297.5 123q21.5 21 52.5 21q30 0 51.5 -21t21.5 -57q0 -37 -21.5 -58.5t-51.5 -21.5q-31 0 -52.5 21.5t-21.5 58.5q0 36 21.5 57z" />
    <glyph glyph-name="quotedbl" unicode="&#x22;" 
d="M173 801h102l-1 -111l-26 -257h-50l-25 257v111zM425 801h102l-1 -111l-26 -257h-50l-25 257v111z" />
    <glyph glyph-name="numbersign" unicode="#" 
d="M498 485l-24 -189h101v-50h-107l-30 -246h-48l30 246h-167l-30 -246h-49l31 246h-96v50h102l23 189h-102v51h108l28 222h47l-27 -222h168l27 222h48l-27 -222h94v-51h-100zM450 485h-168l-23 -189h167z" />
    <glyph glyph-name="dollar" unicode="$" 
d="M533.5 96.5q-57.5 -48.5 -148.5 -55.5v-169h-53v169q-65 4 -123.5 29.5t-99.5 61.5l34 46q107 -81 220 -81q77 0 119.5 33t42.5 87q0 36 -23.5 62t-57.5 43t-95 41q-68 26 -108.5 47t-69 55t-28.5 83q0 73 52.5 118.5t136.5 53.5v153h53v-153q59 -3 101 -25t83 -60
l-38 -41q-44 37 -81 53t-94 16q-66 0 -106 -30.5t-40 -82.5q0 -31 21.5 -53.5t53 -37.5t88.5 -37q71 -27 114 -49.5t73.5 -59.5t30.5 -91q0 -77 -57.5 -125.5z" />
    <glyph glyph-name="percent" unicode="%" 
d="M75.5 709q43.5 50 114.5 50t115 -50t44 -139t-44 -140.5t-115 -51.5q-70 0 -114 51.5t-44 140.5t43.5 139zM265 677.5q-29 36.5 -75 36.5q-47 0 -75.5 -36.5t-28.5 -107.5q0 -69 29 -108.5t75 -39.5q45 0 74.5 39.5t29.5 108.5q0 71 -29 107.5zM617 728l44 -40l-212 -226
l-30 27zM250 305l30 -27l-198 -238l-44 40zM395.5 317q43.5 50 114.5 50t115 -50t44 -139t-44 -140.5t-115 -51.5q-70 0 -114 51.5t-44 140.5t43.5 139zM585 285.5q-29 36.5 -75 36.5q-47 0 -75.5 -36.5t-28.5 -107.5q0 -69 29 -108.5t75 -39.5q45 0 74.5 39.5t29.5 108.5
q0 71 -29 107.5z" />
    <glyph glyph-name="ampersand" unicode="&#x26;" 
d="M648 -14q-75 25 -160 93q-45 -44 -96 -68.5t-112 -24.5q-63 0 -114 26.5t-80 74t-29 109.5q0 68 39.5 119t111.5 104q-51 104 -51 188q0 50 20 89.5t56.5 62.5t82.5 23q64 0 100.5 -40t36.5 -105q0 -46 -23.5 -84.5t-56.5 -68t-92 -75.5q37 -66 90.5 -130t112.5 -116
q70 94 110 243h63q-44 -163 -129 -280q77 -61 140 -82zM257 455q68 49 103 89.5t35 91.5q0 40 -19.5 67t-59.5 27q-45 0 -72 -34.5t-27 -87.5q0 -68 40 -153zM146 118q22 -36 59.5 -56t82.5 -20q79 0 156 75q-61 55 -115.5 121t-94.5 134q-52 -42 -81 -83t-29 -89
q0 -46 22 -82z" />
    <glyph glyph-name="quotesingle" unicode="'" 
d="M299 801h102l-1 -111l-26 -257h-50l-25 257v111z" />
    <glyph glyph-name="parenleft" unicode="(" 
d="M325 623.5q70 133.5 198 228.5l37 -39q-122 -97 -181.5 -218t-59.5 -271t59.5 -271t181.5 -218l-37 -39q-128 95 -198 228.5t-70 299.5t70 299.5z" />
    <glyph glyph-name="parenright" unicode=")" 
d="M321.5 53q59.5 121 59.5 271t-59.5 271t-181.5 218l37 39q128 -95 197.5 -228.5t69.5 -299.5t-69.5 -299.5t-197.5 -228.5l-37 39q122 97 181.5 218z" />
    <glyph glyph-name="asterisk" unicode="*" 
d="M301 364l-193 83l14 41l198 -70l8 226h44l8 -226l198 70l14 -41l-193 -83l132 -198l-39 -27l-142 193l-142 -193l-39 27z" />
    <glyph glyph-name="plus" unicode="+" 
d="M106 358v53h214v233h58v-233h214v-53h-214v-232h-58v232h-214z" />
    <glyph glyph-name="comma" unicode="," 
d="M423 119q23 -35 23 -96q0 -96 -50 -164.5t-139 -105.5l-21 46q71 34 106.5 83.5t38.5 121.5q-16 -2 -24 -2q-35 0 -56.5 19t-21.5 56t22.5 57t55.5 20q43 0 66 -35z" />
    <glyph glyph-name="hyphen" unicode="-" 
d="M611 411v-53h-486v53h486z" />
    <glyph glyph-name="period" unicode="." 
d="M382 -11q-9 0 -15 7l-58 60q-5 7 -5 14t5 14l57 63q7 7 16 7q10 0 16 -7l57 -63q5 -7 5 -12q0 -9 -6 -15l-57 -61q-6 -7 -15 -7z" />
    <glyph glyph-name="slash" unicode="/" 
d="M572 828l-381 -1015h-64l381 1015h64z" />
    <glyph glyph-name="zero" unicode="0" 
d="M158 660q68 99 192 99q123 0 191 -99.5t68 -284.5q0 -122 -30.5 -209.5t-89 -133.5t-139.5 -46q-123 0 -191.5 102.5t-68.5 286.5q0 186 68 285zM491.5 620q-52.5 83 -141.5 83q-90 0 -143 -83t-53 -245t53 -247.5t143 -85.5q89 0 141.5 85.5t52.5 247.5t-52.5 245z
M302.5 437.5q19.5 19.5 47.5 19.5t47.5 -19.5t19.5 -53.5q0 -33 -19.5 -53t-47.5 -20t-47.5 20t-19.5 53q0 34 19.5 53.5z" />
    <glyph glyph-name="one" unicode="1" 
d="M341 58v592h-161v45q108 16 177 50h50v-687h204v-58h-488v58h218z" />
    <glyph glyph-name="two" unicode="2" 
d="M326.5 260.5q82.5 82.5 126 151.5t43.5 132q0 72 -44.5 115.5t-132.5 43.5q-53 0 -101.5 -26t-88.5 -69l-41 40q52 53 109 82t128 29q110 0 173 -57.5t63 -154.5q0 -70 -43.5 -143t-118 -150.5t-208.5 -200.5q94 6 139 6h272v-59h-510v41q152 137 234.5 219.5z" />
    <glyph glyph-name="three" unicode="3" 
d="M110 136q96 -92 226 -92q55 0 99 19t69 54t25 81q0 77 -70 120.5t-218 43.5v55q134 0 197.5 42.5t63.5 111.5q0 60 -46.5 96t-121.5 36q-54 0 -104.5 -22t-87.5 -58l-39 44q106 92 232 92q67 0 120.5 -22t84.5 -63t31 -98q0 -68 -45 -114t-120 -68v-4q82 -17 137 -67.5
t55 -125.5q0 -63 -34.5 -111t-93.5 -74t-131 -26q-160 0 -265 105z" />
    <glyph glyph-name="four" unicode="4" 
d="M630 217h-124v-217h-64v217h-394v42l396 486h62v-472h124v-56zM442 273v271q2 65 6 119h-7l-17 -24l-57 -77l-237 -289h312z" />
    <glyph glyph-name="five" unicode="5" 
d="M106 132q46 -41 97 -64.5t127 -23.5q56 0 103 23.5t74.5 66.5t27.5 99q0 85 -54 134t-147 49q-46 0 -80 -11.5t-81 -37.5l-41 26l26 352h408v-59h-349l-22 -252q39 18 74 27t79 9q115 0 185.5 -59t70.5 -175q0 -77 -37.5 -133.5t-99 -86.5t-132.5 -30q-91 0 -152 27.5
t-113 73.5z" />
    <glyph glyph-name="six" unicode="6" 
d="M554.5 391.5q62.5 -59.5 62.5 -170.5q0 -67 -33 -121t-88.5 -84t-119.5 -30q-84 0 -146.5 41t-97.5 120.5t-35 192.5q0 147 42 240.5t111.5 136t154.5 42.5q115 0 197 -75l-39 -43q-31 29 -71 45t-85 16q-106 0 -174.5 -84.5t-70.5 -267.5q49 48 106 74.5t117 26.5
q107 0 169.5 -59.5zM466 64.5q40 23.5 63 64.5t23 92q0 85 -45.5 131t-132.5 46q-50 0 -104.5 -26.5t-105.5 -82.5q10 -118 64 -183t149 -65q49 0 89 23.5z" />
    <glyph glyph-name="seven" unicode="7" 
d="M85 686v59h532v-41q-100 -115 -156 -219.5t-81 -218t-30 -266.5h-72q6 148 33 262t81 214.5t144 209.5h-451z" />
    <glyph glyph-name="eight" unicode="8" 
d="M130 312.5q47 48.5 120 82.5v5q-51 31 -83 74.5t-32 99.5q0 54 29 96t79 65.5t113 23.5q71 0 122 -25t78 -69.5t27 -101.5q0 -51 -32.5 -99t-84.5 -86v-4q49 -24 80.5 -47.5t50.5 -58.5t19 -85q0 -56 -31 -100.5t-90 -70.5t-140 -26q-82 0 -143.5 26.5t-95 73.5
t-33.5 105q0 73 47 121.5zM478 664.5q-44 41.5 -123 41.5q-70 0 -113 -36.5t-43 -95.5q0 -47 27.5 -80t73 -54.5t115.5 -43.5q107 73 107 165q0 62 -44 103.5zM520.5 267.5q-28.5 32.5 -72 51.5t-123.5 45q-10 4 -30 10q-71 -35 -110 -77t-39 -102q0 -44 25.5 -79.5t73 -56
t110.5 -20.5q92 0 143 40.5t51 104.5q0 51 -28.5 83.5z" />
    <glyph glyph-name="nine" unicode="9" 
d="M471 718q63 -41 98 -120.5t35 -192.5q0 -147 -42 -240.5t-111.5 -136t-155.5 -42.5q-113 0 -196 74l39 44q31 -29 71 -44.5t85 -15.5q106 0 174.5 84t70.5 267q-49 -48 -106 -75t-117 -27q-107 0 -169.5 60t-62.5 171q0 67 33 121t88.5 84t119.5 30q83 0 146 -41z
M431.5 373.5q54.5 26.5 105.5 82.5q-9 118 -63 183t-150 65q-49 0 -89 -23.5t-63 -64.5t-23 -92q0 -85 45.5 -131t131.5 -46q51 0 105.5 26.5z" />
    <glyph glyph-name="colon" unicode=":" 
d="M349 422q-9 0 -15 7l-58 60q-5 7 -5 14t5 14l57 63q7 7 16 7q10 0 16 -7l57 -63q5 -7 5 -12q0 -9 -6 -15l-57 -61q-6 -7 -15 -7zM349 -11q-9 0 -15 7l-58 60q-5 7 -5 14t5 14l57 63q7 7 16 7q10 0 16 -7l57 -63q5 -7 5 -12q0 -9 -6 -15l-57 -61q-6 -7 -15 -7z" />
    <glyph glyph-name="semicolon" unicode=";" 
d="M382 422q-9 0 -15 7l-58 60q-5 7 -5 14t5 14l57 63q7 7 16 7q10 0 16 -7l57 -63q5 -7 5 -12q0 -9 -6 -15l-57 -61q-6 -7 -15 -7zM423 119q23 -35 23 -96q0 -96 -50 -164.5t-139 -105.5l-21 46q71 34 106.5 83.5t38.5 121.5q-16 -2 -24 -2q-35 0 -56.5 19t-21.5 56
t22.5 57t55.5 20q43 0 66 -35z" />
    <glyph glyph-name="less" unicode="&#x3c;" 
d="M143 415l429 295v-68l-368 -253v-4l368 -253v-68l-429 295v56z" />
    <glyph glyph-name="equal" unicode="=" 
d="M592 532v-53h-486v53h486zM592 290v-53h-486v53h486z" />
    <glyph glyph-name="greater" unicode="&#x3e;" 
d="M496 385v4l-367 253v68l429 -295v-56l-429 -295v68z" />
    <glyph glyph-name="question" unicode="?" 
d="M446.5 702q-37.5 36 -108.5 36q-93 0 -164 -71l-41 38q88 90 210 90q63 0 110 -23t72 -63.5t25 -91.5q0 -52 -26 -90t-77 -86q-47 -44 -71 -78t-24 -79q0 -7 2 -23h-61q-2 10 -2 29q0 51 26.5 89.5t76.5 84.5q45 43 67.5 75t22.5 71q0 56 -37.5 92zM281.5 123
q21.5 21 51.5 21q31 0 52.5 -21t21.5 -57q0 -37 -21.5 -58.5t-52.5 -21.5q-30 0 -51.5 21.5t-21.5 58.5q0 36 21.5 57z" />
    <glyph glyph-name="at" unicode="@" 
d="M110 532q44 101 120.5 153t173.5 52q113 0 171.5 -76t58.5 -198v-346h-44l-7 71h-5q-28 -35 -72.5 -60t-86.5 -25q-65 0 -108 39.5t-43 109.5q0 85 78 132.5t237 65.5v17q0 97 -45 159t-137 62q-78 0 -141.5 -47t-100.5 -137.5t-37 -215.5q0 -124 35.5 -216t98.5 -141
t144 -49q96 0 168 55l26 -39q-45 -33 -93 -49t-103 -16q-92 0 -168 54t-120 157.5t-44 245.5q0 141 44 242zM578 403q-134 -19 -193.5 -55t-59.5 -96q0 -46 28.5 -72.5t77.5 -26.5q34 0 72.5 22.5t74.5 65.5v162z" />
    <glyph glyph-name="A" unicode="A" 
d="M497 253h-296l-84 -253h-70l266 768h73l267 -768h-73zM478 310l-44 134q-56 165 -83 263h-5q-26 -96 -73 -238l-8 -25l-45 -134h258z" />
    <glyph glyph-name="B" unicode="B" 
d="M329 768q123 0 189 -46t66 -142q0 -60 -34.5 -105t-100.5 -62v-5q87 -13 134 -59.5t47 -124.5q0 -110 -75 -167t-210 -57h-218v768h202zM467.5 468q48.5 35 48.5 107t-48 104t-152 32h-120v-278h114q109 0 157.5 35zM562 225q0 78 -58.5 116.5t-171.5 38.5h-136v-324h136
q230 0 230 169z" />
    <glyph glyph-name="C" unicode="C" 
d="M123 595q42 90 118 138.5t175 48.5q62 0 114 -26.5t88 -66.5l-40 -45q-66 76 -162 76q-80 0 -139.5 -40.5t-91.5 -116t-32 -177.5t32 -178.5t90.5 -118t137.5 -41.5q56 0 100.5 22.5t85.5 67.5l40 -42q-46 -54 -102.5 -82t-128.5 -28q-94 0 -168.5 48.5t-116.5 139
t-42 210.5q0 121 42 211z" />
    <glyph glyph-name="D" unicode="D" 
d="M290 768q172 0 260.5 -100.5t88.5 -281.5t-88.5 -283.5t-258.5 -102.5h-183v768h181zM497.5 145q70.5 87 70.5 241q0 153 -70.5 238.5t-213.5 85.5h-107v-652h107q143 0 213.5 87z" />
    <glyph glyph-name="E" unicode="E" 
d="M604 768v-59h-393v-274h331v-59h-331v-317h404v-59h-472v768h461z" />
    <glyph glyph-name="F" unicode="F" 
d="M624 768v-59h-388v-290h327v-59h-327v-360h-68v768h456z" />
    <glyph glyph-name="G" unicode="G" 
d="M108 595q42 90 117.5 138.5t174.5 48.5q68 0 118 -26t89 -67l-41 -45q-31 35 -71 55.5t-95 20.5q-80 0 -139 -40.5t-91 -116t-32 -177.5q0 -103 30.5 -179t88.5 -117.5t138 -41.5q48 0 89 14t65 39v225h-168v58h234v-311q-38 -40 -96 -63.5t-129 -23.5q-95 0 -168.5 48.5
t-114.5 138.5t-41 211t42 211z" />
    <glyph glyph-name="H" unicode="H" 
d="M168 768v-332h363v332h68v-768h-68v376h-363v-376h-69v768h69z" />
    <glyph glyph-name="I" unicode="I" 
d="M316 59v650h-195v59h459v-59h-196v-650h196v-59h-459v59h195z" />
    <glyph glyph-name="J" unicode="J" 
d="M150 154q32 -53 77.5 -79.5t93.5 -26.5q90 0 132.5 48t42.5 150v464h-330v58h399v-528q0 -115 -57 -184.5t-186 -69.5q-67 0 -125.5 32.5t-93.5 94.5z" />
    <glyph glyph-name="K" unicode="K" 
d="M591 0l-245 430l-149 -172v-258h-70v768h70v-413h2l360 413h79l-247 -285l278 -483h-78z" />
    <glyph glyph-name="L" unicode="L" 
d="M236 768v-709h393v-59h-460v768h67z" />
    <glyph glyph-name="M" unicode="M" 
d="M174 768l128 -350l45 -129h5l44 129l130 350h83v-768h-62v500q0 48 8 195h-4l-46 -144l-135 -347h-43l-134 347l-47 144h-4q9 -124 9 -195v-500h-60v768h83z" />
    <glyph glyph-name="N" unicode="N" 
d="M174 768l283 -523l80 -153h3l-3 72q-6 104 -6 157v447h65v-768h-70l-282 523l-81 153h-3l4 -95q5 -72 5 -131v-450h-65v768h70z" />
    <glyph glyph-name="O" unicode="O" 
d="M97 596.5q37 89.5 102.5 137.5t150.5 48q84 0 149.5 -48t102.5 -137.5t37 -210.5t-37 -211.5t-102.5 -139.5t-149.5 -49q-85 0 -150.5 49t-102.5 139.5t-37 211.5t37 210.5zM541 563.5q-27 75.5 -76.5 116t-114.5 40.5t-114.5 -40.5t-76.5 -116t-27 -177.5t27.5 -178.5
t76.5 -118t114 -41.5t114 41.5t76.5 118t27.5 178.5t-27 177.5z" />
    <glyph glyph-name="P" unicode="P" 
d="M348 768q135 0 206 -51t71 -167q0 -114 -73 -171.5t-204 -57.5h-148v-321h-68v768h216zM501.5 419q53.5 41 53.5 131q0 89 -52.5 124.5t-167.5 35.5h-135v-332h135q113 0 166.5 41z" />
    <glyph glyph-name="Q" unicode="Q" 
d="M621 -111l13 -59q-46 -13 -77 -13q-92 0 -153 46.5t-90 124.5q-75 10 -131.5 61.5t-87.5 138t-31 198.5q0 121 36 210.5t100.5 137.5t149.5 48t149.5 -48t100.5 -137.5t36 -210.5q0 -111 -31 -197.5t-87 -138t-130 -61.5q20 -53 65.5 -81.5t112.5 -28.5q32 0 55 10z
M160.5 205q26.5 -77 75.5 -119t114 -42t114 42t75.5 119t26.5 181q0 103 -26.5 179t-75 117t-114.5 41t-114.5 -41t-75 -117t-26.5 -179q0 -104 26.5 -181z" />
    <glyph glyph-name="R" unicode="R" 
d="M552 0l-200 343h-154v-343h-68v768h225q258 0 258 -208q0 -89 -50 -142.5t-138 -68.5l207 -349h-80zM199 399h143q99 0 150.5 40t51.5 121t-50.5 115.5t-151.5 34.5h-143v-311z" />
    <glyph glyph-name="S" unicode="S" 
d="M128 148q45 -47 105 -73.5t128 -26.5q87 0 138 39t51 103q0 43 -18.5 70.5t-47 44t-79.5 38.5l-114 51q-73 30 -120 73.5t-47 119.5q0 56 31 100.5t86 69.5t124 25q68 0 127.5 -26t100.5 -67l-38 -45q-79 76 -192 76q-76 0 -122.5 -35t-46.5 -93q0 -39 20.5 -66t48 -42
t72.5 -34l113 -50q82 -34 127 -79t45 -124q0 -60 -32.5 -108t-92 -75.5t-137.5 -27.5q-83 0 -152 30.5t-121 84.5z" />
    <glyph glyph-name="T" unicode="T" 
d="M53 709v59h593v-59h-262v-709h-68v709h-263z" />
    <glyph glyph-name="U" unicode="U" 
d="M99 768h69v-477q0 -129 50 -186t132 -57q83 0 133.5 57t50.5 186v477h65v-480q0 -160 -68.5 -231t-180.5 -71q-113 0 -182 71t-69 231v480z" />
    <glyph glyph-name="V" unicode="V" 
d="M134 768l137 -437l23 -77q23 -81 55 -179h4q21 63 59 190q-1 -3 20 66l135 437h70l-248 -768h-77l-250 768h72z" />
    <glyph glyph-name="W" unicode="W" 
d="M81 768l75 -510q3 -31 11 -93t11 -93h3q36 124 52 186l91 311h56l92 -311l38 -143l12 -43h5q8 74 13 112l9 74l72 510h63l-119 -768h-80l-101 352q-12 43 -21 87l-11 49h-3q-5 -21 -7 -28q-12 -54 -27 -108l-98 -352h-79l-124 768h67z" />
    <glyph glyph-name="X" unicode="X" 
d="M94 768h76l120 -216q19 -31 45 -78l17 -30h5q33 66 57 108l119 216h71l-214 -375l230 -393h-75l-128 225l-43 76l-26 46h-5l-66 -122l-127 -225h-71l230 397z" />
    <glyph glyph-name="Y" unicode="Y" 
d="M54 768h72l128 -245q6 -11 51 -95q24 -47 45 -86h4q45 83 97 181l125 245h69l-261 -489v-279h-69v279z" />
    <glyph glyph-name="Z" unicode="Z" 
d="M535 710h-416v58h499v-41l-456 -668h463v-59h-545v41z" />
    <glyph glyph-name="bracketleft" unicode="[" 
d="M587 826v-41h-258v-922h258v-40h-313v1003h313z" />
    <glyph glyph-name="backslash" unicode="\" 
d="M191 828l381 -1015h-64l-381 1015h64z" />
    <glyph glyph-name="bracketright" unicode="]" 
d="M370 -137v922h-257v41h313v-1003h-313v40h257z" />
    <glyph glyph-name="asciicircum" unicode="^" 
d="M382 781l176 -446h-62l-85 227l-59 155h-5l-59 -155l-86 -227h-61l176 446h65z" />
    <glyph glyph-name="underscore" unicode="_" 
d="M630 -88v-64h-560v64h560z" />
    <glyph glyph-name="grave" unicode="`" 
d="M310 889l159 -189l-36 -34l-172 176z" />
    <glyph glyph-name="a" unicode="a" 
d="M146.5 247q43.5 42 135.5 67.5t244 38.5q-1 74 -38.5 120.5t-122.5 46.5q-55 0 -109 -21.5t-98 -52.5l-29 47q46 32 112 57.5t134 25.5q109 0 163.5 -61t54.5 -161v-354h-56l-6 81h-3q-53 -42 -113 -68.5t-117 -26.5q-82 0 -138.5 41t-56.5 115q0 63 43.5 105zM525 306
q-133 -12 -211 -33t-111.5 -52t-33.5 -75q0 -53 41 -78.5t101 -25.5q101 0 214 95v169z" />
    <glyph glyph-name="b" unicode="b" 
d="M179 63l-6 -63h-55v836h67v-238l-3 -116h2q43 43 97.5 68.5t106.5 25.5q115 0 176 -76.5t61 -209.5q0 -93 -35.5 -162t-94.5 -105.5t-129 -36.5q-43 0 -93 21t-90 56h-4zM511 457q-44 62 -136 62q-43 0 -92.5 -24.5t-97.5 -72.5v-302q42 -38 89.5 -57t83.5 -19
q56 0 101 30.5t70.5 86.5t25.5 128q0 106 -44 168z" />
    <glyph glyph-name="c" unicode="c" 
d="M140.5 438.5q41.5 66.5 112 102t155.5 35.5q115 0 203 -84l-36 -45q-77 72 -165 72q-71 0 -125.5 -30t-85 -84.5t-30.5 -123.5q0 -70 30 -124t84.5 -83.5t125.5 -29.5q97 0 183 77l32 -45q-95 -90 -219 -90q-88 0 -157.5 35t-109 102t-39.5 158t41.5 157.5z" />
    <glyph glyph-name="d" unicode="d" 
d="M112 436q36 67 95.5 103.5t129.5 36.5q51 0 94 -19.5t85 -57.5h3l-4 110v227h67v-836h-56l-7 80h-2q-39 -41 -90 -67.5t-105 -26.5q-74 0 -129.5 34.5t-86 101t-30.5 159.5q0 88 36 155zM514 442q-81 77 -169 77q-55 0 -101 -31t-72.5 -85.5t-26.5 -121.5q0 -109 50 -173
t139 -64q93 0 180 96v302z" />
    <glyph glyph-name="e" unicode="e" 
d="M619 269h-465q3 -72 35 -123.5t84.5 -77.5t116.5 -26q99 0 183 58l26 -48q-47 -30 -98 -48t-116 -18q-83 0 -151 35.5t-108 102.5t-40 157q0 88 39.5 155.5t104.5 103.5t139 36q77 0 134.5 -32t88 -91t30.5 -138q0 -26 -3 -46zM272.5 497q-46.5 -24 -77.5 -69.5
t-39 -107.5h405q-5 99 -56 150t-134 51q-52 0 -98.5 -24z" />
    <glyph glyph-name="f" unicode="f" 
d="M398.5 749.5q-37.5 -43.5 -37.5 -122.5v-65h252v-56h-252v-506h-65v506h-166v51l166 5v61q0 108 54.5 167.5t161.5 59.5q83 0 159 -34l-19 -51q-35 17 -64.5 22.5t-70.5 5.5q-81 0 -118.5 -43.5z" />
    <glyph glyph-name="g" unicode="g" 
d="M117.5 -38q24.5 35 69.5 62v4q-25 13 -41.5 35.5t-16.5 55.5q0 28 18 56.5t50 49.5v5q-68 55 -68 145q0 58 29 103.5t77.5 71.5t106.5 26q48 0 80 -14h233v-54h-163q27 -26 44 -60.5t17 -73.5q0 -57 -28 -101.5t-76.5 -69.5t-106.5 -25q-48 0 -102 24q-24 -14 -37.5 -33
t-13.5 -40q0 -37 32.5 -55t92.5 -18h135q109 0 158 -30t49 -99q0 -51 -37.5 -95.5t-106.5 -71.5t-158 -27q-125 0 -193 43t-68 118q0 33 24.5 68zM469.5 452.5q-19.5 34.5 -53.5 53.5t-74 19t-74 -19t-53.5 -53.5t-19.5 -77.5t19.5 -76.5t53.5 -52t74 -18.5t74 18.5t53.5 52
t19.5 76.5t-19.5 77.5zM556 -21.5q-34 17.5 -107 17.5h-125q-49 0 -86 10q-84 -45 -84 -109q0 -51 52 -82t149 -31q70 0 123.5 19.5t82.5 50t29 64.5q0 43 -34 60.5z" />
    <glyph glyph-name="h" unicode="h" 
d="M185 836v-238l-4 -142h2q53 58 106 89t115 31q100 0 149.5 -56.5t49.5 -170.5v-349h-67v341q0 90 -35 133t-113 43q-53 0 -97.5 -27t-105.5 -91v-399h-67v836h67z" />
    <glyph glyph-name="i" unicode="i" 
d="M126 506v56h340v-562h-66v506h-274zM377 799.5q18 17.5 45 17.5q26 0 43.5 -17.5t17.5 -44.5q0 -28 -17.5 -45t-43.5 -17q-28 0 -45.5 16.5t-17.5 45.5q0 27 18 44.5z" />
    <glyph glyph-name="j" unicode="j" 
d="M110 -173q30 -15 65.5 -24t68.5 -9q88 0 122 42t34 124v546h-273v56h340v-595q0 -111 -51.5 -170.5t-173.5 -59.5q-40 0 -81 10.5t-75 27.5zM378 799.5q18 17.5 45 17.5q26 0 43.5 -17.5t17.5 -44.5q0 -28 -17.5 -45t-43.5 -17q-28 0 -45.5 16.5t-17.5 45.5q0 27 18 44.5
z" />
    <glyph glyph-name="k" unicode="k" 
d="M588 0l-232 302l-152 -145v-157h-67v836h67v-598h4l341 324h80l-229 -218l264 -344h-76z" />
    <glyph glyph-name="l" unicode="l" 
d="M306 779h-203v57h270v-667q0 -125 119 -125q55 0 112 27l20 -51q-41 -18 -72 -26t-72 -8q-85 0 -129.5 47t-44.5 143v603z" />
    <glyph glyph-name="m" unicode="m" 
d="M135 562l6 -76h3q25 44 54.5 67t73.5 23q89 0 110 -99q31 51 62 75t75 24q59 0 90.5 -43t31.5 -127v-406h-65v399q0 118 -74 118q-34 0 -59.5 -23.5t-52.5 -75.5v-418h-58v399q0 118 -75 118q-34 0 -59 -23.5t-52 -75.5v-418h-65v562h54z" />
    <glyph glyph-name="n" unicode="n" 
d="M174 562l6 -104h5q52 57 104 87.5t115 30.5q100 0 149.5 -56.5t49.5 -170.5v-349h-67v341q0 90 -35 133t-113 43q-53 0 -97.5 -27t-105.5 -91v-399h-67v562h56z" />
    <glyph glyph-name="o" unicode="o" 
d="M113 438q37 67 99.5 102.5t137.5 35.5t138 -35.5t100 -102t37 -157.5t-37 -157.5t-100 -102t-138 -35.5t-137.5 35.5t-99.5 102.5t-37 157t37 157zM529 404q-26 54 -73 84.5t-106 30.5t-106 -30.5t-73 -84.5t-26 -123q0 -70 26 -124t72.5 -83.5t106.5 -29.5t106.5 29.5
t72.5 83.5t26 124q0 69 -26 123z" />
    <glyph glyph-name="p" unicode="p" 
d="M174 562l6 -78h4q42 41 96.5 66.5t107.5 25.5q115 0 176 -76.5t61 -209.5q0 -93 -35.5 -162t-95.5 -105.5t-131 -36.5q-40 0 -89.5 20.5t-89.5 56.5h-3l4 -111v-201h-67v811h56zM511 457q-44 62 -136 62q-43 0 -92.5 -24.5t-97.5 -72.5v-302q42 -38 89 -57t83 -19
q57 0 102 30.5t70.5 86.5t25.5 128q0 106 -44 168z" />
    <glyph glyph-name="q" unicode="q" 
d="M519 80h-3q-41 -42 -91 -68t-103 -26q-74 0 -129.5 34.5t-86 101t-30.5 159.5q0 88 36 155t95.5 103.5t129.5 36.5q51 0 94.5 -19.5t86.5 -58.5h2l7 64h55v-811h-67v220zM514 442q-81 77 -169 77q-55 0 -101 -31t-72.5 -85.5t-26.5 -121.5q0 -109 50 -173t139 -64
q93 0 180 96v302z" />
    <glyph glyph-name="r" unicode="r" 
d="M240 562l6 -137h3q46 70 113 110.5t147 40.5q67 0 112 -23l-17 -59q-32 12 -53 16t-52 4q-72 0 -134 -40t-115 -130v-344h-67v562h57z" />
    <glyph glyph-name="s" unicode="s" 
d="M124 121q51 -39 111 -59.5t141 -20.5q77 0 119.5 29.5t42.5 73.5q0 27 -13.5 47t-54.5 38t-122 34q-112 23 -167.5 61.5t-55.5 98.5q0 67 57.5 110t166.5 43q57 0 117.5 -20t102.5 -50l-34 -45q-86 61 -191 61q-79 0 -115 -27t-36 -68t41 -65t136 -43q95 -20 146 -43.5
t70.5 -53.5t19.5 -74q0 -45 -28 -82t-82 -58.5t-128 -21.5q-79 0 -149.5 25t-127.5 64z" />
    <glyph glyph-name="t" unicode="t" 
d="M256 506h-167v51l168 5l9 185h56v-185h291v-56h-291v-295q0 -86 33 -127t119 -41q77 0 144 28l17 -51q-42 -17 -83 -25.5t-90 -8.5q-112 0 -159 59t-47 168v293z" />
    <glyph glyph-name="u" unicode="u" 
d="M97 562h67v-340q0 -91 35 -134t113 -43q55 0 100.5 28t100.5 91v398h67v-562h-55l-7 105h-4q-49 -57 -101.5 -88t-115.5 -31q-102 0 -151 56.5t-49 170.5v349z" />
    <glyph glyph-name="v" unicode="v" 
d="M137 562l146 -340q43 -103 68 -164h4q8 19 32 80l34 84l147 340h65l-245 -562h-73l-247 562h69z" />
    <glyph glyph-name="w" unicode="w" 
d="M82 562l82 -350l13 -59q14 -62 20 -94h4q12 59 36 153l82 332h65l84 -332l36 -153h4q20 85 34 153l80 350h66l-136 -562h-84l-80 324l-12 57q-5 19 -10.5 45.5t-13.5 58.5h-5q-22 -114 -34 -163l-79 -322h-83l-139 562h70z" />
    <glyph glyph-name="x" unicode="x" 
d="M105 562h75l101 -136q14 -20 22 -30q35 -49 47 -64h5q32 41 70 96l98 134h73l-206 -275l222 -287h-75l-112 145q-19 24 -34 46l-43 57h-5q-30 -40 -75 -104l-108 -144h-73l222 292z" />
    <glyph glyph-name="y" unicode="y" 
d="M94 -184q27 -9 54 -9q112 0 169 140l18 46l-269 569h68l155 -339l15 -34l59 -126h4q18 41 52 127l13 33l138 339h64l-258 -624q-31 -85 -87 -137t-141 -52q-18 0 -37.5 3.5t-32.5 8.5z" />
    <glyph glyph-name="z" unicode="z" 
d="M505 506h-375v56h473v-35l-421 -470h434v-57h-532v36z" />
    <glyph glyph-name="braceleft" unicode="{" 
d="M314 96q1 13 3 48t2 65q0 41 -37.5 66.5t-134.5 26.5v44q97 1 134.5 26.5t37.5 66.5q0 26 -2 61.5t-3 51.5q-6 80 -6 122q0 85 51.5 118.5t164.5 33.5h63v-41h-64q-63 0 -96.5 -12t-46 -37t-12.5 -67q0 -33 4 -105q4 -76 4 -115q0 -55 -22.5 -84t-79.5 -39v-4
q57 -10 79.5 -39t22.5 -84q0 -44 -4 -116q-4 -70 -4 -104q0 -42 12.5 -67t46 -37t96.5 -12h64v-40h-63q-114 0 -165 33t-51 118q0 44 6 122z" />
    <glyph glyph-name="bar" unicode="|" 
d="M380 874v-1165h-61v1165h61z" />
    <glyph glyph-name="braceright" unicode="}" 
d="M178 -137q62 0 95.5 12t46.5 37t13 67q0 34 -4 104q-4 72 -4 116q0 55 22 84t79 39v4q-57 10 -79 39t-22 84q0 39 4 115q4 72 4 105q0 42 -13 67t-46.5 37t-95.5 12h-65v41h64q113 0 163.5 -33t50.5 -119q0 -31 -2 -69.5t-3 -52.5q-5 -65 -5 -113q0 -41 37.5 -66.5
t134.5 -26.5v-44q-97 -1 -134.5 -26.5t-37.5 -66.5q0 -51 5 -113q1 -14 3 -51t2 -71q0 -85 -50.5 -118t-163.5 -33h-64v40h65z" />
    <glyph glyph-name="asciitilde" unicode="~" 
d="M188.5 388q-23.5 -21 -42.5 -81l-46 18q49 138 146 138q32 0 58 -14.5t63 -42.5q29 -23 48.5 -34.5t40.5 -11.5q32 0 55.5 21t43.5 81l45 -19q-48 -136 -146 -136q-33 0 -59.5 14.5t-61.5 42.5q-30 23 -49 34t-40 11q-32 0 -55.5 -21z" />
    <glyph glyph-name="uni00A0" unicode="&#xa0;" 
 />
    <glyph glyph-name="exclamdown" unicode="&#xa1;" 
d="M297.5 554.5q21.5 21.5 52.5 21.5q30 0 51.5 -21.5t21.5 -57.5q0 -37 -21.5 -58t-51.5 -21q-31 0 -52.5 21t-21.5 58q0 36 21.5 57.5zM326 302h48l7 -430l1 -91h-65l1 91z" />
    <glyph glyph-name="cent" unicode="&#xa2;" 
d="M414 89v-123h-47v125q-103 11 -165.5 82.5t-62.5 189.5q0 77 30 135.5t82 93t116 42.5v127h47v-125q89 -4 156 -69l-35 -43q-56 52 -121 55v-432q74 4 136 59l33 -42q-80 -70 -169 -75zM249.5 219q43.5 -57 117.5 -69v425q-72 -13 -116.5 -70t-44.5 -142q0 -87 43.5 -144
z" />
    <glyph glyph-name="sterling" unicode="&#xa3;" 
d="M611 59v-59h-515v41q74 33 111 91.5t37 128.5q0 34 -12 77h-139v46l123 4q-3 9 -16 44.5t-20 66t-7 56.5q0 94 63.5 149t173.5 55q123 0 199 -85l-41 -40q-32 32 -69.5 50t-88.5 18q-82 0 -127.5 -41.5t-45.5 -106.5q0 -32 8 -62.5t25 -76.5l10 -27h229v-50h-215
q10 -40 10 -77q0 -66 -22.5 -112t-70.5 -86v-4h400z" />
    <glyph glyph-name="currency" unicode="&#xa4;" 
d="M177 246q-43 57 -43 137q0 83 43 140l-99 102l38 39l101 -103q27 23 61.5 35.5t71.5 12.5q36 0 70.5 -12.5t62.5 -35.5l102 103l37 -39l-99 -102q43 -59 43 -140q0 -78 -43 -137l99 -101l-37 -40l-102 103q-27 -24 -61.5 -36.5t-71.5 -12.5q-77 0 -134 49l-100 -103
l-38 40zM481.5 472.5q-20.5 39.5 -55.5 61.5t-76 22t-76 -22t-55.5 -61.5t-20.5 -89.5t20.5 -89t55.5 -60.5t76 -21.5t76 21.5t55.5 60.5t20.5 89t-20.5 89.5z" />
    <glyph glyph-name="yen" unicode="&#xa5;" 
d="M97 190v45h218v80h-218v44h199l-225 386h69l121 -216q32 -57 86 -160h5q45 85 88 160l121 216h67l-227 -386h200v-44h-219v-80h219v-45h-219v-190h-67v190h-218z" />
    <glyph glyph-name="brokenbar" unicode="&#xa6;" 
d="M380 874v-513h-61v513h61zM380 222v-513h-61v513h61z" />
    <glyph glyph-name="section" unicode="&#xa7;" 
d="M558 242q-28 -34 -81 -62q37 -39 37 -96q0 -43 -23 -77t-63 -53.5t-88 -19.5q-61 0 -112.5 20.5t-88.5 56.5l42 40q34 -31 71 -46.5t88 -15.5q50 0 80.5 26.5t30.5 65.5q0 32 -19.5 55t-48 38.5t-78.5 36.5q-61 26 -99 47.5t-64.5 58t-26.5 90.5q0 97 111 152
q-38 40 -38 95q0 37 18.5 69.5t55.5 52.5t90 20q50 0 95.5 -18t82.5 -47l-34 -44q-35 26 -68 40t-74 14q-52 0 -77.5 -24.5t-25.5 -59.5q0 -30 18.5 -52t46.5 -37t77 -36q62 -27 100.5 -49t65.5 -59.5t27 -92.5t-28 -89zM503 259.5q22 24.5 22 66.5q0 40 -22 68t-54.5 46
t-86.5 41q-68 30 -93 45q-47 -23 -70 -49t-23 -66q0 -38 21.5 -64.5t52.5 -43.5t84 -40q26 -11 52.5 -23.5t46.5 -24.5q48 20 70 44.5z" />
    <glyph glyph-name="dieresis" unicode="&#xa8;" 
d="M255.5 786.5q14.5 15.5 38.5 15.5q22 0 36.5 -15.5t14.5 -38.5t-14.5 -38.5t-36.5 -15.5q-24 0 -38.5 15.5t-14.5 38.5t14.5 38.5zM469 786.5q15 15.5 38 15.5q22 0 37 -15.5t15 -38.5t-15 -38.5t-37 -15.5q-23 0 -38 15.5t-15 38.5t15 38.5z" />
    <glyph glyph-name="copyright" unicode="&#xa9;" 
d="M80.5 579.5q39.5 87.5 110 134.5t159.5 47t159.5 -47t110 -134.5t39.5 -203.5t-39.5 -204.5t-110 -136.5t-159.5 -48t-159.5 48t-110 136.5t-39.5 204.5t39.5 203.5zM581 557.5q-33 78.5 -93 121.5t-138 43q-79 0 -139 -43t-93 -121.5t-33 -181.5t33 -182.5t93 -123.5
t139 -44q78 0 138 44t93 123.5t33 182.5t-33 181.5zM200 491.5q26 49.5 69 76t93 26.5q38 0 65.5 -13.5t53.5 -38.5l-31 -37q-23 20 -42.5 29.5t-44.5 9.5q-57 0 -93.5 -47t-36.5 -121q0 -83 34.5 -131.5t92.5 -48.5q31 0 54.5 11.5t49.5 32.5l27 -38q-30 -27 -60.5 -41.5
t-73.5 -14.5q-51 0 -92.5 27.5t-66 80t-24.5 122.5q0 66 26 115.5z" />
    <glyph glyph-name="ordfeminine" unicode="&#xaa;" 
d="M284.5 658q62.5 33 195.5 45q-2 100 -92 100q-60 0 -126 -41l-24 39q32 20 73.5 34.5t84.5 14.5q71 0 105.5 -39.5t34.5 -109.5v-232h-46l-5 46h-2q-71 -55 -141 -55q-51 0 -85.5 27.5t-34.5 76.5q0 61 62.5 94zM479 666q-108 -12 -155 -35t-47 -62q0 -32 22.5 -48.5
t55.5 -16.5q31 0 61 13.5t63 39.5v109z" />
    <glyph glyph-name="guillemotleft" unicode="&#xab;" 
d="M114 326l170 188l35 -31l-148 -189l148 -192l-35 -29l-170 189v64zM366 326l170 188l35 -31l-148 -189l148 -192l-35 -29l-170 189v64z" />
    <glyph glyph-name="logicalnot" unicode="&#xac;" 
d="M106 358v53h486v-285h-58v232h-428z" />
    <glyph glyph-name="uni00AD" unicode="&#xad;" 
d="M611 411v-53h-486v53h486z" />
    <glyph glyph-name="registered" unicode="&#xae;" 
d="M164 721q29 52 78.5 81t107.5 29t107.5 -29t78.5 -81t29 -118t-29 -118t-78.5 -80.5t-107.5 -28.5t-107.5 28.5t-78.5 80.5t-29 118t29 118zM502 701q-23 44 -63 69t-89 25t-89 -25t-63 -69t-23 -98t23 -98t63 -68.5t89 -24.5t89 24.5t63 68.5t23 98t-23 98zM352 726
q39 0 64.5 -17.5t25.5 -57.5q0 -21 -13 -39.5t-32 -25.5l56 -99h-47l-44 86h-53v-86h-40v239h83zM398 649q0 43 -53 43h-36v-85h32q57 0 57 42z" />
    <glyph glyph-name="macron" unicode="&#xaf;" 
d="M517 755v-50h-295v50h295z" />
    <glyph glyph-name="degree" unicode="&#xb0;" 
d="M232 730.5q19 32.5 50.5 50t67.5 17.5t68 -17.5t51 -50t19 -75.5q0 -42 -19 -74t-51 -49.5t-68 -17.5t-67.5 17.5t-50.5 49.5t-19 74q0 43 19 75.5zM415.5 727q-25.5 28 -65.5 28q-41 0 -66.5 -28t-25.5 -72q0 -42 26 -70t66 -28t65.5 28t25.5 70q0 44 -25.5 72z" />
    <glyph glyph-name="plusminus" unicode="&#xb1;" 
d="M106 359v53h214v232h58v-232h214v-53h-214v-225h-58v225h-214zM592 54v-54h-486v54h486z" />
    <glyph glyph-name="acute" unicode="&#xb4;" 
d="M461 889l48 -47l-172 -176l-36 34z" />
    <glyph glyph-name="paragraph" unicode="&#xb6;" 
d="M168 709q73 59 200 59h50v-491h-34q-134 0 -211.5 60.5t-77.5 184.5q0 128 73 187zM547 768v-861h-65v861h65z" />
    <glyph glyph-name="periodcentered" unicode="&#xb7;" 
d="M349 321q-9 0 -15 7l-58 60q-5 7 -5 14t5 14l57 63q7 7 16 7q10 0 16 -7l57 -63q5 -7 5 -12q0 -9 -6 -15l-57 -61q-6 -7 -15 -7z" />
    <glyph glyph-name="cedilla" unicode="&#xb8;" 
d="M371 -200.5q29 14.5 29 41.5q0 24 -21 37.5t-70 20.5l43 109h48l-27 -84q41 -10 62 -28.5t21 -52.5q0 -92 -177 -101l-8 39q71 4 100 18.5z" />
    <glyph glyph-name="ordmasculine" unicode="&#xba;" 
d="M206.5 758.5q24.5 44.5 65.5 68t90 23.5t90 -23.5t65 -67.5t24 -105q0 -60 -24 -104t-65 -67t-90 -23t-90 23t-65.5 67t-24.5 104t24.5 104.5zM449 762q-33 41 -87 41t-88 -41t-34 -108q0 -65 34 -106.5t88 -41.5t87 41t33 107q0 67 -33 108z" />
    <glyph glyph-name="guillemotright" unicode="&#xbb;" 
d="M276 294l-147 189l35 31l170 -188v-64l-170 -189l-35 29zM528 294l-147 189l35 31l170 -188v-64l-170 -189l-35 29z" />
    <glyph glyph-name="onequarter" unicode="&#xbc;" 
d="M84 669v39q35 6 58 14.5t47 22.5h44v-353h-53v277h-96zM617 728l44 -40l-212 -226l-30 27zM250 305l30 -27l-198 -238l-44 40zM664 92h-58v-92h-51v92h-190v27l140 248l41 -21l-123 -215h132v117h51v-117h58v-39z" />
    <glyph glyph-name="onehalf" unicode="&#xbd;" 
d="M84 669v39q35 6 58 14.5t47 22.5h44v-353h-53v277h-96zM617 728l44 -40l-212 -226l-30 27zM250 305l30 -27l-198 -238l-44 40zM500 128.5q37 32.5 57.5 61t20.5 55.5q0 35 -21 55t-58 20q-25 0 -48.5 -14t-40.5 -37l-37 28q26 31 59.5 50.5t71.5 19.5q61 0 95 -31t34 -87
q0 -42 -33 -81t-108 -104l-19 -17h179v-47h-269v33q80 63 117 95.5z" />
    <glyph glyph-name="threequarters" unicode="&#xbe;" 
d="M73 481q18 -26 47 -42.5t62 -16.5q37 0 59.5 16t22.5 48q0 66 -122 66v37q51 0 77.5 18.5t26.5 49.5q0 27 -17.5 42t-53.5 15q-22 0 -47.5 -11.5t-42.5 -30.5l-30 33q22 25 56 39.5t72 14.5q53 0 85.5 -25.5t32.5 -69.5q0 -34 -16.5 -55.5t-50.5 -33.5q39 -9 62 -32.5
t23 -58.5q0 -51 -37.5 -78.5t-97.5 -27.5q-41 0 -80 19t-64 50zM655 728l44 -40l-212 -226l-30 27zM288 305l30 -27l-198 -238l-44 40zM664 92h-58v-92h-51v92h-190v27l140 248l41 -21l-123 -215h132v117h51v-117h58v-39z" />
    <glyph glyph-name="questiondown" unicode="&#xbf;" 
d="M313.5 554.5q21.5 21.5 52.5 21.5t52.5 -21.5t21.5 -57.5q0 -37 -21.5 -58t-52.5 -21t-52.5 21t-21.5 58q0 36 21.5 57.5zM176 35q26 38 77 86q47 44 71 78.5t24 79.5q0 7 -2 23h60q3 -16 3 -31q0 -51 -26 -88.5t-76 -84.5q-45 -43 -67.5 -75t-22.5 -71q0 -56 37 -91.5
t108 -35.5q47 0 88.5 18.5t74.5 52.5l42 -39q-40 -42 -93 -66t-117 -24q-62 0 -109 23t-72.5 63.5t-25.5 91.5q0 52 26 90z" />
    <glyph glyph-name="Agrave" unicode="&#xc0;" 
d="M497 253h-296l-84 -253h-70l266 768h73l267 -768h-73zM478 310l-44 134q-56 165 -83 263h-5q-26 -96 -73 -238l-8 -25l-45 -134h258zM257 999l153 -144l-31 -35l-162 132z" />
    <glyph glyph-name="Aacute" unicode="&#xc1;" 
d="M497 253h-296l-84 -253h-70l266 768h73l267 -768h-73zM478 310l-44 134q-56 165 -83 263h-5q-26 -96 -73 -238l-8 -25l-45 -134h258zM441 999l42 -47l-163 -132l-30 35z" />
    <glyph glyph-name="Acircumflex" unicode="&#xc2;" 
d="M497 253h-296l-84 -253h-70l266 768h73l267 -768h-73zM478 310l-44 134q-56 165 -83 263h-5q-26 -96 -73 -238l-8 -25l-45 -134h258zM315 978h69l128 -132l-30 -25l-130 112h-5l-130 -112l-30 25z" />
    <glyph glyph-name="Atilde" unicode="&#xc3;" 
d="M497 253h-296l-84 -253h-70l266 768h73l267 -768h-73zM478 310l-44 134q-56 165 -83 263h-5q-26 -96 -73 -238l-8 -25l-45 -134h258zM221 899.5q-17 -22.5 -21 -61.5l-47 4q3 60 31.5 96.5t76.5 36.5q32 0 55 -13t51 -38q23 -20 37.5 -29t33.5 -9q24 0 40 22.5t21 62.5
l48 -4q-2 -60 -31 -96.5t-77 -36.5q-33 0 -56 13t-50 37q-23 20 -37.5 29t-33.5 9q-24 0 -41 -22.5z" />
    <glyph glyph-name="Adieresis" unicode="&#xc4;" 
d="M497 253h-296l-84 -253h-70l266 768h73l267 -768h-73zM478 310l-44 134q-56 165 -83 263h-5q-26 -96 -73 -238l-8 -25l-45 -134h258zM216.5 925q13.5 13 34.5 13t35 -13.5t14 -34.5q0 -22 -14 -35.5t-35 -13.5t-34.5 13.5t-13.5 35.5t13.5 35zM412.5 925q13.5 13 34.5 13
t35 -13.5t14 -34.5q0 -22 -14 -35.5t-35 -13.5t-34.5 13.5t-13.5 35.5t13.5 35z" />
    <glyph glyph-name="Aring" unicode="&#xc5;" 
d="M497 253h-296l-84 -253h-70l266 768h73l267 -768h-73zM478 310l-44 134q-56 165 -83 263h-5q-26 -96 -73 -238l-8 -25l-45 -134h258zM274 991q30 28 76 28q45 0 75.5 -28t30.5 -74q0 -45 -31 -73.5t-75 -28.5q-46 0 -76 28.5t-30 73.5q0 46 30 74zM395 966q-18 18 -45 18
q-28 0 -46.5 -18t-18.5 -49q0 -32 18.5 -49.5t46.5 -17.5q27 0 45 17.5t18 49.5q0 31 -18 49z" />
    <glyph glyph-name="AE" unicode="&#xc6;" 
d="M688 59v-59h-316v243h-198l-101 -243h-74l329 768h348v-59h-239v-273h184v-59h-184v-318h251zM372 299v412h-4q-38 -94 -58 -140l-51 -122l-62 -150h175z" />
    <glyph glyph-name="Ccedilla" unicode="&#xc7;" 
d="M546.5 19q-50.5 -28 -114.5 -32l-20 -63q41 -10 62 -28.5t21 -52.5q0 -92 -177 -101l-8 39q71 4 100 18.5t29 41.5q0 24 -21 37.5t-70 20.5l35 88q-88 7 -156.5 57t-107 137.5t-38.5 202.5q0 121 42 211t118 138.5t175 48.5q62 0 114 -26.5t88 -66.5l-40 -45
q-66 76 -162 76q-80 0 -139.5 -40.5t-91.5 -116t-32 -177.5t32 -178.5t90.5 -118t137.5 -41.5q56 0 100.5 22.5t85.5 67.5l40 -42q-42 -49 -92.5 -77z" />
    <glyph glyph-name="Egrave" unicode="&#xc8;" 
d="M604 768v-59h-393v-274h331v-59h-331v-317h404v-59h-472v768h461zM297 999l153 -144l-31 -35l-162 132z" />
    <glyph glyph-name="Eacute" unicode="&#xc9;" 
d="M604 768v-59h-393v-274h331v-59h-331v-317h404v-59h-472v768h461zM481 999l42 -47l-163 -132l-30 35z" />
    <glyph glyph-name="Ecircumflex" unicode="&#xca;" 
d="M604 768v-59h-393v-274h331v-59h-331v-317h404v-59h-472v768h461zM355 978h69l128 -132l-30 -25l-130 112h-5l-130 -112l-30 25z" />
    <glyph glyph-name="Edieresis" unicode="&#xcb;" 
d="M604 768v-59h-393v-274h331v-59h-331v-317h404v-59h-472v768h461zM256.5 925q13.5 13 34.5 13t35 -13.5t14 -34.5q0 -22 -14 -35.5t-35 -13.5t-34.5 13.5t-13.5 35.5t13.5 35zM452.5 925q13.5 13 34.5 13t35 -13.5t14 -34.5q0 -22 -14 -35.5t-35 -13.5t-34.5 13.5
t-13.5 35.5t13.5 35z" />
    <glyph glyph-name="Igrave" unicode="&#xcc;" 
d="M316 59v650h-195v59h459v-59h-196v-650h196v-59h-459v59h195zM257 999l153 -144l-31 -35l-162 132z" />
    <glyph glyph-name="Iacute" unicode="&#xcd;" 
d="M316 59v650h-195v59h459v-59h-196v-650h196v-59h-459v59h195zM441 999l42 -47l-163 -132l-30 35z" />
    <glyph glyph-name="Icircumflex" unicode="&#xce;" 
d="M316 59v650h-195v59h459v-59h-196v-650h196v-59h-459v59h195zM315 978h69l128 -132l-30 -25l-130 112h-5l-130 -112l-30 25z" />
    <glyph glyph-name="Idieresis" unicode="&#xcf;" 
d="M316 59v650h-195v59h459v-59h-196v-650h196v-59h-459v59h195zM216.5 925q13.5 13 34.5 13t35 -13.5t14 -34.5q0 -22 -14 -35.5t-35 -13.5t-34.5 13.5t-13.5 35.5t13.5 35zM412.5 925q13.5 13 34.5 13t35 -13.5t14 -34.5q0 -22 -14 -35.5t-35 -13.5t-34.5 13.5t-13.5 35.5
t13.5 35z" />
    <glyph glyph-name="Eth" unicode="&#xd0;" 
d="M20 384v39l89 5v340h181q172 0 260.5 -100.5t88.5 -281.5t-88.5 -283.5t-258.5 -102.5h-183v384h-89zM497 145q71 87 71 241q0 153 -71 238.5t-213 85.5h-107v-282h183v-44h-183v-326h107q142 0 213 87z" />
    <glyph glyph-name="Ntilde" unicode="&#xd1;" 
d="M174 768l283 -523l80 -153h3l-3 72q-6 104 -6 157v447h65v-768h-70l-282 523l-81 153h-3l4 -95q5 -72 5 -131v-450h-65v768h70zM233 899.5q-17 -22.5 -21 -61.5l-47 4q3 60 31.5 96.5t76.5 36.5q32 0 55 -13t51 -38q23 -20 37.5 -29t33.5 -9q24 0 40 22.5t21 62.5l48 -4
q-2 -60 -31 -96.5t-77 -36.5q-33 0 -56 13t-50 37q-23 20 -37.5 29t-33.5 9q-24 0 -41 -22.5z" />
    <glyph glyph-name="Ograve" unicode="&#xd2;" 
d="M97 596.5q37 89.5 102.5 137.5t150.5 48q84 0 149.5 -48t102.5 -137.5t37 -210.5t-37 -211.5t-102.5 -139.5t-149.5 -49q-85 0 -150.5 49t-102.5 139.5t-37 211.5t37 210.5zM541 563.5q-27 75.5 -76.5 116t-114.5 40.5t-114.5 -40.5t-76.5 -116t-27 -177.5t27.5 -178.5
t76.5 -118t114 -41.5t114 41.5t76.5 118t27.5 178.5t-27 177.5zM257 999l153 -144l-31 -35l-162 132z" />
    <glyph glyph-name="Oacute" unicode="&#xd3;" 
d="M97 596.5q37 89.5 102.5 137.5t150.5 48q84 0 149.5 -48t102.5 -137.5t37 -210.5t-37 -211.5t-102.5 -139.5t-149.5 -49q-85 0 -150.5 49t-102.5 139.5t-37 211.5t37 210.5zM541 563.5q-27 75.5 -76.5 116t-114.5 40.5t-114.5 -40.5t-76.5 -116t-27 -177.5t27.5 -178.5
t76.5 -118t114 -41.5t114 41.5t76.5 118t27.5 178.5t-27 177.5zM441 999l42 -47l-163 -132l-30 35z" />
    <glyph glyph-name="Ocircumflex" unicode="&#xd4;" 
d="M97 596.5q37 89.5 102.5 137.5t150.5 48q84 0 149.5 -48t102.5 -137.5t37 -210.5t-37 -211.5t-102.5 -139.5t-149.5 -49q-85 0 -150.5 49t-102.5 139.5t-37 211.5t37 210.5zM541 563.5q-27 75.5 -76.5 116t-114.5 40.5t-114.5 -40.5t-76.5 -116t-27 -177.5t27.5 -178.5
t76.5 -118t114 -41.5t114 41.5t76.5 118t27.5 178.5t-27 177.5zM315 978h69l128 -132l-30 -25l-130 112h-5l-130 -112l-30 25z" />
    <glyph glyph-name="Otilde" unicode="&#xd5;" 
d="M97 596.5q37 89.5 102.5 137.5t150.5 48q84 0 149.5 -48t102.5 -137.5t37 -210.5t-37 -211.5t-102.5 -139.5t-149.5 -49q-85 0 -150.5 49t-102.5 139.5t-37 211.5t37 210.5zM541 563.5q-27 75.5 -76.5 116t-114.5 40.5t-114.5 -40.5t-76.5 -116t-27 -177.5t27.5 -178.5
t76.5 -118t114 -41.5t114 41.5t76.5 118t27.5 178.5t-27 177.5zM221 899.5q-17 -22.5 -21 -61.5l-47 4q3 60 31.5 96.5t76.5 36.5q32 0 55 -13t51 -38q23 -20 37.5 -29t33.5 -9q24 0 40 22.5t21 62.5l48 -4q-2 -60 -31 -96.5t-77 -36.5q-33 0 -56 13t-50 37q-23 20 -37.5 29
t-33.5 9q-24 0 -41 -22.5z" />
    <glyph glyph-name="Odieresis" unicode="&#xd6;" 
d="M97 596.5q37 89.5 102.5 137.5t150.5 48q84 0 149.5 -48t102.5 -137.5t37 -210.5t-37 -211.5t-102.5 -139.5t-149.5 -49q-85 0 -150.5 49t-102.5 139.5t-37 211.5t37 210.5zM541 563.5q-27 75.5 -76.5 116t-114.5 40.5t-114.5 -40.5t-76.5 -116t-27 -177.5t27.5 -178.5
t76.5 -118t114 -41.5t114 41.5t76.5 118t27.5 178.5t-27 177.5zM216.5 925q13.5 13 34.5 13t35 -13.5t14 -34.5q0 -22 -14 -35.5t-35 -13.5t-34.5 13.5t-13.5 35.5t13.5 35zM412.5 925q13.5 13 34.5 13t35 -13.5t14 -34.5q0 -22 -14 -35.5t-35 -13.5t-34.5 13.5t-13.5 35.5
t13.5 35z" />
    <glyph glyph-name="multiply" unicode="&#xd7;" 
d="M311 385l-185 191l38 40l186 -194l185 194l38 -40l-186 -191l186 -191l-38 -40l-185 192l-186 -192l-38 40z" />
    <glyph glyph-name="Oslash" unicode="&#xd8;" 
d="M567 662q72 -105 72 -276q0 -121 -37 -211.5t-102.5 -139.5t-149.5 -49q-54 0 -102 21t-85 60l-65 -96l-40 28l74 109q-35 52 -53.5 122.5t-18.5 155.5q0 121 37 210.5t102.5 137.5t150.5 48q54 0 101 -20.5t84 -58.5l63 94l41 -29zM174 171l322 476q-57 73 -146 73
q-65 0 -114.5 -40.5t-76.5 -116t-27 -177.5q0 -128 42 -215zM525 600l-323 -475q29 -38 66.5 -57.5t81.5 -19.5q65 0 114 41.5t76.5 118t27.5 178.5q0 130 -43 214z" />
    <glyph glyph-name="Ugrave" unicode="&#xd9;" 
d="M99 768h69v-477q0 -129 50 -186t132 -57q83 0 133.5 57t50.5 186v477h65v-480q0 -160 -68.5 -231t-180.5 -71q-113 0 -182 71t-69 231v480zM257 999l153 -144l-31 -35l-162 132z" />
    <glyph glyph-name="Uacute" unicode="&#xda;" 
d="M99 768h69v-477q0 -129 50 -186t132 -57q83 0 133.5 57t50.5 186v477h65v-480q0 -160 -68.5 -231t-180.5 -71q-113 0 -182 71t-69 231v480zM441 999l42 -47l-163 -132l-30 35z" />
    <glyph glyph-name="Ucircumflex" unicode="&#xdb;" 
d="M99 768h69v-477q0 -129 50 -186t132 -57q83 0 133.5 57t50.5 186v477h65v-480q0 -160 -68.5 -231t-180.5 -71q-113 0 -182 71t-69 231v480zM315 978h69l128 -132l-30 -25l-130 112h-5l-130 -112l-30 25z" />
    <glyph glyph-name="Udieresis" unicode="&#xdc;" 
d="M99 768h69v-477q0 -129 50 -186t132 -57q83 0 133.5 57t50.5 186v477h65v-480q0 -160 -68.5 -231t-180.5 -71q-113 0 -182 71t-69 231v480zM216.5 925q13.5 13 34.5 13t35 -13.5t14 -34.5q0 -22 -14 -35.5t-35 -13.5t-34.5 13.5t-13.5 35.5t13.5 35zM412.5 925
q13.5 13 34.5 13t35 -13.5t14 -34.5q0 -22 -14 -35.5t-35 -13.5t-34.5 13.5t-13.5 35.5t13.5 35z" />
    <glyph glyph-name="Yacute" unicode="&#xdd;" 
d="M54 768h72l128 -245q6 -11 51 -95q24 -47 45 -86h4q45 83 97 181l125 245h69l-261 -489v-279h-69v279zM441 999l42 -47l-163 -132l-30 35z" />
    <glyph glyph-name="Thorn" unicode="&#xde;" 
d="M200 768v-135h149q135 0 206 -50.5t71 -167.5q0 -113 -73 -170t-204 -57h-149v-188h-69v768h69zM503 285q54 41 54 130t-53 125t-168 36h-136v-332h136q113 0 167 41z" />
    <glyph glyph-name="germandbls" unicode="&#xdf;" 
d="M331 92q35 -27 67.5 -39t70.5 -12q57 0 88.5 31t31.5 75q0 35 -16.5 59.5t-41.5 40t-66 35.5q-44 22 -69.5 38.5t-43.5 43.5t-18 67q0 38 15 65.5t46 65.5q29 36 43.5 61t14.5 59q0 49 -31 80t-86 31q-72 0 -113 -49t-41 -143v-601h-67v615q0 71 27.5 124t78 82t117.5 29
q55 0 95.5 -22t62.5 -59.5t22 -82.5q0 -42 -17 -73t-49 -69q-28 -35 -40.5 -57t-12.5 -49q0 -38 27 -60.5t82 -48.5q48 -24 77 -43t49.5 -51.5t20.5 -81.5q0 -47 -23.5 -85t-65.5 -60t-96 -22q-96 0 -169 57z" />
    <glyph glyph-name="agrave" unicode="&#xe0;" 
d="M146.5 247q43.5 42 135.5 67.5t244 38.5q-1 74 -38.5 120.5t-122.5 46.5q-55 0 -109 -21.5t-98 -52.5l-29 47q46 32 112 57.5t134 25.5q109 0 163.5 -61t54.5 -161v-354h-56l-6 81h-3q-53 -42 -113 -68.5t-117 -26.5q-82 0 -138.5 41t-56.5 115q0 63 43.5 105zM525 306
q-133 -12 -211 -33t-111.5 -52t-33.5 -75q0 -53 41 -78.5t101 -25.5q101 0 214 95v169zM282 889l159 -189l-36 -34l-172 176z" />
    <glyph glyph-name="aacute" unicode="&#xe1;" 
d="M146.5 247q43.5 42 135.5 67.5t244 38.5q-1 74 -38.5 120.5t-122.5 46.5q-55 0 -109 -21.5t-98 -52.5l-29 47q46 32 112 57.5t134 25.5q109 0 163.5 -61t54.5 -161v-354h-56l-6 81h-3q-53 -42 -113 -68.5t-117 -26.5q-82 0 -138.5 41t-56.5 115q0 63 43.5 105zM525 306
q-133 -12 -211 -33t-111.5 -52t-33.5 -75q0 -53 41 -78.5t101 -25.5q101 0 214 95v169zM465 889l48 -47l-172 -176l-36 34z" />
    <glyph glyph-name="acircumflex" unicode="&#xe2;" 
d="M146.5 247q43.5 42 135.5 67.5t244 38.5q-1 74 -38.5 120.5t-122.5 46.5q-55 0 -109 -21.5t-98 -52.5l-29 47q46 32 112 57.5t134 25.5q109 0 163.5 -61t54.5 -161v-354h-56l-6 81h-3q-53 -42 -113 -68.5t-117 -26.5q-82 0 -138.5 41t-56.5 115q0 63 43.5 105zM525 306
q-133 -12 -211 -33t-111.5 -52t-33.5 -75q0 -53 41 -78.5t101 -25.5q101 0 214 95v169zM339 860h66l136 -166l-32 -28l-134 141h-5l-134 -141l-31 28z" />
    <glyph glyph-name="atilde" unicode="&#xe3;" 
d="M146.5 247q43.5 42 135.5 67.5t244 38.5q-1 74 -38.5 120.5t-122.5 46.5q-55 0 -109 -21.5t-98 -52.5l-29 47q46 32 112 57.5t134 25.5q109 0 163.5 -61t54.5 -161v-354h-56l-6 81h-3q-53 -42 -113 -68.5t-117 -26.5q-82 0 -138.5 41t-56.5 115q0 63 43.5 105zM525 306
q-133 -12 -211 -33t-111.5 -52t-33.5 -75q0 -53 41 -78.5t101 -25.5q101 0 214 95v169zM243.5 753.5q-14.5 -27.5 -16.5 -74.5l-49 3q4 67 29.5 108.5t79.5 41.5q30 0 52 -15t50 -44q21 -23 36.5 -35t35.5 -12q27 0 41.5 28.5t16.5 73.5l48 -3q-3 -66 -28 -108.5t-79 -42.5
q-31 0 -53 15.5t-50 45.5q-23 24 -38 35t-33 11q-28 0 -42.5 -27.5z" />
    <glyph glyph-name="adieresis" unicode="&#xe4;" 
d="M146.5 247q43.5 42 135.5 67.5t244 38.5q-1 74 -38.5 120.5t-122.5 46.5q-55 0 -109 -21.5t-98 -52.5l-29 47q46 32 112 57.5t134 25.5q109 0 163.5 -61t54.5 -161v-354h-56l-6 81h-3q-53 -42 -113 -68.5t-117 -26.5q-82 0 -138.5 41t-56.5 115q0 63 43.5 105zM525 306
q-133 -12 -211 -33t-111.5 -52t-33.5 -75q0 -53 41 -78.5t101 -25.5q101 0 214 95v169zM228.5 786.5q14.5 15.5 38.5 15.5q22 0 36.5 -15.5t14.5 -38.5t-14.5 -38.5t-36.5 -15.5q-24 0 -38.5 15.5t-14.5 38.5t14.5 38.5zM442 786.5q15 15.5 38 15.5q22 0 37 -15.5t15 -38.5
t-15 -38.5t-37 -15.5q-23 0 -38 15.5t-15 38.5t15 38.5z" />
    <glyph glyph-name="aring" unicode="&#xe5;" 
d="M146.5 247q43.5 42 135.5 67.5t244 38.5q-1 74 -38.5 120.5t-122.5 46.5q-55 0 -109 -21.5t-98 -52.5l-29 47q46 32 112 57.5t134 25.5q109 0 163.5 -61t54.5 -161v-354h-56l-6 81h-3q-53 -42 -113 -68.5t-117 -26.5q-82 0 -138.5 41t-56.5 115q0 63 43.5 105zM525 306
q-133 -12 -211 -33t-111.5 -52t-33.5 -75q0 -53 41 -78.5t101 -25.5q101 0 214 95v169zM287.5 850.5q32.5 30.5 85.5 30.5t85.5 -30.5t32.5 -77.5t-32.5 -78t-85.5 -31t-85.5 31t-32.5 78t32.5 77.5zM425 825.5q-21 21.5 -52 21.5t-51.5 -21.5t-20.5 -52.5q0 -32 20.5 -53
t51.5 -21t52 21.5t21 52.5t-21 52.5z" />
    <glyph glyph-name="ae" unicode="&#xe6;" 
d="M694 269h-318q2 -105 43 -165.5t116 -60.5q64 0 120 39l26 -47q-69 -49 -148 -49q-58 0 -101.5 28t-71.5 80q-91 -108 -192 -108q-65 0 -106 40t-41 110q0 86 71 138.5t228 72.5q-1 91 -30.5 132t-83.5 41q-34 0 -72.5 -14.5t-67.5 -35.5l-26 47q93 59 173 59
q110 0 145 -128q27 64 72 96t98 32q82 0 126 -72t44 -179q0 -28 -4 -56zM425.5 471.5q-41.5 -49.5 -48.5 -153.5h264q-2 102 -30.5 152.5t-86.5 50.5q-57 0 -98.5 -49.5zM266 67.5q43 25.5 75 70.5q-21 62 -21 140v21q-132 -19 -183.5 -57t-51.5 -101q0 -47 27 -73t71 -26
q40 0 83 25.5z" />
    <glyph glyph-name="ccedilla" unicode="&#xe7;" 
d="M468 -104.5q21 -18.5 21 -52.5q0 -92 -177 -101l-8 39q71 4 100 18.5t29 41.5q0 24 -21 37.5t-70 20.5l35 88q-81 6 -144 42.5t-98.5 101t-35.5 150.5q0 91 41.5 157.5t112 102t155.5 35.5q115 0 203 -84l-36 -45q-77 72 -165 72q-71 0 -125.5 -30t-85 -84.5
t-30.5 -123.5q0 -70 30 -124t84.5 -83.5t125.5 -29.5q97 0 183 77l32 -45q-87 -82 -198 -89l-20 -63q41 -10 62 -28.5z" />
    <glyph glyph-name="egrave" unicode="&#xe8;" 
d="M619 269h-465q3 -72 35 -123.5t84.5 -77.5t116.5 -26q99 0 183 58l26 -48q-47 -30 -98 -48t-116 -18q-83 0 -151 35.5t-108 102.5t-40 157q0 88 39.5 155.5t104.5 103.5t139 36q77 0 134.5 -32t88 -91t30.5 -138q0 -26 -3 -46zM272.5 497q-46.5 -24 -77.5 -69.5
t-39 -107.5h405q-5 99 -56 150t-134 51q-52 0 -98.5 -24zM280 889l159 -189l-36 -34l-172 176z" />
    <glyph glyph-name="eacute" unicode="&#xe9;" 
d="M619 269h-465q3 -72 35 -123.5t84.5 -77.5t116.5 -26q99 0 183 58l26 -48q-47 -30 -98 -48t-116 -18q-83 0 -151 35.5t-108 102.5t-40 157q0 88 39.5 155.5t104.5 103.5t139 36q77 0 134.5 -32t88 -91t30.5 -138q0 -26 -3 -46zM272.5 497q-46.5 -24 -77.5 -69.5
t-39 -107.5h405q-5 99 -56 150t-134 51q-52 0 -98.5 -24zM463 889l48 -47l-172 -176l-36 34z" />
    <glyph glyph-name="ecircumflex" unicode="&#xea;" 
d="M619 269h-465q3 -72 35 -123.5t84.5 -77.5t116.5 -26q99 0 183 58l26 -48q-47 -30 -98 -48t-116 -18q-83 0 -151 35.5t-108 102.5t-40 157q0 88 39.5 155.5t104.5 103.5t139 36q77 0 134.5 -32t88 -91t30.5 -138q0 -26 -3 -46zM272.5 497q-46.5 -24 -77.5 -69.5
t-39 -107.5h405q-5 99 -56 150t-134 51q-52 0 -98.5 -24zM337 860h66l136 -166l-32 -28l-134 141h-5l-134 -141l-31 28z" />
    <glyph glyph-name="edieresis" unicode="&#xeb;" 
d="M619 269h-465q3 -72 35 -123.5t84.5 -77.5t116.5 -26q99 0 183 58l26 -48q-47 -30 -98 -48t-116 -18q-83 0 -151 35.5t-108 102.5t-40 157q0 88 39.5 155.5t104.5 103.5t139 36q77 0 134.5 -32t88 -91t30.5 -138q0 -26 -3 -46zM272.5 497q-46.5 -24 -77.5 -69.5
t-39 -107.5h405q-5 99 -56 150t-134 51q-52 0 -98.5 -24zM226.5 786.5q14.5 15.5 38.5 15.5q22 0 36.5 -15.5t14.5 -38.5t-14.5 -38.5t-36.5 -15.5q-24 0 -38.5 15.5t-14.5 38.5t14.5 38.5zM440 786.5q15 15.5 38 15.5q22 0 37 -15.5t15 -38.5t-15 -38.5t-37 -15.5
q-23 0 -38 15.5t-15 38.5t15 38.5z" />
    <glyph glyph-name="igrave" unicode="&#xec;" 
d="M126 506v56h340v-562h-66v506h-274zM331 889l159 -189l-36 -34l-172 176z" />
    <glyph glyph-name="iacute" unicode="&#xed;" 
d="M126 506v56h340v-562h-66v506h-274zM514 889l48 -47l-172 -176l-36 34z" />
    <glyph glyph-name="icircumflex" unicode="&#xee;" 
d="M126 506v56h340v-562h-66v506h-274zM388 860h66l136 -166l-32 -28l-134 141h-5l-134 -141l-31 28z" />
    <glyph glyph-name="idieresis" unicode="&#xef;" 
d="M126 506v56h340v-562h-66v506h-274zM277.5 786.5q14.5 15.5 38.5 15.5q22 0 36.5 -15.5t14.5 -38.5t-14.5 -38.5t-36.5 -15.5q-24 0 -38.5 15.5t-14.5 38.5t14.5 38.5zM491 786.5q15 15.5 38 15.5q22 0 37 -15.5t15 -38.5t-15 -38.5t-37 -15.5q-23 0 -38 15.5t-15 38.5
t15 38.5z" />
    <glyph glyph-name="eth" unicode="&#xf0;" 
d="M573.5 535.5q44.5 -102.5 44.5 -239.5q0 -93 -33 -163t-94 -108.5t-142 -38.5q-72 0 -135 33t-100.5 94.5t-37.5 143.5q0 77 34 136t95 91.5t140 32.5q57 0 110 -28t88 -74q-14 87 -51.5 152.5t-97.5 117.5l-176 -91l-21 37l161 84q-66 47 -151 88l31 44
q101 -47 174 -104l156 81l21 -38l-142 -73q82 -75 126.5 -177.5zM502.5 112.5q50.5 68.5 50.5 180.5q0 22 -2 58q-42 58 -94 84.5t-106 26.5q-68 0 -115 -27t-71 -73.5t-24 -104.5q0 -62 28 -110.5t76 -75.5t105 -27q102 0 152.5 68.5z" />
    <glyph glyph-name="ntilde" unicode="&#xf1;" 
d="M174 562l6 -104h5q52 57 104 87.5t115 30.5q100 0 149.5 -56.5t49.5 -170.5v-349h-67v341q0 90 -35 133t-113 43q-53 0 -97.5 -27t-105.5 -91v-399h-67v562h56zM242.5 753.5q-14.5 -27.5 -16.5 -74.5l-49 3q4 67 29.5 108.5t79.5 41.5q30 0 52 -15t50 -44
q21 -23 36.5 -35t35.5 -12q27 0 41.5 28.5t16.5 73.5l48 -3q-3 -66 -28 -108.5t-79 -42.5q-31 0 -53 15.5t-50 45.5q-23 24 -38 35t-33 11q-28 0 -42.5 -27.5z" />
    <glyph glyph-name="ograve" unicode="&#xf2;" 
d="M113 438q37 67 99.5 102.5t137.5 35.5t138 -35.5t100 -102t37 -157.5t-37 -157.5t-100 -102t-138 -35.5t-137.5 35.5t-99.5 102.5t-37 157t37 157zM529 404q-26 54 -73 84.5t-106 30.5t-106 -30.5t-73 -84.5t-26 -123q0 -70 26 -124t72.5 -83.5t106.5 -29.5t106.5 29.5
t72.5 83.5t26 124q0 69 -26 123zM259 889l159 -189l-36 -34l-172 176z" />
    <glyph glyph-name="oacute" unicode="&#xf3;" 
d="M113 438q37 67 99.5 102.5t137.5 35.5t138 -35.5t100 -102t37 -157.5t-37 -157.5t-100 -102t-138 -35.5t-137.5 35.5t-99.5 102.5t-37 157t37 157zM529 404q-26 54 -73 84.5t-106 30.5t-106 -30.5t-73 -84.5t-26 -123q0 -70 26 -124t72.5 -83.5t106.5 -29.5t106.5 29.5
t72.5 83.5t26 124q0 69 -26 123zM442 889l48 -47l-172 -176l-36 34z" />
    <glyph glyph-name="ocircumflex" unicode="&#xf4;" 
d="M113 438q37 67 99.5 102.5t137.5 35.5t138 -35.5t100 -102t37 -157.5t-37 -157.5t-100 -102t-138 -35.5t-137.5 35.5t-99.5 102.5t-37 157t37 157zM529 404q-26 54 -73 84.5t-106 30.5t-106 -30.5t-73 -84.5t-26 -123q0 -70 26 -124t72.5 -83.5t106.5 -29.5t106.5 29.5
t72.5 83.5t26 124q0 69 -26 123zM316 860h66l136 -166l-32 -28l-134 141h-5l-134 -141l-31 28z" />
    <glyph glyph-name="otilde" unicode="&#xf5;" 
d="M113 438q37 67 99.5 102.5t137.5 35.5t138 -35.5t100 -102t37 -157.5t-37 -157.5t-100 -102t-138 -35.5t-137.5 35.5t-99.5 102.5t-37 157t37 157zM529 404q-26 54 -73 84.5t-106 30.5t-106 -30.5t-73 -84.5t-26 -123q0 -70 26 -124t72.5 -83.5t106.5 -29.5t106.5 29.5
t72.5 83.5t26 124q0 69 -26 123zM220.5 753.5q-14.5 -27.5 -16.5 -74.5l-49 3q4 67 29.5 108.5t79.5 41.5q30 0 52 -15t50 -44q21 -23 36.5 -35t35.5 -12q27 0 41.5 28.5t16.5 73.5l48 -3q-3 -66 -28 -108.5t-79 -42.5q-31 0 -53 15.5t-50 45.5q-23 24 -38 35t-33 11
q-28 0 -42.5 -27.5z" />
    <glyph glyph-name="odieresis" unicode="&#xf6;" 
d="M113 438q37 67 99.5 102.5t137.5 35.5t138 -35.5t100 -102t37 -157.5t-37 -157.5t-100 -102t-138 -35.5t-137.5 35.5t-99.5 102.5t-37 157t37 157zM529 404q-26 54 -73 84.5t-106 30.5t-106 -30.5t-73 -84.5t-26 -123q0 -70 26 -124t72.5 -83.5t106.5 -29.5t106.5 29.5
t72.5 83.5t26 124q0 69 -26 123zM205.5 786.5q14.5 15.5 38.5 15.5q22 0 36.5 -15.5t14.5 -38.5t-14.5 -38.5t-36.5 -15.5q-24 0 -38.5 15.5t-14.5 38.5t14.5 38.5zM419 786.5q15 15.5 38 15.5q22 0 37 -15.5t15 -38.5t-15 -38.5t-37 -15.5q-23 0 -38 15.5t-15 38.5t15 38.5
z" />
    <glyph glyph-name="divide" unicode="&#xf7;" 
d="M314 631.5q15 14.5 36 14.5q22 0 36.5 -14.5t14.5 -36.5q0 -24 -14.5 -38.5t-36.5 -14.5q-21 0 -36 15t-15 38q0 22 15 36.5zM592 411v-53h-486v53h486zM314 212q15 15 36 15q22 0 36.5 -15t14.5 -37q0 -24 -14.5 -38.5t-36.5 -14.5q-21 0 -36 15t-15 38q0 22 15 37z" />
    <glyph glyph-name="oslash" unicode="&#xf8;" 
d="M625 281q0 -91 -37 -157.5t-100 -102t-138 -35.5q-99 0 -173 60l-63 -73l-34 28l65 76q-33 39 -51 90.5t-18 113.5q0 90 37 157t99.5 102.5t137.5 35.5q49 0 93.5 -15.5t80.5 -44.5l62 72l35 -28l-65 -75q69 -80 69 -204zM188 127l295 342q-55 52 -133 52
q-59 0 -106 -30.5t-73 -85.5t-26 -124q0 -90 43 -154zM456 72q47 30 73 84.5t26 124.5q0 88 -43 153l-295 -341q54 -51 133 -51q59 0 106 30z" />
    <glyph glyph-name="ugrave" unicode="&#xf9;" 
d="M97 562h67v-340q0 -91 35 -134t113 -43q55 0 100.5 28t100.5 91v398h67v-562h-55l-7 105h-4q-49 -57 -101.5 -88t-115.5 -31q-102 0 -151 56.5t-49 170.5v349zM252 889l159 -189l-36 -34l-172 176z" />
    <glyph glyph-name="uacute" unicode="&#xfa;" 
d="M97 562h67v-340q0 -91 35 -134t113 -43q55 0 100.5 28t100.5 91v398h67v-562h-55l-7 105h-4q-49 -57 -101.5 -88t-115.5 -31q-102 0 -151 56.5t-49 170.5v349zM435 889l48 -47l-172 -176l-36 34z" />
    <glyph glyph-name="ucircumflex" unicode="&#xfb;" 
d="M97 562h67v-340q0 -91 35 -134t113 -43q55 0 100.5 28t100.5 91v398h67v-562h-55l-7 105h-4q-49 -57 -101.5 -88t-115.5 -31q-102 0 -151 56.5t-49 170.5v349zM309 860h66l136 -166l-32 -28l-134 141h-5l-134 -141l-31 28z" />
    <glyph glyph-name="udieresis" unicode="&#xfc;" 
d="M97 562h67v-340q0 -91 35 -134t113 -43q55 0 100.5 28t100.5 91v398h67v-562h-55l-7 105h-4q-49 -57 -101.5 -88t-115.5 -31q-102 0 -151 56.5t-49 170.5v349zM198.5 786.5q14.5 15.5 38.5 15.5q22 0 36.5 -15.5t14.5 -38.5t-14.5 -38.5t-36.5 -15.5q-24 0 -38.5 15.5
t-14.5 38.5t14.5 38.5zM412 786.5q15 15.5 38 15.5q22 0 37 -15.5t15 -38.5t-15 -38.5t-37 -15.5q-23 0 -38 15.5t-15 38.5t15 38.5z" />
    <glyph glyph-name="yacute" unicode="&#xfd;" 
d="M94 -184q27 -9 54 -9q112 0 169 140l18 46l-269 569h68l155 -339l15 -34l59 -126h4q18 41 52 127l13 33l138 339h64l-258 -624q-31 -85 -87 -137t-141 -52q-18 0 -37.5 3.5t-32.5 8.5zM444 889l48 -47l-172 -176l-36 34z" />
    <glyph glyph-name="thorn" unicode="&#xfe;" 
d="M185 836v-247l-3 -107h2q44 43 97 68.5t105 25.5q115 0 177 -77t62 -209q0 -93 -36 -162t-96 -105.5t-129 -36.5q-43 0 -91 20.5t-89 56.5h-2l3 -111v-201h-67v1085h67zM510 456.5q-45 62.5 -138 62.5q-42 0 -90.5 -24.5t-96.5 -72.5v-302q43 -38 89 -57t83 -19
q56 0 101 30.5t71 86.5t26 128q0 105 -45 167.5z" />
    <glyph glyph-name="ydieresis" unicode="&#xff;" 
d="M94 -184q27 -9 54 -9q112 0 169 140l18 46l-269 569h68l155 -339l15 -34l59 -126h4q18 41 52 127l13 33l138 339h64l-258 -624q-31 -85 -87 -137t-141 -52q-18 0 -37.5 3.5t-32.5 8.5zM207.5 786.5q14.5 15.5 38.5 15.5q22 0 36.5 -15.5t14.5 -38.5t-14.5 -38.5
t-36.5 -15.5q-24 0 -38.5 15.5t-14.5 38.5t14.5 38.5zM421 786.5q15 15.5 38 15.5q22 0 37 -15.5t15 -38.5t-15 -38.5t-37 -15.5q-23 0 -38 15.5t-15 38.5t15 38.5z" />
    <glyph glyph-name="Amacron" unicode="&#x100;" 
d="M497 253h-296l-84 -253h-70l266 768h73l267 -768h-73zM478 310l-44 134q-56 165 -83 263h-5q-26 -96 -73 -238l-8 -25l-45 -134h258zM499 913v-50h-297v50h297z" />
    <glyph glyph-name="amacron" unicode="&#x101;" 
d="M146.5 247q43.5 42 135.5 67.5t244 38.5q-1 74 -38.5 120.5t-122.5 46.5q-55 0 -109 -21.5t-98 -52.5l-29 47q46 32 112 57.5t134 25.5q109 0 163.5 -61t54.5 -161v-354h-56l-6 81h-3q-53 -42 -113 -68.5t-117 -26.5q-82 0 -138.5 41t-56.5 115q0 63 43.5 105zM525 306
q-133 -12 -211 -33t-111.5 -52t-33.5 -75q0 -53 41 -78.5t101 -25.5q101 0 214 95v169zM520 755v-50h-295v50h295z" />
    <glyph glyph-name="Abreve" unicode="&#x102;" 
d="M497 253h-296l-84 -253h-70l266 768h73l267 -768h-73zM478 310l-44 134q-56 165 -83 263h-5q-26 -96 -73 -238l-8 -25l-45 -134h258zM233 980q6 -47 36 -77t81 -30t81 30t36 77l46 -8q-8 -61 -49 -103.5t-114 -42.5t-113.5 42.5t-48.5 103.5z" />
    <glyph glyph-name="abreve" unicode="&#x103;" 
d="M146.5 247q43.5 42 135.5 67.5t244 38.5q-1 74 -38.5 120.5t-122.5 46.5q-55 0 -109 -21.5t-98 -52.5l-29 47q46 32 112 57.5t134 25.5q109 0 163.5 -61t54.5 -161v-354h-56l-6 81h-3q-53 -42 -113 -68.5t-117 -26.5q-82 0 -138.5 41t-56.5 115q0 63 43.5 105zM525 306
q-133 -12 -211 -33t-111.5 -52t-33.5 -75q0 -53 41 -78.5t101 -25.5q101 0 214 95v169zM243 846q7 -54 40.5 -93.5t89.5 -39.5t89 39t42 94l46 -7q-7 -71 -50 -122.5t-127 -51.5q-83 0 -126 51.5t-50 122.5z" />
    <glyph glyph-name="Aogonek" unicode="&#x104;" 
d="M704 -220q-22 -20 -45 -31t-54 -11q-51 0 -83 26.5t-32 77.5q0 86 102 158h-12l-83 253h-296l-84 -253h-70l266 768h73l267 -768q-48 -27 -77 -64.5t-29 -80.5q0 -31 20 -48.5t48 -17.5q34 0 64 28zM478 310l-44 134q-56 165 -83 263h-5q-26 -96 -73 -238l-8 -25
l-45 -134h258z" />
    <glyph glyph-name="aogonek" unicode="&#x105;" 
d="M538 9l-7 72h-3q-53 -42 -113 -68.5t-117 -26.5q-82 0 -138.5 41t-56.5 115q0 63 43.5 105t135.5 67.5t244 38.5q-1 74 -38.5 120.5t-122.5 46.5q-55 0 -109 -21.5t-98 -52.5l-29 47q46 32 112 57.5t134 25.5q109 0 163.5 -61t54.5 -161v-354q-116 -59 -116 -145
q0 -33 20.5 -51t49.5 -18q37 0 65 28l25 -34q-42 -42 -101 -42q-51 0 -82 27t-31 78q0 95 115 166zM525 306q-133 -12 -211 -33t-111.5 -52t-33.5 -75q0 -53 41 -78.5t101 -25.5q101 0 214 95v169z" />
    <glyph glyph-name="Cacute" unicode="&#x106;" 
d="M123 595q42 90 118 138.5t175 48.5q62 0 114 -26.5t88 -66.5l-40 -45q-66 76 -162 76q-80 0 -139.5 -40.5t-91.5 -116t-32 -177.5t32 -178.5t90.5 -118t137.5 -41.5q56 0 100.5 22.5t85.5 67.5l40 -42q-46 -54 -102.5 -82t-128.5 -28q-94 0 -168.5 48.5t-116.5 139
t-42 210.5q0 121 42 211zM491 999l42 -47l-163 -132l-30 35z" />
    <glyph glyph-name="cacute" unicode="&#x107;" 
d="M140.5 438.5q41.5 66.5 112 102t155.5 35.5q115 0 203 -84l-36 -45q-77 72 -165 72q-71 0 -125.5 -30t-85 -84.5t-30.5 -123.5q0 -70 30 -124t84.5 -83.5t125.5 -29.5q97 0 183 77l32 -45q-95 -90 -219 -90q-88 0 -157.5 35t-109 102t-39.5 158t41.5 157.5zM498 889
l48 -47l-172 -176l-36 34z" />
    <glyph glyph-name="Ccircumflex" unicode="&#x108;" 
d="M123 595q42 90 118 138.5t175 48.5q62 0 114 -26.5t88 -66.5l-40 -45q-66 76 -162 76q-80 0 -139.5 -40.5t-91.5 -116t-32 -177.5t32 -178.5t90.5 -118t137.5 -41.5q56 0 100.5 22.5t85.5 67.5l40 -42q-46 -54 -102.5 -82t-128.5 -28q-94 0 -168.5 48.5t-116.5 139
t-42 210.5q0 121 42 211zM365 978h69l128 -132l-30 -25l-130 112h-5l-130 -112l-30 25z" />
    <glyph glyph-name="ccircumflex" unicode="&#x109;" 
d="M140.5 438.5q41.5 66.5 112 102t155.5 35.5q115 0 203 -84l-36 -45q-77 72 -165 72q-71 0 -125.5 -30t-85 -84.5t-30.5 -123.5q0 -70 30 -124t84.5 -83.5t125.5 -29.5q97 0 183 77l32 -45q-95 -90 -219 -90q-88 0 -157.5 35t-109 102t-39.5 158t41.5 157.5zM372 860h66
l136 -166l-32 -28l-134 141h-5l-134 -141l-31 28z" />
    <glyph glyph-name="Cdotaccent" unicode="&#x10a;" 
d="M123 595q42 90 118 138.5t175 48.5q62 0 114 -26.5t88 -66.5l-40 -45q-66 76 -162 76q-80 0 -139.5 -40.5t-91.5 -116t-32 -177.5t32 -178.5t90.5 -118t137.5 -41.5q56 0 100.5 22.5t85.5 67.5l40 -42q-46 -54 -102.5 -82t-128.5 -28q-94 0 -168.5 48.5t-116.5 139
t-42 210.5q0 121 42 211zM361 931q16 15 39 15t39 -15t16 -38q0 -24 -15.5 -39.5t-39.5 -15.5q-23 0 -39 15.5t-16 39.5q0 23 16 38z" />
    <glyph glyph-name="cdotaccent" unicode="&#x10b;" 
d="M140.5 438.5q41.5 66.5 112 102t155.5 35.5q115 0 203 -84l-36 -45q-77 72 -165 72q-71 0 -125.5 -30t-85 -84.5t-30.5 -123.5q0 -70 30 -124t84.5 -83.5t125.5 -29.5q97 0 183 77l32 -45q-95 -90 -219 -90q-88 0 -157.5 35t-109 102t-39.5 158t41.5 157.5zM361 799.5
q18 17.5 45 17.5q26 0 43.5 -17.5t17.5 -44.5q0 -28 -17.5 -45t-43.5 -17q-28 0 -45.5 16.5t-17.5 45.5q0 27 18 44.5z" />
    <glyph glyph-name="Ccaron" unicode="&#x10c;" 
d="M123 595q42 90 118 138.5t175 48.5q62 0 114 -26.5t88 -66.5l-40 -45q-66 76 -162 76q-80 0 -139.5 -40.5t-91.5 -116t-32 -177.5t32 -178.5t90.5 -118t137.5 -41.5q56 0 100.5 22.5t85.5 67.5l40 -42q-46 -54 -102.5 -82t-128.5 -28q-94 0 -168.5 48.5t-116.5 139
t-42 210.5q0 121 42 211zM267 982l130 -111h5l130 111l30 -24l-128 -132h-69l-128 132z" />
    <glyph glyph-name="ccaron" unicode="&#x10d;" 
d="M140.5 438.5q41.5 66.5 112 102t155.5 35.5q115 0 203 -84l-36 -45q-77 72 -165 72q-71 0 -125.5 -30t-85 -84.5t-30.5 -123.5q0 -70 30 -124t84.5 -83.5t125.5 -29.5q97 0 183 77l32 -45q-95 -90 -219 -90q-88 0 -157.5 35t-109 102t-39.5 158t41.5 157.5zM269 863
l134 -141h5l134 141l32 -29l-136 -166h-66l-134 166z" />
    <glyph glyph-name="Dcaron" unicode="&#x10e;" 
d="M290 768q172 0 260.5 -100.5t88.5 -281.5t-88.5 -283.5t-258.5 -102.5h-183v768h181zM497.5 145q70.5 87 70.5 241q0 153 -70.5 238.5t-213.5 85.5h-107v-652h107q143 0 213.5 87zM217 982l130 -111h5l130 111l30 -24l-128 -132h-69l-128 132z" />
    <glyph glyph-name="dcaron" unicode="&#x10f;" 
d="M716 950v-87l-12 -224h-47l-3 311h62zM107 436q35 67 93 103.5t126 36.5q49 0 90.5 -19.5t84.5 -57.5h3l-4 110v227h64v-836h-53l-7 80h-2q-40 -41 -89 -67.5t-101 -26.5q-72 0 -126 34.5t-84 101t-30 159.5q0 88 35 155zM499 442q-81 77 -164 77q-54 0 -99 -31
t-71 -85.5t-26 -121.5q0 -109 49 -173t135 -64q88 0 176 96v302z" />
    <glyph glyph-name="Dcroat" unicode="&#x110;" 
d="M35 384v39l89 5v340h181q172 0 260.5 -100.5t88.5 -281.5t-88.5 -283.5t-258.5 -102.5h-183v384h-89zM512 145q71 87 71 241q0 153 -71 238.5t-213 85.5h-107v-282h183v-44h-183v-326h107q142 0 213 87z" />
    <glyph glyph-name="dcroat" unicode="&#x111;" 
d="M667 679l-85 -6v-673h-56l-7 80h-2q-39 -41 -90 -67.5t-105 -26.5q-74 0 -129.5 33t-86 97t-30.5 153q0 84 36 149t95.5 100t129.5 35q51 0 94 -19.5t85 -58.5h3l-4 111v87h-211v45h211v118h67v-118h85v-39zM514 418q-80 77 -168 77q-55 0 -101 -30t-73 -81.5t-27 -114.5
q0 -104 50 -164.5t139 -60.5q93 0 180 96v278z" />
    <glyph glyph-name="Emacron" unicode="&#x112;" 
d="M604 768v-59h-393v-274h331v-59h-331v-317h404v-59h-472v768h461zM539 913v-50h-297v50h297z" />
    <glyph glyph-name="emacron" unicode="&#x113;" 
d="M619 269h-465q3 -72 35 -123.5t84.5 -77.5t116.5 -26q99 0 183 58l26 -48q-47 -30 -98 -48t-116 -18q-83 0 -151 35.5t-108 102.5t-40 157q0 88 39.5 155.5t104.5 103.5t139 36q77 0 134.5 -32t88 -91t30.5 -138q0 -26 -3 -46zM272.5 497q-46.5 -24 -77.5 -69.5
t-39 -107.5h405q-5 99 -56 150t-134 51q-52 0 -98.5 -24zM518 755v-50h-295v50h295z" />
    <glyph glyph-name="Ebreve" unicode="&#x114;" 
d="M604 768v-59h-393v-274h331v-59h-331v-317h404v-59h-472v768h461zM273 980q6 -47 36 -77t81 -30t81 30t36 77l46 -8q-8 -61 -49 -103.5t-114 -42.5t-113.5 42.5t-48.5 103.5z" />
    <glyph glyph-name="ebreve" unicode="&#x115;" 
d="M619 269h-465q3 -72 35 -123.5t84.5 -77.5t116.5 -26q99 0 183 58l26 -48q-47 -30 -98 -48t-116 -18q-83 0 -151 35.5t-108 102.5t-40 157q0 88 39.5 155.5t104.5 103.5t139 36q77 0 134.5 -32t88 -91t30.5 -138q0 -26 -3 -46zM272.5 497q-46.5 -24 -77.5 -69.5
t-39 -107.5h405q-5 99 -56 150t-134 51q-52 0 -98.5 -24zM241 846q7 -54 40.5 -93.5t89.5 -39.5t89 39t42 94l46 -7q-7 -71 -50 -122.5t-127 -51.5q-83 0 -126 51.5t-50 122.5z" />
    <glyph glyph-name="Edotaccent" unicode="&#x116;" 
d="M604 768v-59h-393v-274h331v-59h-331v-317h404v-59h-472v768h461zM351 931q16 15 39 15t39 -15t16 -38q0 -24 -15.5 -39.5t-39.5 -15.5q-23 0 -39 15.5t-16 39.5q0 23 16 38z" />
    <glyph glyph-name="edotaccent" unicode="&#x117;" 
d="M619 269h-465q3 -72 35 -123.5t84.5 -77.5t116.5 -26q99 0 183 58l26 -48q-47 -30 -98 -48t-116 -18q-83 0 -151 35.5t-108 102.5t-40 157q0 88 39.5 155.5t104.5 103.5t139 36q77 0 134.5 -32t88 -91t30.5 -138q0 -26 -3 -46zM272.5 497q-46.5 -24 -77.5 -69.5
t-39 -107.5h405q-5 99 -56 150t-134 51q-52 0 -98.5 -24zM326 799.5q18 17.5 45 17.5q26 0 43.5 -17.5t17.5 -44.5q0 -28 -17.5 -45t-43.5 -17q-28 0 -45.5 16.5t-17.5 45.5q0 27 18 44.5z" />
    <glyph glyph-name="Eogonek" unicode="&#x118;" 
d="M459 -68q29 41 74 68h-389v768h461v-59h-392v-274h329v-59h-329v-317h403v-59h-3q-31 -5 -60.5 -27.5t-48 -54t-18.5 -63.5t20.5 -49t49.5 -17q34 0 62 28l25 -37q-21 -20 -44.5 -31t-54.5 -11q-50 0 -82 27t-32 77q0 49 29 90z" />
    <glyph glyph-name="eogonek" unicode="&#x119;" 
d="M619 269h-465q3 -72 35 -123.5t84.5 -77.5t116.5 -26q102 0 183 58l26 -48q-92 -66 -128 -108t-36 -89q0 -33 21 -51t50 -18q39 0 65 28l25 -34q-19 -20 -43.5 -31t-57.5 -11q-50 0 -82 27t-32 78q0 84 92 154q-24 -8 -41.5 -9.5t-46.5 -1.5q-83 0 -151 35.5t-108 102.5
t-40 157q0 88 39.5 155.5t104.5 103.5t139 36q77 0 134.5 -32t88 -91t30.5 -138q0 -26 -3 -46zM272.5 497q-46.5 -24 -77.5 -69.5t-39 -107.5h405q-5 99 -56 150t-134 51q-52 0 -98.5 -24z" />
    <glyph glyph-name="Ecaron" unicode="&#x11a;" 
d="M604 768v-59h-393v-274h331v-59h-331v-317h404v-59h-472v768h461zM257 982l130 -111h5l130 111l30 -24l-128 -132h-69l-128 132z" />
    <glyph glyph-name="ecaron" unicode="&#x11b;" 
d="M619 269h-465q3 -72 35 -123.5t84.5 -77.5t116.5 -26q99 0 183 58l26 -48q-47 -30 -98 -48t-116 -18q-83 0 -151 35.5t-108 102.5t-40 157q0 88 39.5 155.5t104.5 103.5t139 36q77 0 134.5 -32t88 -91t30.5 -138q0 -26 -3 -46zM272.5 497q-46.5 -24 -77.5 -69.5
t-39 -107.5h405q-5 99 -56 150t-134 51q-52 0 -98.5 -24zM234 863l134 -141h5l134 141l32 -29l-136 -166h-66l-134 166z" />
    <glyph glyph-name="Gcircumflex" unicode="&#x11c;" 
d="M108 595q42 90 117.5 138.5t174.5 48.5q68 0 118 -26t89 -67l-41 -45q-31 35 -71 55.5t-95 20.5q-80 0 -139 -40.5t-91 -116t-32 -177.5q0 -103 30.5 -179t88.5 -117.5t138 -41.5q48 0 89 14t65 39v225h-168v58h234v-311q-38 -40 -96 -63.5t-129 -23.5q-95 0 -168.5 48.5
t-114.5 138.5t-41 211t42 211zM350 978h69l128 -132l-30 -25l-130 112h-5l-130 -112l-30 25z" />
    <glyph glyph-name="gcircumflex" unicode="&#x11d;" 
d="M117.5 -38q24.5 35 69.5 62v4q-25 13 -41.5 35.5t-16.5 55.5q0 28 18 56.5t50 49.5v5q-68 55 -68 145q0 58 29 103.5t77.5 71.5t106.5 26q48 0 80 -14h233v-54h-163q27 -26 44 -60.5t17 -73.5q0 -57 -28 -101.5t-76.5 -69.5t-106.5 -25q-48 0 -102 24q-24 -14 -37.5 -33
t-13.5 -40q0 -37 32.5 -55t92.5 -18h135q109 0 158 -30t49 -99q0 -51 -37.5 -95.5t-106.5 -71.5t-158 -27q-125 0 -193 43t-68 118q0 33 24.5 68zM469.5 452.5q-19.5 34.5 -53.5 53.5t-74 19t-74 -19t-53.5 -53.5t-19.5 -77.5t19.5 -76.5t53.5 -52t74 -18.5t74 18.5t53.5 52
t19.5 76.5t-19.5 77.5zM556 -21.5q-34 17.5 -107 17.5h-125q-49 0 -86 10q-84 -45 -84 -109q0 -51 52 -82t149 -31q70 0 123.5 19.5t82.5 50t29 64.5q0 43 -34 60.5zM326 860h66l136 -166l-32 -28l-134 141h-5l-134 -141l-31 28z" />
    <glyph glyph-name="Gbreve" unicode="&#x11e;" 
d="M108 595q42 90 117.5 138.5t174.5 48.5q68 0 118 -26t89 -67l-41 -45q-31 35 -71 55.5t-95 20.5q-80 0 -139 -40.5t-91 -116t-32 -177.5q0 -103 30.5 -179t88.5 -117.5t138 -41.5q48 0 89 14t65 39v225h-168v58h234v-311q-38 -40 -96 -63.5t-129 -23.5q-95 0 -168.5 48.5
t-114.5 138.5t-41 211t42 211zM268 980q6 -47 36 -77t81 -30t81 30t36 77l46 -8q-8 -61 -49 -103.5t-114 -42.5t-113.5 42.5t-48.5 103.5z" />
    <glyph glyph-name="gbreve" unicode="&#x11f;" 
d="M117.5 -38q24.5 35 69.5 62v4q-25 13 -41.5 35.5t-16.5 55.5q0 28 18 56.5t50 49.5v5q-68 55 -68 145q0 58 29 103.5t77.5 71.5t106.5 26q48 0 80 -14h233v-54h-163q27 -26 44 -60.5t17 -73.5q0 -57 -28 -101.5t-76.5 -69.5t-106.5 -25q-48 0 -102 24q-24 -14 -37.5 -33
t-13.5 -40q0 -37 32.5 -55t92.5 -18h135q109 0 158 -30t49 -99q0 -51 -37.5 -95.5t-106.5 -71.5t-158 -27q-125 0 -193 43t-68 118q0 33 24.5 68zM469.5 452.5q-19.5 34.5 -53.5 53.5t-74 19t-74 -19t-53.5 -53.5t-19.5 -77.5t19.5 -76.5t53.5 -52t74 -18.5t74 18.5t53.5 52
t19.5 76.5t-19.5 77.5zM556 -21.5q-34 17.5 -107 17.5h-125q-49 0 -86 10q-84 -45 -84 -109q0 -51 52 -82t149 -31q70 0 123.5 19.5t82.5 50t29 64.5q0 43 -34 60.5zM230 846q7 -54 40.5 -93.5t89.5 -39.5t89 39t42 94l46 -7q-7 -71 -50 -122.5t-127 -51.5q-83 0 -126 51.5
t-50 122.5z" />
    <glyph glyph-name="Gdotaccent" unicode="&#x120;" 
d="M108 595q42 90 117.5 138.5t174.5 48.5q68 0 118 -26t89 -67l-41 -45q-31 35 -71 55.5t-95 20.5q-80 0 -139 -40.5t-91 -116t-32 -177.5q0 -103 30.5 -179t88.5 -117.5t138 -41.5q48 0 89 14t65 39v225h-168v58h234v-311q-38 -40 -96 -63.5t-129 -23.5q-95 0 -168.5 48.5
t-114.5 138.5t-41 211t42 211zM346 931q16 15 39 15t39 -15t16 -38q0 -24 -15.5 -39.5t-39.5 -15.5q-23 0 -39 15.5t-16 39.5q0 23 16 38z" />
    <glyph glyph-name="gdotaccent" unicode="&#x121;" 
d="M117.5 -38q24.5 35 69.5 62v4q-25 13 -41.5 35.5t-16.5 55.5q0 28 18 56.5t50 49.5v5q-68 55 -68 145q0 58 29 103.5t77.5 71.5t106.5 26q48 0 80 -14h233v-54h-163q27 -26 44 -60.5t17 -73.5q0 -57 -28 -101.5t-76.5 -69.5t-106.5 -25q-48 0 -102 24q-24 -14 -37.5 -33
t-13.5 -40q0 -37 32.5 -55t92.5 -18h135q109 0 158 -30t49 -99q0 -51 -37.5 -95.5t-106.5 -71.5t-158 -27q-125 0 -193 43t-68 118q0 33 24.5 68zM469.5 452.5q-19.5 34.5 -53.5 53.5t-74 19t-74 -19t-53.5 -53.5t-19.5 -77.5t19.5 -76.5t53.5 -52t74 -18.5t74 18.5t53.5 52
t19.5 76.5t-19.5 77.5zM556 -21.5q-34 17.5 -107 17.5h-125q-49 0 -86 10q-84 -45 -84 -109q0 -51 52 -82t149 -31q70 0 123.5 19.5t82.5 50t29 64.5q0 43 -34 60.5zM315 799.5q18 17.5 45 17.5q26 0 43.5 -17.5t17.5 -44.5q0 -28 -17.5 -45t-43.5 -17q-28 0 -45.5 16.5
t-17.5 45.5q0 27 18 44.5z" />
    <glyph glyph-name="Gcommaaccent" unicode="&#x122;" 
d="M108 595q42 90 117.5 138.5t174.5 48.5q68 0 118 -26t89 -67l-41 -45q-31 35 -71 55.5t-95 20.5q-80 0 -139 -40.5t-91 -116t-32 -177.5q0 -103 30.5 -179t88.5 -117.5t138 -41.5q48 0 89 14t65 39v225h-168v58h234v-311q-38 -40 -96 -63.5t-129 -23.5q-95 0 -168.5 48.5
t-114.5 138.5t-41 211t42 211zM386 -200.5q29 14.5 29 40.5q0 25 -22 37t-65 15l17 39q70 -11 98 -30.5t28 -57.5q0 -92 -177 -101l-8 39q71 4 100 18.5z" />
    <glyph glyph-name="gcommaaccent" unicode="&#x123;" 
d="M117.5 -38q24.5 35 69.5 62v4q-25 13 -41.5 35.5t-16.5 55.5q0 28 18 56.5t50 49.5v5q-68 55 -68 145q0 58 29 103.5t77.5 71.5t106.5 26q48 0 80 -14h233v-54h-163q27 -26 44 -60.5t17 -73.5q0 -57 -28 -101.5t-76.5 -69.5t-106.5 -25q-48 0 -102 24q-24 -14 -37.5 -33
t-13.5 -40q0 -37 32.5 -55t92.5 -18h135q109 0 158 -30t49 -99q0 -51 -37.5 -95.5t-106.5 -71.5t-158 -27q-125 0 -193 43t-68 118q0 33 24.5 68zM469.5 452.5q-19.5 34.5 -53.5 53.5t-74 19t-74 -19t-53.5 -53.5t-19.5 -77.5t19.5 -76.5t53.5 -52t74 -18.5t74 18.5t53.5 52
t19.5 76.5t-19.5 77.5zM556 -21.5q-34 17.5 -107 17.5h-125q-49 0 -86 10q-84 -45 -84 -109q0 -51 52 -82t149 -31q70 0 123.5 19.5t82.5 50t29 64.5q0 43 -34 60.5zM322 832q45 25 132 30l9 -39q-73 -5 -101.5 -19t-28.5 -40q0 -24 22 -36.5t65 -16.5l-17 -38
q-70 10 -98 29.5t-28 57.5q0 47 45 72z" />
    <glyph glyph-name="Hcircumflex" unicode="&#x124;" 
d="M168 768v-332h363v332h68v-768h-68v376h-363v-376h-69v768h69zM315 978h69l128 -132l-30 -25l-130 112h-5l-130 -112l-30 25z" />
    <glyph glyph-name="hcircumflex" unicode="&#x125;" 
d="M213 836v-238l-4 -142h2q53 58 106 89t115 31q100 0 149.5 -56.5t49.5 -170.5v-349h-67v341q0 90 -35 133t-113 43q-53 0 -97.5 -27t-105.5 -91v-399h-67v836h67zM140 1048h69l128 -132l-30 -25l-130 112h-5l-130 -112l-30 25z" />
    <glyph glyph-name="Hbar" unicode="&#x126;" 
d="M684 575h-85v-575h-68v376h-363v-376h-69v575h-84v40l84 5v148h69v-148h363v148h68v-148h85v-45zM531 575h-363v-139h363v139z" />
    <glyph glyph-name="hbar" unicode="&#x127;" 
d="M553.5 496.5q49.5 -56.5 49.5 -170.5v-326h-67v317q0 90 -35 133t-113 43q-54 0 -98 -27t-105 -90v-376h-67v673h-88v40l88 5v118h67v-118h260v-45h-260v-98l-4 -143h2q53 58 106 89.5t115 31.5q100 0 149.5 -56.5z" />
    <glyph glyph-name="Itilde" unicode="&#x128;" 
d="M316 59v650h-195v59h459v-59h-196v-650h196v-59h-459v59h195zM221 899.5q-17 -22.5 -21 -61.5l-47 4q3 60 31.5 96.5t76.5 36.5q32 0 55 -13t51 -38q23 -20 37.5 -29t33.5 -9q24 0 40 22.5t21 62.5l48 -4q-2 -60 -31 -96.5t-77 -36.5q-33 0 -56 13t-50 37
q-23 20 -37.5 29t-33.5 9q-24 0 -41 -22.5z" />
    <glyph glyph-name="itilde" unicode="&#x129;" 
d="M126 506v56h340v-562h-66v506h-274zM292.5 753.5q-14.5 -27.5 -16.5 -74.5l-49 3q4 67 29.5 108.5t79.5 41.5q30 0 52 -15t50 -44q21 -23 36.5 -35t35.5 -12q27 0 41.5 28.5t16.5 73.5l48 -3q-3 -66 -28 -108.5t-79 -42.5q-31 0 -53 15.5t-50 45.5q-23 24 -38 35t-33 11
q-28 0 -42.5 -27.5z" />
    <glyph glyph-name="Imacron" unicode="&#x12a;" 
d="M316 59v650h-195v59h459v-59h-196v-650h196v-59h-459v59h195zM499 913v-50h-297v50h297z" />
    <glyph glyph-name="imacron" unicode="&#x12b;" 
d="M126 506v56h340v-562h-66v506h-274zM569 755v-50h-295v50h295z" />
    <glyph glyph-name="Ibreve" unicode="&#x12c;" 
d="M316 59v650h-195v59h459v-59h-196v-650h196v-59h-459v59h195zM233 980q6 -47 36 -77t81 -30t81 30t36 77l46 -8q-8 -61 -49 -103.5t-114 -42.5t-113.5 42.5t-48.5 103.5z" />
    <glyph glyph-name="ibreve" unicode="&#x12d;" 
d="M126 506v56h340v-562h-66v506h-274zM292 846q7 -54 40.5 -93.5t89.5 -39.5t89 39t42 94l46 -7q-7 -71 -50 -122.5t-127 -51.5q-83 0 -126 51.5t-50 122.5z" />
    <glyph glyph-name="Iogonek" unicode="&#x12e;" 
d="M273 -76.5q22 38.5 59 76.5h-211v59h195v650h-195v59h459v-59h-196v-650h196v-59h-188q-85 -77 -85 -145q0 -32 20 -49t49 -17q34 0 62 28l26 -37q-44 -42 -99 -42q-52 0 -83 26.5t-31 77.5q0 43 22 81.5z" />
    <glyph glyph-name="iogonek" unicode="&#x12f;" 
d="M413 0h-13v506h-274v56h340v-569q-47 -27 -73.5 -64t-26.5 -74q0 -33 21 -51t51 -18q33 0 65 28l24 -34q-21 -20 -45 -31t-55 -11q-51 0 -83 27t-32 78q0 86 101 157zM377 799.5q18 17.5 45 17.5q26 0 43.5 -17.5t17.5 -44.5q0 -28 -17.5 -45t-43.5 -17q-28 0 -45.5 16.5
t-17.5 45.5q0 27 18 44.5z" />
    <glyph glyph-name="Idotaccent" unicode="&#x130;" 
d="M316 59v650h-195v59h459v-59h-196v-650h196v-59h-459v59h195zM311 931q16 15 39 15t39 -15t16 -38q0 -24 -15.5 -39.5t-39.5 -15.5q-23 0 -39 15.5t-16 39.5q0 23 16 38z" />
    <glyph glyph-name="dotlessi" unicode="&#x131;" 
d="M111 506v56h340v-562h-66v506h-274z" />
    <glyph glyph-name="IJ" unicode="&#x132;" 
d="M217 768v-768h-69v768h69zM350 -114q33 -11 59 -11q43 0 59 30t16 88v775h68v-781q0 -86 -33.5 -129t-105.5 -43q-43 0 -77 15z" />
    <glyph glyph-name="ij" unicode="&#x133;" 
d="M138 793q17 16 43 16q25 0 42 -16.5t17 -42.5t-17 -42.5t-42 -16.5q-26 0 -43 16t-17 43t17 43zM500 792.5q17 16.5 42 16.5t42 -16.5t17 -42.5t-17 -42.5t-42 -16.5t-42 16.5t-17 42.5t17 42.5zM213 562v-562h-67v562h67zM377 -196q35 -10 57 -10q43 0 58.5 29.5
t15.5 88.5v650h67v-652q0 -86 -33 -129.5t-104 -43.5q-41 0 -75 15z" />
    <glyph glyph-name="Jcircumflex" unicode="&#x134;" 
d="M150 154q32 -53 77.5 -79.5t93.5 -26.5q90 0 132.5 48t42.5 150v464h-330v58h399v-528q0 -115 -57 -184.5t-186 -69.5q-67 0 -125.5 32.5t-93.5 94.5zM340 978h69l128 -132l-30 -25l-130 112h-5l-130 -112l-30 25z" />
    <glyph glyph-name="jcircumflex" unicode="&#x135;" 
d="M110 -173q30 -15 65.5 -24t68.5 -9q88 0 122 42t34 124v546h-273v56h340v-595q0 -111 -51.5 -170.5t-173.5 -59.5q-40 0 -81 10.5t-75 27.5zM389 860h66l136 -166l-32 -28l-134 141h-5l-134 -141l-31 28z" />
    <glyph glyph-name="Kcommaaccent" unicode="&#x136;" 
d="M591 0l-245 430l-149 -172v-258h-70v768h70v-413h2l360 413h79l-247 -285l278 -483h-78zM398 -200.5q29 14.5 29 40.5q0 25 -22 37t-65 15l17 39q70 -11 98 -30.5t28 -57.5q0 -92 -177 -101l-8 39q71 4 100 18.5z" />
    <glyph glyph-name="kcommaaccent" unicode="&#x137;" 
d="M588 0l-232 302l-152 -145v-157h-67v836h67v-598h4l341 324h80l-229 -218l264 -344h-76zM394 -200.5q29 14.5 29 40.5q0 25 -22 37t-65 15l17 39q70 -11 98 -30.5t28 -57.5q0 -92 -177 -101l-8 39q71 4 100 18.5z" />
    <glyph glyph-name="kgreenlandic" unicode="&#x138;" 
d="M204 562v-325l2 2l343 323h80l-229 -220l264 -342h-76l-232 300l-152 -145v-155h-67v562h67z" />
    <glyph glyph-name="Lacute" unicode="&#x139;" 
d="M282 768v-709h393v-59h-460v768h67zM356 999l42 -47l-163 -132l-30 35z" />
    <glyph glyph-name="lacute" unicode="&#x13a;" 
d="M306 779h-203v57h270v-667q0 -125 119 -125q55 0 112 27l20 -51q-41 -18 -72 -26t-72 -8q-85 0 -129.5 47t-44.5 143v603zM429 1069l42 -47l-163 -132l-30 35z" />
    <glyph glyph-name="Lcommaaccent" unicode="&#x13b;" 
d="M236 768v-709h393v-59h-460v768h67zM411 -200.5q29 14.5 29 40.5q0 25 -22 37t-65 15l17 39q70 -11 98 -30.5t28 -57.5q0 -92 -177 -101l-8 39q71 4 100 18.5z" />
    <glyph glyph-name="lcommaaccent" unicode="&#x13c;" 
d="M306 779h-203v57h270v-667q0 -125 119 -125q55 0 112 27l20 -51q-41 -18 -72 -26t-72 -8q-85 0 -129.5 47t-44.5 143v603zM456 -200.5q29 14.5 29 40.5q0 25 -22 37t-65 15l17 39q70 -11 98 -30.5t28 -57.5q0 -92 -177 -101l-8 39q71 4 100 18.5z" />
    <glyph glyph-name="Lcaron" unicode="&#x13d;" 
d="M236 768v-709h393v-59h-460v768h67zM510 913v-87l-12 -224h-47l-3 311h62z" />
    <glyph glyph-name="lcaron" unicode="&#x13e;" 
d="M306 779h-203v57h270v-667q0 -125 119 -125q55 0 112 27l20 -51q-41 -18 -72 -26t-72 -8q-85 0 -129.5 47t-44.5 143v603zM526 950v-87l-12 -224h-47l-3 311h62z" />
    <glyph glyph-name="Ldot" unicode="&#x13f;" 
d="M236 768v-709h393v-59h-460v768h67zM496 448.5q18 17.5 45 17.5q26 0 43.5 -17.5t17.5 -44.5q0 -28 -17.5 -45t-43.5 -17q-28 0 -45.5 16.5t-17.5 45.5q0 27 18 44.5z" />
    <glyph glyph-name="ldot" unicode="&#x140;" 
d="M266 779h-203v57h270v-667q0 -125 119 -125q55 0 112 27l20 -51q-41 -18 -72 -26t-72 -8q-85 0 -129.5 47t-44.5 143v603zM624 447.5q18 17.5 45 17.5q26 0 43.5 -17.5t17.5 -44.5q0 -28 -17.5 -45t-43.5 -17q-28 0 -45.5 16.5t-17.5 45.5q0 27 18 44.5z" />
    <glyph glyph-name="Lslash" unicode="&#x141;" 
d="M629 59v-59h-460v282l-125 -65l-24 45l149 77v429h67v-398l260 136l24 -45l-284 -149v-253h393z" />
    <glyph glyph-name="lslash" unicode="&#x142;" 
d="M624 20q-41 -18 -72 -26t-72 -8q-85 0 -129.5 47t-44.5 143v237l-135 -80l-24 47l159 94v305h-203v57h270v-330l184 106l24 -46l-208 -120v-277q0 -125 119 -125q55 0 112 27z" />
    <glyph glyph-name="Nacute" unicode="&#x143;" 
d="M174 768l283 -523l80 -153h3l-3 72q-6 104 -6 157v447h65v-768h-70l-282 523l-81 153h-3l4 -95q5 -72 5 -131v-450h-65v768h70zM453 999l42 -47l-163 -132l-30 35z" />
    <glyph glyph-name="nacute" unicode="&#x144;" 
d="M174 562l6 -104h5q52 57 104 87.5t115 30.5q100 0 149.5 -56.5t49.5 -170.5v-349h-67v341q0 90 -35 133t-113 43q-53 0 -97.5 -27t-105.5 -91v-399h-67v562h56zM464 889l48 -47l-172 -176l-36 34z" />
    <glyph glyph-name="Ncommaaccent" unicode="&#x145;" 
d="M174 768l283 -523l80 -153h3l-3 72q-6 104 -6 157v447h65v-768h-70l-282 523l-81 153h-3l4 -95q5 -72 5 -131v-450h-65v768h70zM348 -200.5q29 14.5 29 40.5q0 25 -22 37t-65 15l17 39q70 -11 98 -30.5t28 -57.5q0 -92 -177 -101l-8 39q71 4 100 18.5z" />
    <glyph glyph-name="ncommaaccent" unicode="&#x146;" 
d="M174 562l6 -104h5q52 57 104 87.5t115 30.5q100 0 149.5 -56.5t49.5 -170.5v-349h-67v341q0 90 -35 133t-113 43q-53 0 -97.5 -27t-105.5 -91v-399h-67v562h56zM366 -200.5q29 14.5 29 40.5q0 25 -22 37t-65 15l17 39q70 -11 98 -30.5t28 -57.5q0 -92 -177 -101l-8 39
q71 4 100 18.5z" />
    <glyph glyph-name="Ncaron" unicode="&#x147;" 
d="M174 768l283 -523l80 -153h3l-3 72q-6 104 -6 157v447h65v-768h-70l-282 523l-81 153h-3l4 -95q5 -72 5 -131v-450h-65v768h70zM229 982l130 -111h5l130 111l30 -24l-128 -132h-69l-128 132z" />
    <glyph glyph-name="ncaron" unicode="&#x148;" 
d="M174 562l6 -104h5q52 57 104 87.5t115 30.5q100 0 149.5 -56.5t49.5 -170.5v-349h-67v341q0 90 -35 133t-113 43q-53 0 -97.5 -27t-105.5 -91v-399h-67v562h56zM235 863l134 -141h5l134 141l32 -29l-136 -166h-66l-134 166z" />
    <glyph glyph-name="napostrophe" unicode="&#x149;" 
d="M157.5 782q26.5 -33 26.5 -90q0 -83 -41.5 -151t-111.5 -106l-27 42q53 34 83 83t34 111q-17 -10 -33 -10q-32 0 -52.5 21t-20.5 54q0 34 21.5 56.5t54.5 22.5q40 0 66.5 -33zM649 522q46 -54 46 -163v-359h-67v350q0 86 -32 126.5t-102 40.5q-50 0 -90.5 -25t-97.5 -83
v-409h-67v562h56l6 -94h5q50 52 97.5 80t106.5 28q93 0 139 -54z" />
    <glyph glyph-name="Eng" unicode="&#x14a;" 
d="M383 65q25 -13 60 -13q124 0 124 340q0 179 -52 253.5t-147 74.5q-46 0 -101 -34.5t-91 -84.5v-601h-68v768h67v-98q42 48 96.5 80t109.5 32q118 0 187.5 -93.5t69.5 -296.5q0 -215 -50.5 -310.5t-138.5 -95.5q-22 0 -46 4t-39 11z" />
    <glyph glyph-name="eng" unicode="&#x14b;" 
d="M414.5 -207.5q-23.5 4.5 -39.5 11.5l15 54q35 -13 65 -13q47 0 64 32t17 95v369q0 90 -35 133t-113 43q-53 0 -97.5 -27t-105.5 -91v-399h-67v562h56l6 -104h5q52 57 104 87.5t115 30.5q100 0 149.5 -56.5t49.5 -170.5v-379q0 -90 -34.5 -136t-108.5 -46q-22 0 -45.5 4.5
z" />
    <glyph glyph-name="Omacron" unicode="&#x14c;" 
d="M97 596.5q37 89.5 102.5 137.5t150.5 48q84 0 149.5 -48t102.5 -137.5t37 -210.5t-37 -211.5t-102.5 -139.5t-149.5 -49q-85 0 -150.5 49t-102.5 139.5t-37 211.5t37 210.5zM541 563.5q-27 75.5 -76.5 116t-114.5 40.5t-114.5 -40.5t-76.5 -116t-27 -177.5t27.5 -178.5
t76.5 -118t114 -41.5t114 41.5t76.5 118t27.5 178.5t-27 177.5zM499 913v-50h-297v50h297z" />
    <glyph glyph-name="omacron" unicode="&#x14d;" 
d="M113 438q37 67 99.5 102.5t137.5 35.5t138 -35.5t100 -102t37 -157.5t-37 -157.5t-100 -102t-138 -35.5t-137.5 35.5t-99.5 102.5t-37 157t37 157zM529 404q-26 54 -73 84.5t-106 30.5t-106 -30.5t-73 -84.5t-26 -123q0 -70 26 -124t72.5 -83.5t106.5 -29.5t106.5 29.5
t72.5 83.5t26 124q0 69 -26 123zM497 755v-50h-295v50h295z" />
    <glyph glyph-name="Obreve" unicode="&#x14e;" 
d="M97 596.5q37 89.5 102.5 137.5t150.5 48q84 0 149.5 -48t102.5 -137.5t37 -210.5t-37 -211.5t-102.5 -139.5t-149.5 -49q-85 0 -150.5 49t-102.5 139.5t-37 211.5t37 210.5zM541 563.5q-27 75.5 -76.5 116t-114.5 40.5t-114.5 -40.5t-76.5 -116t-27 -177.5t27.5 -178.5
t76.5 -118t114 -41.5t114 41.5t76.5 118t27.5 178.5t-27 177.5zM233 980q6 -47 36 -77t81 -30t81 30t36 77l46 -8q-8 -61 -49 -103.5t-114 -42.5t-113.5 42.5t-48.5 103.5z" />
    <glyph glyph-name="obreve" unicode="&#x14f;" 
d="M113 438q37 67 99.5 102.5t137.5 35.5t138 -35.5t100 -102t37 -157.5t-37 -157.5t-100 -102t-138 -35.5t-137.5 35.5t-99.5 102.5t-37 157t37 157zM529 404q-26 54 -73 84.5t-106 30.5t-106 -30.5t-73 -84.5t-26 -123q0 -70 26 -124t72.5 -83.5t106.5 -29.5t106.5 29.5
t72.5 83.5t26 124q0 69 -26 123zM220 846q7 -54 40.5 -93.5t89.5 -39.5t89 39t42 94l46 -7q-7 -71 -50 -122.5t-127 -51.5q-83 0 -126 51.5t-50 122.5z" />
    <glyph glyph-name="Ohungarumlaut" unicode="&#x150;" 
d="M97 596.5q37 89.5 102.5 137.5t150.5 48q84 0 149.5 -48t102.5 -137.5t37 -210.5t-37 -211.5t-102.5 -139.5t-149.5 -49q-85 0 -150.5 49t-102.5 139.5t-37 211.5t37 210.5zM541 563.5q-27 75.5 -76.5 116t-114.5 40.5t-114.5 -40.5t-76.5 -116t-27 -177.5t27.5 -178.5
t76.5 -118t114 -41.5t114 41.5t76.5 118t27.5 178.5t-27 177.5zM330 1016l49 -29l-116 -163l-37 18zM505 1016l49 -29l-116 -163l-37 18z" />
    <glyph glyph-name="ohungarumlaut" unicode="&#x151;" 
d="M113 438q37 67 99.5 102.5t137.5 35.5t138 -35.5t100 -102t37 -157.5t-37 -157.5t-100 -102t-138 -35.5t-137.5 35.5t-99.5 102.5t-37 157t37 157zM529 404q-26 54 -73 84.5t-106 30.5t-106 -30.5t-73 -84.5t-26 -123q0 -70 26 -124t72.5 -83.5t106.5 -29.5t106.5 29.5
t72.5 83.5t26 124q0 69 -26 123zM344 879l49 -26l-111 -189l-39 17zM506 879l50 -26l-111 -189l-39 17z" />
    <glyph glyph-name="OE" unicode="&#x152;" 
d="M124 666.5q80 101.5 226 101.5h325v-58h-241v-275h184v-59h-184v-317h253v-59h-338q-97 0 -165.5 47t-104 134t-35.5 205q0 179 80 280.5zM370 711h-29q-113 0 -169 -85.5t-56 -239.5t56 -241t169 -87h29v653z" />
    <glyph glyph-name="oe" unicode="&#x153;" 
d="M694 269h-299q3 -110 44.5 -168t108.5 -58q30 0 54.5 10t51.5 29l26 -47q-60 -49 -134 -49q-130 0 -177 151q-46 -151 -161 -151q-57 0 -101.5 35t-69.5 102t-25 158t25 158t70 102t102 35q113 0 161 -153q22 76 64.5 114.5t100.5 38.5q77 0 119.5 -72t42.5 -179
q0 -35 -3 -56zM438 468q-36 -53 -42 -150h245q-5 203 -111 203q-56 0 -92 -53zM279.5 74q29.5 30 46 83.5t16.5 123.5t-16.5 124t-46 84t-67.5 30q-64 0 -99.5 -64.5t-35.5 -173.5q0 -108 35.5 -172.5t99.5 -64.5q38 0 67.5 30z" />
    <glyph glyph-name="Racute" unicode="&#x154;" 
d="M552 0l-200 343h-154v-343h-68v768h225q258 0 258 -208q0 -89 -50 -142.5t-138 -68.5l207 -349h-80zM199 399h143q99 0 150.5 40t51.5 121t-50.5 115.5t-151.5 34.5h-143v-311zM447 999l42 -47l-163 -132l-30 35z" />
    <glyph glyph-name="racute" unicode="&#x155;" 
d="M240 562l6 -137h3q46 70 113 110.5t147 40.5q67 0 112 -23l-17 -59q-32 12 -53 16t-52 4q-72 0 -134 -40t-115 -130v-344h-67v562h57zM494 889l48 -47l-172 -176l-36 34z" />
    <glyph glyph-name="Rcommaaccent" unicode="&#x156;" 
d="M552 0l-200 343h-154v-343h-68v768h225q258 0 258 -208q0 -89 -50 -142.5t-138 -68.5l207 -349h-80zM199 399h143q99 0 150.5 40t51.5 121t-50.5 115.5t-151.5 34.5h-143v-311zM371 -200.5q29 14.5 29 40.5q0 25 -22 37t-65 15l17 39q70 -11 98 -30.5t28 -57.5
q0 -92 -177 -101l-8 39q71 4 100 18.5z" />
    <glyph glyph-name="rcommaaccent" unicode="&#x157;" 
d="M263 562l6 -137h3q46 70 113 110.5t147 40.5q67 0 112 -23l-17 -59q-32 12 -53 16t-52 4q-72 0 -134 -40t-115 -130v-344h-67v562h57zM251 -200.5q29 14.5 29 40.5q0 25 -22 37t-65 15l17 39q70 -11 98 -30.5t28 -57.5q0 -92 -177 -101l-8 39q71 4 100 18.5z" />
    <glyph glyph-name="Rcaron" unicode="&#x158;" 
d="M552 0l-200 343h-154v-343h-68v768h225q258 0 258 -208q0 -89 -50 -142.5t-138 -68.5l207 -349h-80zM199 399h143q99 0 150.5 40t51.5 121t-50.5 115.5t-151.5 34.5h-143v-311zM223 982l130 -111h5l130 111l30 -24l-128 -132h-69l-128 132z" />
    <glyph glyph-name="rcaron" unicode="&#x159;" 
d="M240 562l6 -137h3q46 70 113 110.5t147 40.5q67 0 112 -23l-17 -59q-32 12 -53 16t-52 4q-72 0 -134 -40t-115 -130v-344h-67v562h57zM265 863l134 -141h5l134 141l32 -29l-136 -166h-66l-134 166z" />
    <glyph glyph-name="Sacute" unicode="&#x15a;" 
d="M128 148q45 -47 105 -73.5t128 -26.5q87 0 138 39t51 103q0 43 -18.5 70.5t-47 44t-79.5 38.5l-114 51q-73 30 -120 73.5t-47 119.5q0 56 31 100.5t86 69.5t124 25q68 0 127.5 -26t100.5 -67l-38 -45q-79 76 -192 76q-76 0 -122.5 -35t-46.5 -93q0 -39 20.5 -66t48 -42
t72.5 -34l113 -50q82 -34 127 -79t45 -124q0 -60 -32.5 -108t-92 -75.5t-137.5 -27.5q-83 0 -152 30.5t-121 84.5zM458 999l42 -47l-163 -132l-30 35z" />
    <glyph glyph-name="sacute" unicode="&#x15b;" 
d="M124 121q51 -39 111 -59.5t141 -20.5q77 0 119.5 29.5t42.5 73.5q0 27 -13.5 47t-54.5 38t-122 34q-112 23 -167.5 61.5t-55.5 98.5q0 67 57.5 110t166.5 43q57 0 117.5 -20t102.5 -50l-34 -45q-86 61 -191 61q-79 0 -115 -27t-36 -68t41 -65t136 -43q95 -20 146 -43.5
t70.5 -53.5t19.5 -74q0 -45 -28 -82t-82 -58.5t-128 -21.5q-79 0 -149.5 25t-127.5 64zM442 889l48 -47l-172 -176l-36 34z" />
    <glyph glyph-name="Scircumflex" unicode="&#x15c;" 
d="M128 148q45 -47 105 -73.5t128 -26.5q87 0 138 39t51 103q0 43 -18.5 70.5t-47 44t-79.5 38.5l-114 51q-73 30 -120 73.5t-47 119.5q0 56 31 100.5t86 69.5t124 25q68 0 127.5 -26t100.5 -67l-38 -45q-79 76 -192 76q-76 0 -122.5 -35t-46.5 -93q0 -39 20.5 -66t48 -42
t72.5 -34l113 -50q82 -34 127 -79t45 -124q0 -60 -32.5 -108t-92 -75.5t-137.5 -27.5q-83 0 -152 30.5t-121 84.5zM332 978h69l128 -132l-30 -25l-130 112h-5l-130 -112l-30 25z" />
    <glyph glyph-name="scircumflex" unicode="&#x15d;" 
d="M124 121q51 -39 111 -59.5t141 -20.5q77 0 119.5 29.5t42.5 73.5q0 27 -13.5 47t-54.5 38t-122 34q-112 23 -167.5 61.5t-55.5 98.5q0 67 57.5 110t166.5 43q57 0 117.5 -20t102.5 -50l-34 -45q-86 61 -191 61q-79 0 -115 -27t-36 -68t41 -65t136 -43q95 -20 146 -43.5
t70.5 -53.5t19.5 -74q0 -45 -28 -82t-82 -58.5t-128 -21.5q-79 0 -149.5 25t-127.5 64zM316 860h66l136 -166l-32 -28l-134 141h-5l-134 -141l-31 28z" />
    <glyph glyph-name="Scedilla" unicode="&#x15e;" 
d="M593 97q-27 -45 -77 -73.5t-117 -35.5l-21 -64q41 -10 62 -28.5t21 -52.5q0 -92 -177 -101l-8 39q71 4 100 18.5t29 41.5q0 24 -21 37.5t-70 20.5l34 87q-79 2 -146 32.5t-117 82.5l43 47q45 -47 105 -73.5t128 -26.5q87 0 138 39t51 103q0 43 -18.5 70.5t-47 44
t-79.5 38.5l-114 51q-73 30 -120 73.5t-47 119.5q0 56 31 100.5t86 69.5t124 25q68 0 127.5 -26t100.5 -67l-38 -45q-79 76 -192 76q-76 0 -122.5 -35t-46.5 -93q0 -39 20.5 -66t48 -42t72.5 -34l113 -50q82 -34 127 -79t45 -124q0 -55 -27 -100z" />
    <glyph glyph-name="scedilla" unicode="&#x15f;" 
d="M580.5 69.5q-25.5 -35.5 -75 -58t-117.5 -25.5l-20 -62q41 -10 62 -28.5t21 -52.5q0 -92 -177 -101l-8 39q71 4 100 18.5t29 41.5q0 24 -21 37.5t-70 20.5l35 88q-132 8 -248 88l33 46q51 -39 111 -59.5t141 -20.5q77 0 119.5 29.5t42.5 73.5q0 27 -13.5 47t-54.5 38
t-122 34q-112 23 -167.5 61.5t-55.5 98.5q0 67 57.5 110t166.5 43q57 0 117.5 -20t102.5 -50l-34 -45q-86 61 -191 61q-79 0 -115 -27t-36 -68t41 -65t136 -43q95 -20 146 -43.5t70.5 -53.5t19.5 -74q0 -43 -25.5 -78.5z" />
    <glyph glyph-name="Scaron" unicode="&#x160;" 
d="M128 148q45 -47 105 -73.5t128 -26.5q87 0 138 39t51 103q0 43 -18.5 70.5t-47 44t-79.5 38.5l-114 51q-73 30 -120 73.5t-47 119.5q0 56 31 100.5t86 69.5t124 25q68 0 127.5 -26t100.5 -67l-38 -45q-79 76 -192 76q-76 0 -122.5 -35t-46.5 -93q0 -39 20.5 -66t48 -42
t72.5 -34l113 -50q82 -34 127 -79t45 -124q0 -60 -32.5 -108t-92 -75.5t-137.5 -27.5q-83 0 -152 30.5t-121 84.5zM234 982l130 -111h5l130 111l30 -24l-128 -132h-69l-128 132z" />
    <glyph glyph-name="scaron" unicode="&#x161;" 
d="M124 121q51 -39 111 -59.5t141 -20.5q77 0 119.5 29.5t42.5 73.5q0 27 -13.5 47t-54.5 38t-122 34q-112 23 -167.5 61.5t-55.5 98.5q0 67 57.5 110t166.5 43q57 0 117.5 -20t102.5 -50l-34 -45q-86 61 -191 61q-79 0 -115 -27t-36 -68t41 -65t136 -43q95 -20 146 -43.5
t70.5 -53.5t19.5 -74q0 -45 -28 -82t-82 -58.5t-128 -21.5q-79 0 -149.5 25t-127.5 64zM213 863l134 -141h5l134 141l32 -29l-136 -166h-66l-134 166z" />
    <glyph glyph-name="uni0162" unicode="&#x162;" 
d="M374 0l-24 -76q41 -10 62 -28.5t21 -52.5q0 -92 -177 -101l-8 39q71 4 100 18.5t29 41.5q0 24 -21 37.5t-70 20.5l40 101h-10v709h-263v59h593v-59h-262v-709h-10z" />
    <glyph glyph-name="uni0163" unicode="&#x163;" 
d="M522 -104.5q21 -18.5 21 -52.5q0 -92 -177 -101l-8 39q71 4 100 18.5t29 41.5q0 24 -21 37.5t-70 20.5l35 88q-95 9 -135 67t-40 159v293h-167v51l168 5l9 185h56v-185h291v-56h-291v-295q0 -86 33 -127t119 -41q77 0 144 28l17 -51q-79 -30 -155 -34l-20 -62
q41 -10 62 -28.5z" />
    <glyph glyph-name="Tcaron" unicode="&#x164;" 
d="M53 709v59h593v-59h-262v-709h-68v709h-263zM217 982l130 -111h5l130 111l30 -24l-128 -132h-69l-128 132z" />
    <glyph glyph-name="tcaron" unicode="&#x165;" 
d="M256 506h-167v51l168 5l9 185h56v-185h291v-56h-291v-295q0 -86 33 -127t119 -41q77 0 144 28l17 -51q-42 -17 -83 -25.5t-90 -8.5q-112 0 -159 59t-47 168v293zM532 950v-87l-12 -224h-47l-3 311h62z" />
    <glyph glyph-name="Tbar" unicode="&#x166;" 
d="M384 709v-287h168v-44h-168v-378h-68v378h-169v41l101 3h68v287h-263v59h593v-59h-262z" />
    <glyph glyph-name="tbar" unicode="&#x167;" 
d="M635 20q-42 -17 -83 -25.5t-90 -8.5q-112 0 -159 59t-47 168v60h-167v38l167 6v189h-167v51l168 5l9 185h56v-185h291v-56h-291v-189h268v-44h-268v-62q0 -86 33 -127t119 -41q77 0 144 28z" />
    <glyph glyph-name="Utilde" unicode="&#x168;" 
d="M99 768h69v-477q0 -129 50 -186t132 -57q83 0 133.5 57t50.5 186v477h65v-480q0 -160 -68.5 -231t-180.5 -71q-113 0 -182 71t-69 231v480zM221 899.5q-17 -22.5 -21 -61.5l-47 4q3 60 31.5 96.5t76.5 36.5q32 0 55 -13t51 -38q23 -20 37.5 -29t33.5 -9q24 0 40 22.5
t21 62.5l48 -4q-2 -60 -31 -96.5t-77 -36.5q-33 0 -56 13t-50 37q-23 20 -37.5 29t-33.5 9q-24 0 -41 -22.5z" />
    <glyph glyph-name="utilde" unicode="&#x169;" 
d="M97 562h67v-340q0 -91 35 -134t113 -43q55 0 100.5 28t100.5 91v398h67v-562h-55l-7 105h-4q-49 -57 -101.5 -88t-115.5 -31q-102 0 -151 56.5t-49 170.5v349zM213.5 753.5q-14.5 -27.5 -16.5 -74.5l-49 3q4 67 29.5 108.5t79.5 41.5q30 0 52 -15t50 -44q21 -23 36.5 -35
t35.5 -12q27 0 41.5 28.5t16.5 73.5l48 -3q-3 -66 -28 -108.5t-79 -42.5q-31 0 -53 15.5t-50 45.5q-23 24 -38 35t-33 11q-28 0 -42.5 -27.5z" />
    <glyph glyph-name="Umacron" unicode="&#x16a;" 
d="M99 768h69v-477q0 -129 50 -186t132 -57q83 0 133.5 57t50.5 186v477h65v-480q0 -160 -68.5 -231t-180.5 -71q-113 0 -182 71t-69 231v480zM499 913v-50h-297v50h297z" />
    <glyph glyph-name="umacron" unicode="&#x16b;" 
d="M97 562h67v-340q0 -91 35 -134t113 -43q55 0 100.5 28t100.5 91v398h67v-562h-55l-7 105h-4q-49 -57 -101.5 -88t-115.5 -31q-102 0 -151 56.5t-49 170.5v349zM490 755v-50h-295v50h295z" />
    <glyph glyph-name="Ubreve" unicode="&#x16c;" 
d="M99 768h69v-477q0 -129 50 -186t132 -57q83 0 133.5 57t50.5 186v477h65v-480q0 -160 -68.5 -231t-180.5 -71q-113 0 -182 71t-69 231v480zM233 980q6 -47 36 -77t81 -30t81 30t36 77l46 -8q-8 -61 -49 -103.5t-114 -42.5t-113.5 42.5t-48.5 103.5z" />
    <glyph glyph-name="ubreve" unicode="&#x16d;" 
d="M97 562h67v-340q0 -91 35 -134t113 -43q55 0 100.5 28t100.5 91v398h67v-562h-55l-7 105h-4q-49 -57 -101.5 -88t-115.5 -31q-102 0 -151 56.5t-49 170.5v349zM213 846q7 -54 40.5 -93.5t89.5 -39.5t89 39t42 94l46 -7q-7 -71 -50 -122.5t-127 -51.5q-83 0 -126 51.5
t-50 122.5z" />
    <glyph glyph-name="Uring" unicode="&#x16e;" 
d="M99 768h69v-477q0 -129 50 -186t132 -57q83 0 133.5 57t50.5 186v477h65v-480q0 -160 -68.5 -231t-180.5 -71q-113 0 -182 71t-69 231v480zM274 991q30 28 76 28q45 0 75.5 -28t30.5 -74q0 -45 -31 -73.5t-75 -28.5q-46 0 -76 28.5t-30 73.5q0 46 30 74zM395 966
q-18 18 -45 18q-28 0 -46.5 -18t-18.5 -49q0 -32 18.5 -49.5t46.5 -17.5q27 0 45 17.5t18 49.5q0 31 -18 49z" />
    <glyph glyph-name="uring" unicode="&#x16f;" 
d="M97 562h67v-340q0 -91 35 -134t113 -43q55 0 100.5 28t100.5 91v398h67v-562h-55l-7 105h-4q-49 -57 -101.5 -88t-115.5 -31q-102 0 -151 56.5t-49 170.5v349zM257.5 850.5q32.5 30.5 85.5 30.5t85.5 -30.5t32.5 -77.5t-32.5 -78t-85.5 -31t-85.5 31t-32.5 78t32.5 77.5z
M395 825.5q-21 21.5 -52 21.5t-51.5 -21.5t-20.5 -52.5q0 -32 20.5 -53t51.5 -21t52 21.5t21 52.5t-21 52.5z" />
    <glyph glyph-name="Uhungarumlaut" unicode="&#x170;" 
d="M99 768h69v-477q0 -129 50 -186t132 -57q83 0 133.5 57t50.5 186v477h65v-480q0 -160 -68.5 -231t-180.5 -71q-113 0 -182 71t-69 231v480zM330 1016l49 -29l-116 -163l-37 18zM505 1016l49 -29l-116 -163l-37 18z" />
    <glyph glyph-name="uhungarumlaut" unicode="&#x171;" 
d="M97 562h67v-340q0 -91 35 -134t113 -43q55 0 100.5 28t100.5 91v398h67v-562h-55l-7 105h-4q-49 -57 -101.5 -88t-115.5 -31q-102 0 -151 56.5t-49 170.5v349zM337 879l49 -26l-111 -189l-39 17zM499 879l50 -26l-111 -189l-39 17z" />
    <glyph glyph-name="Uogonek" unicode="&#x172;" 
d="M334 -14q-111 5 -173 79.5t-62 222.5v480h69v-477q0 -129 49.5 -186t131.5 -57q83 0 134 57t51 186v477h65v-480q0 -125 -40.5 -192t-124.5 -99q-64 -25 -94 -62.5t-30 -79.5q0 -32 20 -49t49 -17q34 0 62 28l26 -37q-44 -42 -99 -42q-52 0 -83 26.5t-31 77.5
q0 77 80 144z" />
    <glyph glyph-name="uogonek" unicode="&#x173;" 
d="M440 -71.5q30 38.5 85 72.5l-7 104h-4q-49 -57 -101.5 -88t-115.5 -31q-102 0 -151 56.5t-49 170.5v349h67v-340q0 -91 35 -134t113 -43q55 0 100.5 28t100.5 91v398h67v-569q-116 -59 -116 -138q0 -33 21 -51t51 -18q34 0 64 28l24 -34q-20 -20 -44 -31t-56 -11
q-50 0 -82 27t-32 78q0 47 30 85.5z" />
    <glyph glyph-name="Wcircumflex" unicode="&#x174;" 
d="M81 768l75 -510q3 -31 11 -93t11 -93h3q36 124 52 186l91 311h56l92 -311l38 -143l12 -43h5q8 74 13 112l9 74l72 510h63l-119 -768h-80l-101 352q-12 43 -21 87l-11 49h-3q-5 -21 -7 -28q-12 -54 -27 -108l-98 -352h-79l-124 768h67zM315 978h69l128 -132l-30 -25
l-130 112h-5l-130 -112l-30 25z" />
    <glyph glyph-name="wcircumflex" unicode="&#x175;" 
d="M82 562l82 -350l13 -59q14 -62 20 -94h4q12 59 36 153l82 332h65l84 -332l36 -153h4q20 85 34 153l80 350h66l-136 -562h-84l-80 324l-12 57q-5 19 -10.5 45.5t-13.5 58.5h-5q-22 -114 -34 -163l-79 -322h-83l-139 562h70zM316 860h66l136 -166l-32 -28l-134 141h-5
l-134 -141l-31 28z" />
    <glyph glyph-name="Ycircumflex" unicode="&#x176;" 
d="M54 768h72l128 -245q6 -11 51 -95q24 -47 45 -86h4q45 83 97 181l125 245h69l-261 -489v-279h-69v279zM315 978h69l128 -132l-30 -25l-130 112h-5l-130 -112l-30 25z" />
    <glyph glyph-name="ycircumflex" unicode="&#x177;" 
d="M94 -184q27 -9 54 -9q112 0 169 140l18 46l-269 569h68l155 -339l15 -34l59 -126h4q18 41 52 127l13 33l138 339h64l-258 -624q-31 -85 -87 -137t-141 -52q-18 0 -37.5 3.5t-32.5 8.5zM318 860h66l136 -166l-32 -28l-134 141h-5l-134 -141l-31 28z" />
    <glyph glyph-name="Ydieresis" unicode="&#x178;" 
d="M54 768h72l128 -245q6 -11 51 -95q24 -47 45 -86h4q45 83 97 181l125 245h69l-261 -489v-279h-69v279zM216.5 925q13.5 13 34.5 13t35 -13.5t14 -34.5q0 -22 -14 -35.5t-35 -13.5t-34.5 13.5t-13.5 35.5t13.5 35zM412.5 925q13.5 13 34.5 13t35 -13.5t14 -34.5
q0 -22 -14 -35.5t-35 -13.5t-34.5 13.5t-13.5 35.5t13.5 35z" />
    <glyph glyph-name="Zacute" unicode="&#x179;" 
d="M535 710h-416v58h499v-41l-456 -668h463v-59h-545v41zM461 999l42 -47l-163 -132l-30 35z" />
    <glyph glyph-name="zacute" unicode="&#x17a;" 
d="M505 506h-375v56h473v-35l-421 -470h434v-57h-532v36zM466 889l48 -47l-172 -176l-36 34z" />
    <glyph glyph-name="Zdotaccent" unicode="&#x17b;" 
d="M535 710h-416v58h499v-41l-456 -668h463v-59h-545v41zM331 931q16 15 39 15t39 -15t16 -38q0 -24 -15.5 -39.5t-39.5 -15.5q-23 0 -39 15.5t-16 39.5q0 23 16 38z" />
    <glyph glyph-name="zdotaccent" unicode="&#x17c;" 
d="M505 506h-375v56h473v-35l-421 -470h434v-57h-532v36zM329 799.5q18 17.5 45 17.5q26 0 43.5 -17.5t17.5 -44.5q0 -28 -17.5 -45t-43.5 -17q-28 0 -45.5 16.5t-17.5 45.5q0 27 18 44.5z" />
    <glyph glyph-name="Zcaron" unicode="&#x17d;" 
d="M535 710h-416v58h499v-41l-456 -668h463v-59h-545v41zM237 982l130 -111h5l130 111l30 -24l-128 -132h-69l-128 132z" />
    <glyph glyph-name="zcaron" unicode="&#x17e;" 
d="M505 506h-375v56h473v-35l-421 -470h434v-57h-532v36zM237 863l134 -141h5l134 141l32 -29l-136 -166h-66l-134 166z" />
    <glyph glyph-name="longs" unicode="&#x17f;" 
d="M671 816l-19 -51q-35 17 -64.5 22.5t-70.5 5.5q-81 0 -118.5 -43.5t-37.5 -122.5v-627h-65v506h-166v51l166 5v61q0 108 54.5 167.5t161.5 59.5q83 0 159 -34z" />
    <glyph glyph-name="uni0180" unicode="&#x180;" 
d="M564 479.5q61 -73.5 61 -201.5q0 -89 -35.5 -155.5t-95 -101.5t-128.5 -35q-43 0 -93 21t-90 56h-4l-6 -63h-55v673h-88v40l88 5v118h67v-118h260v-45h-261v-100l-2 -115h2q43 43 97.5 69t106.5 26q115 0 176 -73.5zM459 73q45 29 70.5 82t25.5 122q0 100 -44 159
t-136 59q-43 0 -92.5 -24t-97.5 -72v-279q42 -38 89.5 -57t83.5 -19q56 0 101 29z" />
    <glyph glyph-name="uni018A" unicode="&#x18a;" 
d="M569.5 681q85.5 -101 85.5 -286q0 -122 -36 -210.5t-105.5 -136.5t-167.5 -48h-86v720q-78 -11 -120 -63.5t-42 -129.5q0 -60 23.5 -99.5t73.5 -68.5l-31 -49q-62 31 -94 83.5t-32 131.5q0 117 69.5 187t201.5 70q175 0 260.5 -101zM530.5 147.5q58.5 89.5 58.5 247.5
q0 321 -265 327v-664h32q116 0 174.5 89.5z" />
    <glyph glyph-name="uni018F" unicode="&#x18f;" 
d="M505 734q64 -48 98 -137t34 -211q0 -120 -36 -211t-101.5 -140t-150.5 -49q-84 0 -146.5 50t-96 140t-33.5 207q0 10 1 15h495q-2 152 -58.5 238t-160.5 86q-47 0 -89 -19.5t-74 -53.5l-34 46q36 40 86.5 63.5t112.5 23.5q89 0 153 -48zM501.5 124.5
q58.5 78.5 66.5 218.5h-427q7 -142 62 -219.5t146 -77.5q94 0 152.5 78.5z" />
    <glyph glyph-name="florin" unicode="&#x192;" 
d="M427.5 674.5q-30.5 -49.5 -37.5 -125.5l-8 -75h177v-55h-184l-33 -297q-14 -116 -58 -176t-134 -60q-48 1 -91 22l16 52q21 -9 37.5 -13.5t34.5 -4.5q62 1 91.5 49t40.5 140l31 288h-128v49l79 6h55l8 70q14 117 59 177.5t132 60.5q55 0 103 -25l-20 -52q-35 19 -82 19
q-58 0 -88.5 -49.5z" />
    <glyph glyph-name="uni0193" unicode="&#x193;" 
d="M678 916l-14 -53q-3 1 -15.5 6t-27.5 5q-30 0 -46.5 -18.5t-16.5 -46.5q0 -31 10 -53.5t39 -66.5l-41 -45q-31 35 -71 55.5t-95 20.5q-80 0 -139 -40.5t-91 -116t-32 -177.5q0 -103 30.5 -179t88.5 -117.5t138 -41.5q48 0 89 14t65 39v225h-168v58h234v-311
q-38 -40 -96 -63.5t-129 -23.5q-95 0 -168.5 48.5t-114.5 138.5t-41 211t42 211t117.5 138.5t174.5 48.5q59 0 110 -23q-12 32 -12 62q0 50 33 79.5t84 29.5q29 0 63 -14z" />
    <glyph glyph-name="Ohorn" unicode="&#x1a0;" 
d="M608.5 578.5q30.5 -83.5 30.5 -192.5q0 -121 -37 -211.5t-102.5 -139.5t-149.5 -49q-85 0 -150.5 49t-102.5 139.5t-37 211.5t37 210.5t102.5 137.5t150.5 48q71 0 130 -35q97 21 97 102q0 36 -16 64l56 26q24 -40 24 -85q0 -53 -30.5 -88.5t-86.5 -52.5
q54 -51 84.5 -134.5zM464 89.5q49 41.5 76.5 118t27.5 178.5t-27 177.5t-76.5 116t-114.5 40.5t-114.5 -40.5t-76.5 -116t-27 -177.5t27.5 -178.5t76.5 -118t114 -41.5t114 41.5z" />
    <glyph glyph-name="ohorn" unicode="&#x1a1;" 
d="M596.5 421.5q28.5 -61.5 28.5 -140.5q0 -91 -37 -157.5t-100 -102t-138 -35.5t-137.5 35.5t-99.5 102.5t-37 157t37 157t99.5 102.5t137.5 35.5q64 0 116 -24q109 20 109 115q0 35 -17 64l54 28q24 -42 24 -87q0 -111 -119 -151q51 -38 79.5 -99.5zM456.5 73.5
q46.5 29.5 72.5 83.5t26 124q0 69 -26 123t-73 84.5t-106 30.5t-106 -30.5t-73 -84.5t-26 -123q0 -70 26 -124t72.5 -83.5t106.5 -29.5t106.5 29.5z" />
    <glyph glyph-name="Uhorn" unicode="&#x1af;" 
d="M599 733v-445q0 -160 -68.5 -231t-180.5 -71q-113 0 -182 71t-69 231v480h69v-477q0 -129 50 -186t132 -57q83 0 133.5 57t50.5 186v477h21q54 7 78 30t24 69q0 33 -16 65l56 26q24 -42 24 -85q0 -110 -122 -140z" />
    <glyph glyph-name="uhorn" unicode="&#x1b0;" 
d="M580 534v-534h-55l-7 105h-4q-49 -57 -101.5 -88t-115.5 -31q-102 0 -151 56.5t-49 170.5v349h67v-340q0 -91 35 -134t113 -43q55 0 100.5 28t100.5 91v398h12q47 9 73 36t26 79q0 37 -17 64l55 27q24 -42 24 -87q0 -110 -106 -147z" />
    <glyph glyph-name="uni01C2" unicode="&#x1c2;" 
d="M382 387v-143h210v-45h-210v-448h-65v448h-209v39l209 6v143h-209v39l209 5v405h65v-405h210v-44h-210z" />
    <glyph glyph-name="uni01CD" unicode="&#x1cd;" 
d="M497 253h-296l-84 -253h-70l266 768h73l267 -768h-73zM478 310l-44 134q-56 165 -83 263h-5q-26 -96 -73 -238l-8 -25l-45 -134h258zM217 982l130 -111h5l130 111l30 -24l-128 -132h-69l-128 132z" />
    <glyph glyph-name="uni01CE" unicode="&#x1ce;" 
d="M146.5 247q43.5 42 135.5 67.5t244 38.5q-1 74 -38.5 120.5t-122.5 46.5q-55 0 -109 -21.5t-98 -52.5l-29 47q46 32 112 57.5t134 25.5q109 0 163.5 -61t54.5 -161v-354h-56l-6 81h-3q-53 -42 -113 -68.5t-117 -26.5q-82 0 -138.5 41t-56.5 115q0 63 43.5 105zM525 306
q-133 -12 -211 -33t-111.5 -52t-33.5 -75q0 -53 41 -78.5t101 -25.5q101 0 214 95v169zM236 863l134 -141h5l134 141l32 -29l-136 -166h-66l-134 166z" />
    <glyph glyph-name="uni01CF" unicode="&#x1cf;" 
d="M316 59v650h-195v59h459v-59h-196v-650h196v-59h-459v59h195zM217 982l130 -111h5l130 111l30 -24l-128 -132h-69l-128 132z" />
    <glyph glyph-name="uni01D0" unicode="&#x1d0;" 
d="M126 506v56h340v-562h-66v506h-274zM285 863l134 -141h5l134 141l32 -29l-136 -166h-66l-134 166z" />
    <glyph glyph-name="uni01D1" unicode="&#x1d1;" 
d="M97 596.5q37 89.5 102.5 137.5t150.5 48q84 0 149.5 -48t102.5 -137.5t37 -210.5t-37 -211.5t-102.5 -139.5t-149.5 -49q-85 0 -150.5 49t-102.5 139.5t-37 211.5t37 210.5zM541 563.5q-27 75.5 -76.5 116t-114.5 40.5t-114.5 -40.5t-76.5 -116t-27 -177.5t27.5 -178.5
t76.5 -118t114 -41.5t114 41.5t76.5 118t27.5 178.5t-27 177.5zM217 982l130 -111h5l130 111l30 -24l-128 -132h-69l-128 132z" />
    <glyph glyph-name="uni01D2" unicode="&#x1d2;" 
d="M113 438q37 67 99.5 102.5t137.5 35.5t138 -35.5t100 -102t37 -157.5t-37 -157.5t-100 -102t-138 -35.5t-137.5 35.5t-99.5 102.5t-37 157t37 157zM529 404q-26 54 -73 84.5t-106 30.5t-106 -30.5t-73 -84.5t-26 -123q0 -70 26 -124t72.5 -83.5t106.5 -29.5t106.5 29.5
t72.5 83.5t26 124q0 69 -26 123zM213 863l134 -141h5l134 141l32 -29l-136 -166h-66l-134 166z" />
    <glyph glyph-name="uni01D3" unicode="&#x1d3;" 
d="M99 768h69v-477q0 -129 50 -186t132 -57q83 0 133.5 57t50.5 186v477h65v-480q0 -160 -68.5 -231t-180.5 -71q-113 0 -182 71t-69 231v480zM217 982l130 -111h5l130 111l30 -24l-128 -132h-69l-128 132z" />
    <glyph glyph-name="uni01D4" unicode="&#x1d4;" 
d="M97 562h67v-340q0 -91 35 -134t113 -43q55 0 100.5 28t100.5 91v398h67v-562h-55l-7 105h-4q-49 -57 -101.5 -88t-115.5 -31q-102 0 -151 56.5t-49 170.5v349zM206 863l134 -141h5l134 141l32 -29l-136 -166h-66l-134 166z" />
    <glyph glyph-name="uni01D5" unicode="&#x1d5;" 
d="M99 768h69v-477q0 -129 50 -186t132 -57q83 0 133.5 57t50.5 186v477h65v-480q0 -160 -68.5 -231t-180.5 -71q-113 0 -182 71t-69 231v480zM499 1043v-45h-297v45h297zM201.5 919.5q12.5 12.5 32.5 12.5t32.5 -12.5t12.5 -33.5q0 -20 -12.5 -32.5t-32.5 -12.5t-32.5 12.5
t-12.5 32.5q0 21 12.5 33.5zM433 919.5q13 12.5 33 12.5t32.5 -12.5t12.5 -33.5q0 -20 -12.5 -32.5t-32.5 -12.5t-33 12.5t-13 32.5q0 21 13 33.5z" />
    <glyph glyph-name="uni01D6" unicode="&#x1d6;" 
d="M97 562h67v-340q0 -91 35 -134t113 -43q55 0 100.5 28t100.5 91v398h67v-562h-55l-7 105h-4q-49 -57 -101.5 -88t-115.5 -31q-102 0 -151 56.5t-49 170.5v349zM491 916v-43h-297v43h297zM204.5 771.5q13.5 13.5 32.5 13.5t32 -13.5t13 -32.5t-12.5 -32t-32.5 -13t-33 13
t-13 32t13.5 32.5zM417 771.5q13 13.5 32 13.5t32 -13.5t13 -32.5t-12.5 -32t-32.5 -13q-19 0 -32 13t-13 32t13 32.5z" />
    <glyph glyph-name="uni01D7" unicode="&#x1d7;" 
d="M99 768h69v-477q0 -129 50 -186t132 -57q83 0 133.5 57t50.5 186v477h65v-480q0 -160 -68.5 -231t-180.5 -71q-113 0 -182 71t-69 231v480zM423 1111l45 -33l-123 -119l-31 24zM201.5 919.5q12.5 12.5 32.5 12.5t32.5 -12.5t12.5 -33.5q0 -20 -12.5 -32.5t-32.5 -12.5
t-32.5 12.5t-12.5 32.5q0 21 12.5 33.5zM433 919.5q13 12.5 33 12.5t32.5 -12.5t12.5 -33.5q0 -20 -12.5 -32.5t-32.5 -12.5t-33 12.5t-13 32.5q0 21 13 33.5z" />
    <glyph glyph-name="uni01D8" unicode="&#x1d8;" 
d="M97 562h67v-340q0 -91 35 -134t113 -43q55 0 100.5 28t100.5 91v398h67v-562h-55l-7 105h-4q-49 -57 -101.5 -88t-115.5 -31q-102 0 -151 56.5t-49 170.5v349zM395 967l43 -31l-110 -118l-31 24zM204.5 771.5q13.5 13.5 32.5 13.5t32 -13.5t13 -32.5t-12.5 -32t-32.5 -13
t-33 13t-13 32t13.5 32.5zM417 771.5q13 13.5 32 13.5t32 -13.5t13 -32.5t-12.5 -32t-32.5 -13q-19 0 -32 13t-13 32t13 32.5z" />
    <glyph glyph-name="uni01D9" unicode="&#x1d9;" 
d="M99 768h69v-477q0 -129 50 -186t132 -57q83 0 133.5 57t50.5 186v477h65v-480q0 -160 -68.5 -231t-180.5 -71q-113 0 -182 71t-69 231v480zM229 1107l118 -89h5l119 89l29 -27l-120 -109h-60l-119 109zM201.5 919.5q12.5 12.5 32.5 12.5t32.5 -12.5t12.5 -33.5
q0 -20 -12.5 -32.5t-32.5 -12.5t-32.5 12.5t-12.5 32.5q0 21 12.5 33.5zM433 919.5q13 12.5 33 12.5t32.5 -12.5t12.5 -33.5q0 -20 -12.5 -32.5t-32.5 -12.5t-33 12.5t-13 32.5q0 21 13 33.5z" />
    <glyph glyph-name="uni01DA" unicode="&#x1da;" 
d="M97 562h67v-340q0 -91 35 -134t113 -43q55 0 100.5 28t100.5 91v398h67v-562h-55l-7 105h-4q-49 -57 -101.5 -88t-115.5 -31q-102 0 -151 56.5t-49 170.5v349zM231 965l109 -89h5l109 89l28 -26l-111 -107h-57l-110 107zM204.5 771.5q13.5 13.5 32.5 13.5t32 -13.5
t13 -32.5t-12.5 -32t-32.5 -13t-33 13t-13 32t13.5 32.5zM417 771.5q13 13.5 32 13.5t32 -13.5t13 -32.5t-12.5 -32t-32.5 -13q-19 0 -32 13t-13 32t13 32.5z" />
    <glyph glyph-name="uni01DB" unicode="&#x1db;" 
d="M99 768h69v-477q0 -129 50 -186t132 -57q83 0 133.5 57t50.5 186v477h65v-480q0 -160 -68.5 -231t-180.5 -71q-113 0 -182 71t-69 231v480zM276 1111l110 -128l-32 -24l-122 119zM201.5 919.5q12.5 12.5 32.5 12.5t32.5 -12.5t12.5 -33.5q0 -20 -12.5 -32.5t-32.5 -12.5
t-32.5 12.5t-12.5 32.5q0 21 12.5 33.5zM433 919.5q13 12.5 33 12.5t32.5 -12.5t12.5 -33.5q0 -20 -12.5 -32.5t-32.5 -12.5t-33 12.5t-13 32.5q0 21 13 33.5z" />
    <glyph glyph-name="uni01DC" unicode="&#x1dc;" 
d="M97 562h67v-340q0 -91 35 -134t113 -43q55 0 100.5 28t100.5 91v398h67v-562h-55l-7 105h-4q-49 -57 -101.5 -88t-115.5 -31q-102 0 -151 56.5t-49 170.5v349zM290 967l99 -125l-32 -24l-109 118zM204.5 771.5q13.5 13.5 32.5 13.5t32 -13.5t13 -32.5t-12.5 -32
t-32.5 -13t-33 13t-13 32t13.5 32.5zM417 771.5q13 13.5 32 13.5t32 -13.5t13 -32.5t-12.5 -32t-32.5 -13q-19 0 -32 13t-13 32t13 32.5z" />
    <glyph glyph-name="uni01E2" unicode="&#x1e2;" 
d="M688 59v-59h-316v243h-198l-101 -243h-74l329 768h348v-59h-239v-273h184v-59h-184v-318h251zM372 299v412h-4q-38 -94 -58 -140l-51 -122l-62 -150h175zM653 913v-50h-297v50h297z" />
    <glyph glyph-name="uni01E3" unicode="&#x1e3;" 
d="M694 269h-318q2 -105 43 -165.5t116 -60.5q64 0 120 39l26 -47q-69 -49 -148 -49q-58 0 -101.5 28t-71.5 80q-91 -108 -192 -108q-65 0 -106 40t-41 110q0 86 71 138.5t228 72.5q-1 91 -30.5 132t-83.5 41q-34 0 -72.5 -14.5t-67.5 -35.5l-26 47q93 59 173 59
q110 0 145 -128q27 64 72 96t98 32q82 0 126 -72t44 -179q0 -28 -4 -56zM425.5 471.5q-41.5 -49.5 -48.5 -153.5h264q-2 102 -30.5 152.5t-86.5 50.5q-57 0 -98.5 -49.5zM266 67.5q43 25.5 75 70.5q-21 62 -21 140v21q-132 -19 -183.5 -57t-51.5 -101q0 -47 27 -73t71 -26
q40 0 83 25.5zM517 755v-50h-295v50h295z" />
    <glyph glyph-name="Gcaron" unicode="&#x1e6;" 
d="M108 595q42 90 117.5 138.5t174.5 48.5q68 0 118 -26t89 -67l-41 -45q-31 35 -71 55.5t-95 20.5q-80 0 -139 -40.5t-91 -116t-32 -177.5q0 -103 30.5 -179t88.5 -117.5t138 -41.5q48 0 89 14t65 39v225h-168v58h234v-311q-38 -40 -96 -63.5t-129 -23.5q-95 0 -168.5 48.5
t-114.5 138.5t-41 211t42 211zM252 982l130 -111h5l130 111l30 -24l-128 -132h-69l-128 132z" />
    <glyph glyph-name="gcaron" unicode="&#x1e7;" 
d="M117.5 -38q24.5 35 69.5 62v4q-25 13 -41.5 35.5t-16.5 55.5q0 28 18 56.5t50 49.5v5q-68 55 -68 145q0 58 29 103.5t77.5 71.5t106.5 26q48 0 80 -14h233v-54h-163q27 -26 44 -60.5t17 -73.5q0 -57 -28 -101.5t-76.5 -69.5t-106.5 -25q-48 0 -102 24q-24 -14 -37.5 -33
t-13.5 -40q0 -37 32.5 -55t92.5 -18h135q109 0 158 -30t49 -99q0 -51 -37.5 -95.5t-106.5 -71.5t-158 -27q-125 0 -193 43t-68 118q0 33 24.5 68zM469.5 452.5q-19.5 34.5 -53.5 53.5t-74 19t-74 -19t-53.5 -53.5t-19.5 -77.5t19.5 -76.5t53.5 -52t74 -18.5t74 18.5t53.5 52
t19.5 76.5t-19.5 77.5zM556 -21.5q-34 17.5 -107 17.5h-125q-49 0 -86 10q-84 -45 -84 -109q0 -51 52 -82t149 -31q70 0 123.5 19.5t82.5 50t29 64.5q0 43 -34 60.5zM223 863l134 -141h5l134 141l32 -29l-136 -166h-66l-134 166z" />
    <glyph glyph-name="uni01EA" unicode="&#x1ea;" 
d="M277 -80.5q23 34.5 63 66.5q-88 5 -151 57.5t-96 141.5t-33 201q0 120 37 209.5t102.5 138t150.5 48.5q84 0 149.5 -48.5t102.5 -138t37 -209.5q0 -149 -54.5 -247.5t-159.5 -143.5q-54 -23 -84.5 -61.5t-30.5 -78.5q0 -32 20 -49t49 -17q35 0 63 28l25 -37
q-44 -42 -99 -42q-51 0 -82.5 26.5t-31.5 77.5q0 43 23 77.5zM541 563.5q-27 75.5 -76.5 116t-114.5 40.5t-114.5 -40.5t-76.5 -116t-27 -177.5q0 -103 27 -180t76.5 -118t114.5 -41t114.5 41t76.5 118t27 180q0 102 -27 177.5z" />
    <glyph glyph-name="uni01EB" unicode="&#x1eb;" 
d="M349 -13q-80 1 -142 37.5t-96.5 102.5t-34.5 154q0 90 37 157t99.5 102.5t137.5 35.5t138 -35.5t100 -102t37 -157.5q0 -113 -51 -178.5t-148 -107.5q-47 -20 -76 -60t-29 -80q0 -33 21 -51t50 -18q37 0 65 28l24 -34q-42 -42 -101 -42q-50 0 -81.5 27t-31.5 78
q0 79 82 144zM529 404q-26 54 -73 84.5t-106 30.5t-106 -30.5t-73 -84.5t-26 -123q0 -70 26 -124.5t72.5 -84t106.5 -29.5t106.5 29.5t72.5 84t26 124.5q0 69 -26 123z" />
    <glyph glyph-name="uni01F4" unicode="&#x1f4;" 
d="M108 595q42 90 117.5 138.5t174.5 48.5q68 0 118 -26t89 -67l-41 -45q-31 35 -71 55.5t-95 20.5q-80 0 -139 -40.5t-91 -116t-32 -177.5q0 -103 30.5 -179t88.5 -117.5t138 -41.5q48 0 89 14t65 39v225h-168v58h234v-311q-38 -40 -96 -63.5t-129 -23.5q-95 0 -168.5 48.5
t-114.5 138.5t-41 211t42 211zM476 999l42 -47l-163 -132l-30 35z" />
    <glyph glyph-name="uni01F5" unicode="&#x1f5;" 
d="M117.5 -38q24.5 35 69.5 62v4q-25 13 -41.5 35.5t-16.5 55.5q0 28 18 56.5t50 49.5v5q-68 55 -68 145q0 58 29 103.5t77.5 71.5t106.5 26q48 0 80 -14h233v-54h-163q27 -26 44 -60.5t17 -73.5q0 -57 -28 -101.5t-76.5 -69.5t-106.5 -25q-48 0 -102 24q-24 -14 -37.5 -33
t-13.5 -40q0 -37 32.5 -55t92.5 -18h135q109 0 158 -30t49 -99q0 -51 -37.5 -95.5t-106.5 -71.5t-158 -27q-125 0 -193 43t-68 118q0 33 24.5 68zM469.5 452.5q-19.5 34.5 -53.5 53.5t-74 19t-74 -19t-53.5 -53.5t-19.5 -77.5t19.5 -76.5t53.5 -52t74 -18.5t74 18.5t53.5 52
t19.5 76.5t-19.5 77.5zM556 -21.5q-34 17.5 -107 17.5h-125q-49 0 -86 10q-84 -45 -84 -109q0 -51 52 -82t149 -31q70 0 123.5 19.5t82.5 50t29 64.5q0 43 -34 60.5zM452 889l48 -47l-172 -176l-36 34z" />
    <glyph glyph-name="uni01F8" unicode="&#x1f8;" 
d="M174 768l283 -523l80 -153h3l-3 72q-6 104 -6 157v447h65v-768h-70l-282 523l-81 153h-3l4 -95q5 -72 5 -131v-450h-65v768h70zM269 999l153 -144l-31 -35l-162 132z" />
    <glyph glyph-name="uni01F9" unicode="&#x1f9;" 
d="M174 562l6 -104h5q52 57 104 87.5t115 30.5q100 0 149.5 -56.5t49.5 -170.5v-349h-67v341q0 90 -35 133t-113 43q-53 0 -97.5 -27t-105.5 -91v-399h-67v562h56zM281 889l159 -189l-36 -34l-172 176z" />
    <glyph glyph-name="Aringacute" unicode="&#x1fa;" 
d="M274 843.5q-30 28.5 -30 73.5q0 29 12 51t34 35l142 107l32 -43l-89 -50q36 -8 58.5 -34.5t22.5 -65.5q0 -45 -31 -73.5t-75 -28.5q-46 0 -76 28.5zM395 966q-18 18 -45 18q-28 0 -46.5 -18t-18.5 -49q0 -32 18.5 -49.5t46.5 -17.5q27 0 45 17.5t18 49.5q0 31 -18 49z
M497 253h-296l-84 -253h-70l266 768h73l267 -768h-73zM478 310l-44 134q-56 165 -83 263h-5q-26 -96 -73 -238l-8 -25l-45 -134h258z" />
    <glyph glyph-name="aringacute" unicode="&#x1fb;" 
d="M287.5 695q-32.5 31 -32.5 78q0 30 14 54.5t39 37.5l147 102l31 -48l-84 -41q41 -7 65 -36t24 -69q0 -47 -32.5 -78t-85.5 -31t-85.5 31zM425 825.5q-21 21.5 -52 21.5t-51.5 -21.5t-20.5 -52.5q0 -32 20.5 -53t51.5 -21t52 21.5t21 52.5t-21 52.5zM538.5 515
q54.5 -61 54.5 -161v-354h-56l-6 81h-3q-53 -42 -113 -68.5t-117 -26.5q-82 0 -138.5 41t-56.5 115q0 63 43.5 105t135.5 67.5t244 38.5q-1 74 -38.5 120.5t-122.5 46.5q-55 0 -109 -21.5t-98 -52.5l-29 47q46 32 112 57.5t134 25.5q109 0 163.5 -61zM525 306
q-133 -12 -211 -33t-111.5 -52t-33.5 -75q0 -53 41 -78.5t101 -25.5q101 0 214 95v169z" />
    <glyph glyph-name="AEacute" unicode="&#x1fc;" 
d="M688 59v-59h-316v243h-198l-101 -243h-74l329 768h348v-59h-239v-273h184v-59h-184v-318h251zM372 299v412h-4q-38 -94 -58 -140l-51 -122l-62 -150h175zM595 999l42 -47l-163 -132l-30 35z" />
    <glyph glyph-name="aeacute" unicode="&#x1fd;" 
d="M694 269h-318q2 -105 43 -165.5t116 -60.5q64 0 120 39l26 -47q-69 -49 -148 -49q-58 0 -101.5 28t-71.5 80q-91 -108 -192 -108q-65 0 -106 40t-41 110q0 86 71 138.5t228 72.5q-1 91 -30.5 132t-83.5 41q-34 0 -72.5 -14.5t-67.5 -35.5l-26 47q93 59 173 59
q110 0 145 -128q27 64 72 96t98 32q82 0 126 -72t44 -179q0 -28 -4 -56zM425.5 471.5q-41.5 -49.5 -48.5 -153.5h264q-2 102 -30.5 152.5t-86.5 50.5q-57 0 -98.5 -49.5zM266 67.5q43 25.5 75 70.5q-21 62 -21 140v21q-132 -19 -183.5 -57t-51.5 -101q0 -47 27 -73t71 -26
q40 0 83 25.5zM462 889l48 -47l-172 -176l-36 34z" />
    <glyph glyph-name="Oslashacute" unicode="&#x1fe;" 
d="M567 662q72 -105 72 -276q0 -121 -37 -211.5t-102.5 -139.5t-149.5 -49q-54 0 -102 21t-85 60l-65 -96l-40 28l74 109q-35 52 -53.5 122.5t-18.5 155.5q0 121 37 210.5t102.5 137.5t150.5 48q54 0 101 -20.5t84 -58.5l63 94l41 -29zM174 171l322 476q-57 73 -146 73
q-65 0 -114.5 -40.5t-76.5 -116t-27 -177.5q0 -128 42 -215zM525 600l-323 -475q29 -38 66.5 -57.5t81.5 -19.5q65 0 114 41.5t76.5 118t27.5 178.5q0 130 -43 214zM441 999l42 -47l-163 -132l-30 35z" />
    <glyph glyph-name="oslashacute" unicode="&#x1ff;" 
d="M625 281q0 -91 -37 -157.5t-100 -102t-138 -35.5q-99 0 -173 60l-63 -73l-34 28l65 76q-33 39 -51 90.5t-18 113.5q0 90 37 157t99.5 102.5t137.5 35.5q49 0 93.5 -15.5t80.5 -44.5l62 72l35 -28l-65 -75q69 -80 69 -204zM188 127l295 342q-55 52 -133 52
q-59 0 -106 -30.5t-73 -85.5t-26 -124q0 -90 43 -154zM456 72q47 30 73 84.5t26 124.5q0 88 -43 153l-295 -341q54 -51 133 -51q59 0 106 30zM442 889l48 -47l-172 -176l-36 34z" />
    <glyph glyph-name="Scommaaccent" unicode="&#x218;" 
d="M128 148q45 -47 105 -73.5t128 -26.5q87 0 138 39t51 103q0 43 -18.5 70.5t-47 44t-79.5 38.5l-114 51q-73 30 -120 73.5t-47 119.5q0 56 31 100.5t86 69.5t124 25q68 0 127.5 -26t100.5 -67l-38 -45q-79 76 -192 76q-76 0 -122.5 -35t-46.5 -93q0 -39 20.5 -66t48 -42
t72.5 -34l113 -50q82 -34 127 -79t45 -124q0 -60 -32.5 -108t-92 -75.5t-137.5 -27.5q-83 0 -152 30.5t-121 84.5zM367 -200.5q29 14.5 29 40.5q0 25 -22 37t-65 15l17 39q70 -11 98 -30.5t28 -57.5q0 -92 -177 -101l-8 39q71 4 100 18.5z" />
    <glyph glyph-name="scommaaccent" unicode="&#x219;" 
d="M124 121q51 -39 111 -59.5t141 -20.5q77 0 119.5 29.5t42.5 73.5q0 27 -13.5 47t-54.5 38t-122 34q-112 23 -167.5 61.5t-55.5 98.5q0 67 57.5 110t166.5 43q57 0 117.5 -20t102.5 -50l-34 -45q-86 61 -191 61q-79 0 -115 -27t-36 -68t41 -65t136 -43q95 -20 146 -43.5
t70.5 -53.5t19.5 -74q0 -45 -28 -82t-82 -58.5t-128 -21.5q-79 0 -149.5 25t-127.5 64zM359 -200.5q29 14.5 29 40.5q0 25 -22 37t-65 15l17 39q70 -11 98 -30.5t28 -57.5q0 -92 -177 -101l-8 39q71 4 100 18.5z" />
    <glyph glyph-name="uni021A" unicode="&#x21a;" 
d="M53 709v59h593v-59h-262v-709h-68v709h-263zM348 -200.5q29 14.5 29 40.5q0 25 -22 37t-65 15l17 39q70 -11 98 -30.5t28 -57.5q0 -92 -177 -101l-8 39q71 4 100 18.5z" />
    <glyph glyph-name="uni021B" unicode="&#x21b;" 
d="M256 506h-167v51l168 5l9 185h56v-185h291v-56h-291v-295q0 -86 33 -127t119 -41q77 0 144 28l17 -51q-42 -17 -83 -25.5t-90 -8.5q-112 0 -159 59t-47 168v293zM446 -200.5q29 14.5 29 40.5q0 25 -22 37t-65 15l17 39q70 -11 98 -30.5t28 -57.5q0 -92 -177 -101l-8 39
q71 4 100 18.5z" />
    <glyph glyph-name="uni0237" unicode="&#x237;" 
d="M94 -173q30 -15 65.5 -24t68.5 -9q88 0 122 42t34 124v546h-273v56h340v-595q0 -111 -51.5 -170.5t-173.5 -59.5q-40 0 -81 10.5t-75 27.5z" />
    <glyph glyph-name="uni0243" unicode="&#x243;" 
d="M583 352.5q47 -47.5 47 -126.5q0 -111 -75 -168.5t-210 -57.5h-215v207h-90v39l90 5v517h199q122 0 188.5 -46t66.5 -140q0 -60 -34.5 -103.5t-100.5 -60.5v-5q87 -13 134 -60.5zM199 435h112q109 0 157.5 35t48.5 107q0 73 -48.5 105t-152.5 32h-117v-279zM562 228
q0 79 -58.5 118.5t-171.5 39.5h-133v-135h183v-44h-183v-153h133q230 0 230 174z" />
    <glyph glyph-name="uni0250" unicode="&#x250;" 
d="M120 562h56l6 -81h3q52 42 112 68.5t118 26.5q82 0 138.5 -41t56.5 -115q0 -63 -43.5 -105t-136 -67.5t-243.5 -38.5q1 -73 38.5 -119.5t121.5 -46.5q56 0 110 21.5t98 51.5l29 -47q-48 -32 -113.5 -57.5t-132.5 -25.5q-109 0 -163.5 61t-54.5 161v354zM501 495
q-41 26 -101 26q-98 0 -213 -96v-169q133 12 211 33t111 52t33 75q0 53 -41 79z" />
    <glyph glyph-name="uni0251" unicode="&#x251;" 
d="M112 436q36 67 96 103.5t130 36.5q50 0 93.5 -19.5t86.5 -58.5h2l7 64h55v-562h-56l-7 80h-2q-39 -41 -90.5 -67.5t-104.5 -26.5q-73 0 -128.5 34.5t-86.5 101t-31 159.5q0 88 36 155zM514 442q-81 77 -169 77q-55 0 -101 -31t-72.5 -85.5t-26.5 -121.5q0 -109 50 -173
t139 -64q93 0 180 96v302z" />
    <glyph glyph-name="uni0252" unicode="&#x252;" 
d="M179 63l-6 -63h-55v562h56l6 -80h4q38 41 93 67.5t111 26.5q115 0 176 -76.5t61 -209.5q0 -93 -35.5 -162t-94.5 -105.5t-129 -36.5q-44 0 -93 20.5t-90 56.5h-4zM511 456.5q-44 62.5 -137 62.5q-47 0 -96.5 -25t-92.5 -72v-302q44 -39 89.5 -57.5t83.5 -18.5
q56 0 101 30.5t70.5 86t25.5 126.5q0 107 -44 169.5z" />
    <glyph glyph-name="uni0253" unicode="&#x253;" 
d="M179 63l-6 -63h-55v642q0 97 50 152.5t143 55.5q51 0 100 -22l-18 -52q-34 17 -78 17q-65 0 -97 -40t-33 -112l-5 -163h4q43 43 97.5 68.5t106.5 25.5q114 0 175 -76t61 -208q0 -92 -35.5 -160.5t-94.5 -105t-128 -36.5q-43 0 -93 21t-90 56h-4zM511 452.5
q-44 61.5 -136 61.5q-44 0 -93 -24t-97 -73v-297q42 -38 89.5 -57t83.5 -19q56 0 101 30.5t70.5 85.5t25.5 127q0 104 -44 165.5z" />
    <glyph glyph-name="uni0254" unicode="&#x254;" 
d="M108 121q86 -77 189 -77q69 0 122 29.5t82.5 83.5t29.5 124q0 69 -28.5 123.5t-79.5 84.5t-117 30q-104 0 -181 -72l-37 45q90 84 221 84q81 0 147.5 -35.5t106 -102t39.5 -157.5t-39 -158t-107.5 -102t-153.5 -35q-66 0 -124 23.5t-103 66.5z" />
    <glyph glyph-name="uni0255" unicode="&#x255;" 
d="M585 192q34 -27 34 -74q0 -58 -52 -95t-150 -37q-79 0 -142 27q-44 -68 -63 -134l-56 22q28 78 68 138q-59 39 -92 100.5t-33 141.5q0 90 41 157t109 102.5t149 35.5q128 0 212 -84l-35 -44q-73 73 -174 73q-66 0 -119.5 -30.5t-84.5 -85t-31 -124.5q0 -62 25 -111.5
t70 -80.5q51 62 111 96t117 34q62 0 96 -27zM524.5 62q37.5 20 37.5 53q0 24 -18.5 38t-57.5 14t-85.5 -28t-88.5 -77q49 -20 106 -20q69 0 106.5 20z" />
    <glyph glyph-name="uni0256" unicode="&#x256;" 
d="M518 78h-4q-37 -40 -88 -66t-104 -26q-74 0 -129.5 34.5t-86 101t-30.5 159.5q0 88 36 155t95.5 103.5t128.5 36.5q50 0 93 -19.5t85 -57.5h4l-5 110v227h67v-876q0 -54 14 -82.5t49 -28.5q13 0 27.5 5t17.5 6l14 -53q-12 -6 -29 -10t-35 -4q-63 0 -93 38t-30 115z
M513 442q-81 77 -169 77q-54 0 -100 -31t-72.5 -85.5t-26.5 -121.5q0 -109 50.5 -173t137.5 -64q93 0 180 96v302z" />
    <glyph glyph-name="uni0257" unicode="&#x257;" 
d="M112 436q36 67 95.5 103.5t128.5 36.5q50 0 93 -19.5t85 -57.5h3l-3 110v81q0 80 34.5 121t98.5 41q35 0 60 -11l-14 -54q-20 9 -41 9q-72 0 -72 -116v-680h-56l-7 80h-2q-39 -41 -90 -67.5t-104 -26.5q-73 0 -128.5 34.5t-86 101t-30.5 159.5q0 88 36 155zM513 442
q-83 77 -170 77q-54 0 -99.5 -31t-72 -85.5t-26.5 -121.5q0 -109 50 -173t138 -64q92 0 180 96v302z" />
    <glyph glyph-name="uni0258" unicode="&#x258;" 
d="M478.5 540q61.5 -36 97.5 -103t36 -156q0 -90 -39.5 -157t-107.5 -102.5t-150 -35.5q-66 0 -116.5 17.5t-98.5 48.5l26 48q84 -58 183 -58q64 0 116.5 26t84.5 77.5t35 123.5h-465q-3 20 -3 46q0 79 34 138t94.5 91t137.5 32q74 0 135.5 -36zM199.5 469.5
q-55.5 -51.5 -61.5 -149.5h405q-7 62 -35.5 107.5t-72.5 69.5t-95 24q-85 0 -140.5 -51.5z" />
    <glyph glyph-name="uni0259" unicode="&#x259;" 
d="M486.5 540.5q64.5 -35.5 100 -101.5t35.5 -157q0 -92 -35.5 -159t-97 -102t-140.5 -35q-82 0 -141 34t-90.5 95.5t-31.5 143.5q0 27 4 46h464q-6 104 -65 160t-157 56q-97 0 -183 -58l-26 47q46 31 97.5 48.5t116.5 17.5q85 0 149.5 -35.5zM491 97q56 55 63 156h-407
q5 -103 58 -157t142 -54q88 0 144 55z" />
    <glyph glyph-name="uni025A" unicode="&#x25a;" 
d="M724 299q-17 -13 -33.5 -20.5t-37.5 -7.5q-35 0 -62 26t-36 83l-68 -28q6 -36 6 -78q0 -82 -29 -147.5t-82.5 -103t-122.5 -37.5q-99 0 -157 66t-68 169l379 156q-20 72 -64 108t-102 36q-46 0 -80.5 -13t-70.5 -38l-26 48q41 28 82.5 43t97.5 15q79 0 138.5 -45
t86.5 -129l84 35l40 -15q7 -63 20.5 -83.5t39.5 -20.5q21 0 42 19zM422 326l-326 -132q15 -76 57.5 -114.5t105.5 -38.5q51 0 88.5 28.5t58 79.5t20.5 116q0 36 -4 61z" />
    <glyph glyph-name="uni025B" unicode="&#x25b;" 
d="M249 296v4q-48 21 -75 53.5t-27 75.5q0 71 63 109t167 38q70 0 124.5 -19.5t102.5 -55.5l-30 -44q-45 32 -90 48t-105 16q-78 0 -121 -25t-43 -74q0 -48 48.5 -75t142.5 -27h56v-51h-72q-100 0 -153 -28t-53 -83q0 -56 52 -86t144 -30q63 0 113.5 17t93.5 57l32 -46
q-51 -46 -111 -65t-136 -19q-118 0 -187 44.5t-69 122.5q0 108 133 143z" />
    <glyph glyph-name="uni025C" unicode="&#x25c;" 
d="M130 117q47 -41 98.5 -58t112.5 -17q92 0 144.5 30t52.5 86q0 54 -52.5 82.5t-149.5 28.5h-82v51h67q92 0 140 27t48 75q0 50 -43 74.5t-124 24.5q-62 0 -106 -16t-92 -50l-31 44q50 38 105 57.5t126 19.5q105 0 168 -38t63 -109q0 -86 -100 -129v-4q60 -16 95.5 -50.5
t35.5 -92.5q0 -78 -70.5 -122.5t-189.5 -44.5q-73 0 -134 19.5t-114 66.5z" />
    <glyph glyph-name="uni025E" unicode="&#x25e;" 
d="M117 437q41 68 109.5 103.5t151.5 35.5q96 0 155 -38t59 -109q0 -43 -25.5 -77.5t-71.5 -51.5v-4q55 -13 91.5 -49.5t36.5 -93.5q0 -78 -63 -122.5t-177 -44.5q-91 0 -160 33t-108 98t-39 158q0 94 41 162zM508.5 239q-46.5 30 -119.5 30h-43v51h29q70 0 110 28.5
t40 73.5q0 49 -39 74t-106 25t-121 -30.5t-84.5 -86.5t-30.5 -129q0 -112 63 -172.5t176 -60.5q84 0 128 30t44 86q0 51 -46.5 81z" />
    <glyph glyph-name="uni025F" unicode="&#x25f;" 
d="M659 265h-208v-298q0 -111 -51.5 -170.5t-173.5 -59.5q-40 0 -81 10.5t-75 27.5l24 52q30 -15 65.5 -24t68.5 -9q88 0 122 42t34 124v305h-232v38l232 6v197h-273v56h340v-253h208v-44z" />
    <glyph glyph-name="uni0260" unicode="&#x260;" 
d="M146 -151q82 -55 185 -55q87 0 134 45t48 125l4 129h-3q-38 -40 -88.5 -65.5t-104.5 -25.5q-73 0 -128.5 34t-86 98.5t-30.5 153.5q0 86 36 151.5t96 101t129 35.5q95 0 177 -77h3l-3 61q0 79 34.5 121t98.5 42q35 0 60 -11l-14 -54q-20 9 -41 9q-72 0 -72 -116v-593
q0 -101 -67 -160.5t-182 -59.5q-58 0 -113 16t-100 46zM513 442q-80 77 -169 77q-55 0 -100.5 -30t-72 -83t-26.5 -117q0 -105 50.5 -167.5t137.5 -62.5q91 0 180 97v286z" />
    <glyph glyph-name="uni0262" unicode="&#x262;" 
d="M138.5 437.5q40.5 66.5 110 102.5t153.5 36q120 0 206 -84l-36 -44q-36 34 -75.5 53.5t-92.5 19.5q-65 0 -119 -29t-86 -83t-32 -126q0 -73 30 -128t83 -84t120 -29q45 0 84 14t67 39v143h-176v52h237v-223q-38 -37 -93.5 -59t-123.5 -22q-84 0 -151.5 35.5t-106.5 102.5
t-39 159q0 88 40.5 154.5z" />
    <glyph glyph-name="uni0263" unicode="&#x263;" 
d="M396 45l16 -32q31 -62 43 -93t12 -61q0 -57 -29.5 -91.5t-85.5 -34.5t-85.5 34.5t-29.5 91.5q0 28 11.5 58.5t38.5 86.5l20 42l-239 516h71l144 -329l13 -30q4 -10 20 -45t34 -69h4q23 46 67 144l144 329h68zM392.5 -196q13.5 20 13.5 53q0 30 -13.5 66.5t-38.5 83.5h-4
q-52 -102 -52 -150q0 -33 13.5 -53t40.5 -20t40.5 20z" />
    <glyph glyph-name="uni0264" unicode="&#x264;" 
d="M182.5 303.5q42.5 61.5 120.5 126.5q-44 48 -75 68.5t-65 20.5q-35 0 -56 -17l-23 50q16 11 39.5 17.5t47.5 6.5q45 0 86.5 -26t92.5 -79q51 53 93 79t87 26q50 0 87 -24l-24 -50q-21 17 -55 17q-35 0 -65.5 -20.5t-75.5 -68.5q79 -66 121.5 -127t42.5 -126
q0 -87 -56.5 -139t-154.5 -52q-97 0 -153.5 52t-56.5 139q0 65 42.5 126.5zM456.5 286.5q-37.5 52.5 -106.5 109.5q-69 -57 -106.5 -109.5t-37.5 -108.5q0 -59 39 -96.5t105 -37.5t105 37.5t39 96.5q0 56 -37.5 108.5z" />
    <glyph glyph-name="uni0265" unicode="&#x265;" 
d="M519 107q-57 -59 -108.5 -90t-114.5 -31q-101 0 -150 56.5t-49 170.5v349h67v-340q0 -91 35 -134t114 -43q53 0 97 27.5t105 90.5v399h66v-811h-66v213z" />
    <glyph glyph-name="uni0266" unicode="&#x266;" 
d="M168 794.5q50 55.5 143 55.5q51 0 100 -22l-18 -52q-34 17 -78 17q-65 0 -96.5 -40t-33.5 -112l-6 -189h4q54 58 106.5 89t114.5 31q199 0 199 -227v-345h-67v337q0 90 -35 133t-113 43q-53 0 -97 -27.5t-106 -90.5v-395h-67v642q0 97 50 152.5z" />
    <glyph glyph-name="uni0267" unicode="&#x267;" 
d="M387 -142q35 -13 66 -13q48 0 65.5 32t17.5 95v365q0 90 -35 133t-113 43q-53 0 -97 -27.5t-106 -90.5v-395h-67v642q0 97 50 152.5t143 55.5q51 0 100 -22l-18 -52q-42 17 -78 17q-65 0 -96.5 -40t-33.5 -112l-6 -189h4q54 58 106.5 89t114.5 31q199 0 199 -227v-375
q0 -90 -35 -136t-110 -46q-22 0 -45.5 4.5t-40.5 11.5z" />
    <glyph glyph-name="uni0268" unicode="&#x268;" 
d="M659 265h-208v-265h-66v265h-221v38l221 6v197h-274v56h340v-253h208v-44zM362 799.5q18 17.5 45 17.5q26 0 43.5 -17.5t17.5 -44.5q0 -28 -17.5 -45t-43.5 -17q-28 0 -45.5 16.5t-17.5 45.5q0 27 18 44.5z" />
    <glyph glyph-name="uni026A" unicode="&#x26a;" 
d="M316 57v449h-212v56h492v-56h-213v-449h213v-57h-492v57h212z" />
    <glyph glyph-name="uni026B" unicode="&#x26b;" 
d="M638 20q-41 -18 -72 -26t-72 -8q-85 0 -129.5 47t-44.5 143v281q-17 15 -31.5 22.5t-31.5 7.5q-28 0 -42.5 -27.5t-16.5 -73.5l-49 6q4 65 28.5 105.5t76.5 40.5q33 0 66 -19v260h-203v57h270v-373q18 -15 33 -23t31 -8q28 0 42.5 27.5t16.5 73.5l48 -7
q-3 -64 -27.5 -104.5t-76.5 -40.5q-35 0 -67 20v-232q0 -125 119 -125q55 0 112 27z" />
    <glyph glyph-name="uni026C" unicode="&#x26c;" 
d="M624 20q-41 -18 -72 -26t-72 -8q-85 0 -129.5 47t-44.5 143v202h-31q-81 0 -119 26.5t-38 70.5q0 36 26.5 59t69.5 23q58 0 92 -39v261h-203v57h270v-413h168v-45h-168v-209q0 -125 119 -125q55 0 112 27zM306 423v12q0 31 -23.5 55t-63.5 24q-25 0 -38 -11.5t-13 -28.5
q0 -51 97 -51h41z" />
    <glyph glyph-name="uni026D" unicode="&#x26d;" 
d="M306 779h-203v57h269v-865q0 -125 118 -125q53 0 113 28l20 -52q-9 -3 -37.5 -13.5t-54.5 -15.5t-53 -5q-84 0 -128 47t-44 143v801z" />
    <glyph glyph-name="uni026E" unicode="&#x26e;" 
d="M435 210q68 0 117.5 -29.5t75 -80t25.5 -111.5q0 -77 -34 -134.5t-89.5 -87.5t-117.5 -30q-80 0 -135.5 25t-98.5 65l36 44q37 -35 83 -55.5t111 -20.5q48 0 88.5 24t64.5 67.5t24 99.5q0 81 -46 126.5t-126 45.5q-30 0 -48 -4.5t-38 -14.5l-33 40l247 327h-365v-506h-67
v836h67v-274h453v-35l-242 -321q34 4 48 4z" />
    <glyph glyph-name="uni026F" unicode="&#x26f;" 
d="M565 0l-6 76h-3q-25 -44 -54.5 -67t-73.5 -23q-89 0 -110 99q-31 -51 -62 -75t-75 -24q-59 0 -90.5 43t-31.5 127v406h65v-399q0 -118 74 -118q34 0 59.5 23.5t52.5 75.5v418h58v-399q0 -118 75 -118q34 0 59 23.5t52 75.5v418h65v-562h-54z" />
    <glyph glyph-name="uni0270" unicode="&#x270;" 
d="M560 80h-5q-27 -47 -56 -70.5t-71 -23.5q-45 0 -72.5 24.5t-38.5 74.5q-31 -51 -61.5 -75t-74.5 -24q-59 0 -90.5 43.5t-31.5 127.5v405h65v-399q0 -118 74 -118q34 0 59.5 24t51.5 75v418h58v-399q0 -58 19 -88t56 -30q34 0 59.5 24t51.5 75v418h65v-811h-65v211z" />
    <glyph glyph-name="uni0271" unicode="&#x271;" 
d="M454 -145q33 -10 54 -10q40 0 54 28.5t14 85.5v440q0 118 -74 118q-34 0 -59.5 -23.5t-52.5 -75.5v-418h-58v399q0 118 -75 118q-34 0 -59 -23.5t-52 -75.5v-418h-65v562h54l6 -76h3q26 45 55 67.5t73 22.5q89 0 110 -99q31 51 62 75t75 24q59 0 90.5 -43t31.5 -127v-452
q0 -82 -31 -124t-97 -42q-39 0 -73 14z" />
    <glyph glyph-name="uni0272" unicode="&#x272;" 
d="M13 -145q30 -10 46 -10q33 0 47 28t14 82v607h57l5 -104h5q53 57 104 87.5t113 30.5q100 0 149.5 -56.5t49.5 -170.5v-349h-67v341q0 91 -35 133.5t-112 42.5q-53 0 -97 -27t-105 -91v-446q0 -84 -29.5 -124.5t-94.5 -40.5q-17 0 -35 4.5t-29 10.5z" />
    <glyph glyph-name="uni0273" unicode="&#x273;" 
d="M534 341q0 91 -35 133.5t-112 42.5q-53 0 -97 -27t-105 -91v-399h-67v562h56l6 -104h5q52 57 103.5 87.5t113.5 30.5q100 0 149.5 -56.5t49.5 -170.5v-394q0 -54 13.5 -82t47.5 -28q15 0 45 10l14 -52q-10 -6 -28 -10.5t-36 -4.5q-65 0 -94 40.5t-29 124.5v388z" />
    <glyph glyph-name="uni0274" unicode="&#x274;" 
d="M187 562l245 -350q6 -8 14 -20t19 -27q34 -52 51 -74h4l-2 49q-5 93 -5 158v264h65v-562h-67l-244 350q-52 75 -83 122h-5q7 -131 7 -208v-264h-64v562h65z" />
    <glyph glyph-name="uni0275" unicode="&#x275;" 
d="M488.5 542q62.5 -34 99.5 -100.5t37 -160.5t-37 -160.5t-99.5 -100.5t-138.5 -34t-138.5 34t-99 100.5t-36.5 160.5t36.5 160.5t99 100.5t138.5 34t138.5 -34zM209 468q-57 -54 -67 -148h416q-10 94 -67 148t-141 54t-141 -54zM456.5 68.5q46.5 27.5 74 79t29.5 121.5
h-420q2 -70 29.5 -121.5t74 -79t106.5 -27.5t106.5 27.5z" />
    <glyph glyph-name="uni0276" unicode="&#x276;" 
d="M74.5 440.5q30.5 66.5 83 101t118.5 34.5q62 0 111 -14h283v-56h-236v-186h190v-51h-190v-212h248v-57h-295q-48 -14 -111 -14q-66 0 -118.5 34.5t-83 101.5t-30.5 160q0 92 30.5 158.5zM370 503q-54 16 -87 16q-75 0 -121.5 -61.5t-46.5 -175.5q0 -115 46.5 -177
t121.5 -62q31 0 87 16v444z" />
    <glyph glyph-name="uni0278" unicode="&#x278;" 
d="M606.5 127.5q-34.5 -65.5 -94 -100.5t-132.5 -38v-238h-60v238q-73 2 -132.5 37.5t-94 101t-34.5 154.5t34.5 154t94 100t132.5 37v263h60v-263q73 -3 132.5 -37.5t94 -99.5t34.5 -154t-34.5 -154.5zM147 157q25 -54 70 -83.5t103 -31.5v479q-58 -2 -103 -32t-70 -83
t-25 -124t25 -125zM483.5 73.5q44.5 29.5 69.5 83.5t25 125q0 107 -54 171t-144 68v-479q59 2 103.5 31.5z" />
    <glyph glyph-name="uni0279" unicode="&#x279;" 
d="M460 0l-6 137h-3q-46 -70 -113 -110.5t-147 -40.5q-67 0 -112 23l17 59q32 -12 53 -16t52 -4q72 0 134 40t115 130v344h67v-562h-57z" />
    <glyph glyph-name="uni027A" unicode="&#x27a;" 
d="M96 68q34 -12 54 -16t51 -4q72 0 133.5 40.5t114.5 130.5v617h67v-836h-56l-7 137h-2q-47 -70 -113.5 -110.5t-145.5 -40.5q-66 0 -113 23z" />
    <glyph glyph-name="uni027B" unicode="&#x27b;" 
d="M352 106h-4q-63 -120 -166 -120q-54 0 -103 23l17 59q32 -12 49.5 -16t44.5 -4q99 0 157 144v370h67v-588q0 -69 19 -99t67 -30q30 0 72 17l16 -52q-17 -9 -43.5 -15.5t-49.5 -6.5q-76 0 -109.5 43.5t-33.5 133.5v141z" />
    <glyph glyph-name="uni027D" unicode="&#x27d;" 
d="M183 562h57l6 -137h3q46 70 113 110.5t147 40.5q67 0 112 -23l-17 -59q-32 12 -53 16t-52 4q-72 0 -134 -40t-115 -130v-331q0 -86 33 -127t119 -41q77 0 144 28l17 -51q-46 -17 -85 -25.5t-88 -8.5q-112 0 -159.5 59t-47.5 168v547z" />
    <glyph glyph-name="uni027E" unicode="&#x27e;" 
d="M263 502.5q80 73.5 213 73.5q82 0 145 -23l-17 -59q-31 12 -60 16t-64 4q-102 0 -166 -61t-64 -179v-274h-67v286q0 143 80 216.5z" />
    <glyph glyph-name="uni0280" unicode="&#x280;" 
d="M549 0l-173 237h-182v-237h-67v562h274q95 0 150 -37.5t55 -121.5q0 -73 -43.5 -113.5t-114.5 -50.5l178 -239h-77zM194 289h193q72 0 112 29t40 84q0 106 -152 106h-193v-219z" />
    <glyph glyph-name="uni0281" unicode="&#x281;" 
d="M573 562v-562h-274q-95 0 -150 37.5t-55 121.5q0 73 43.5 113.5t114.5 50.5l-178 239h77l173 -237h182v237h67zM506 273h-193q-72 0 -112 -29t-40 -84q0 -106 152 -106h193v219z" />
    <glyph glyph-name="uni0282" unicode="&#x282;" 
d="M516 275.5q51 -23.5 70.5 -53.5t19.5 -74q0 -45 -28 -82t-82 -58.5t-128 -21.5q-111 0 -215 52v-81q0 -56 15.5 -84.5t58.5 -28.5q22 0 57 10l14 -51q-34 -15 -75 -15q-68 0 -100 42.5t-32 130.5v114l33 46q51 -39 111 -59.5t141 -20.5q77 0 119.5 29.5t42.5 73.5
q0 27 -13.5 47t-54.5 38t-122 34q-112 23 -167.5 61.5t-55.5 98.5q0 67 57.5 110t166.5 43q57 0 117.5 -20t102.5 -50l-34 -45q-86 61 -191 61q-79 0 -115 -27t-36 -68t41 -65t136 -43q95 -20 146 -43.5z" />
    <glyph glyph-name="uni0283" unicode="&#x283;" 
d="M95 -174q32 -15 60.5 -23.5t59.5 -8.5q59 0 81 39.5t22 116.5v692q0 105 43 157.5t135 52.5q35 0 62 -8.5t65 -27.5l-21 -52q-32 17 -53.5 24.5t-48.5 7.5q-66 0 -90.5 -40t-24.5 -116v-692q0 -105 -40 -158t-126 -53q-41 0 -76.5 9.5t-71.5 28.5z" />
    <glyph glyph-name="uni0284" unicode="&#x284;" 
d="M409.5 756q-24.5 -40 -24.5 -116v-322h212v-44h-212v-326q0 -105 -40 -158t-126 -53q-41 0 -76.5 9.5t-71.5 28.5l24 51q32 -15 60.5 -23.5t59.5 -8.5q59 0 81 39.5t22 116.5v324h-217v38l217 6v324q0 105 43 157.5t135 52.5q35 0 62 -8.5t65 -27.5l-21 -52
q-32 17 -53.5 24.5t-48.5 7.5q-66 0 -90.5 -40z" />
    <glyph glyph-name="uni0287" unicode="&#x287;" 
d="M444 56h167v-51l-168 -5l-9 -185h-56v185h-291v56h291v295q0 86 -33 127t-119 41q-77 0 -144 -28l-17 51q42 17 83 25.5t90 8.5q112 0 159 -59t47 -168v-293z" />
    <glyph glyph-name="uni0288" unicode="&#x288;" 
d="M256 506h-167v51l168 5l9 185h56v-185h291v-56h-291v-493q0 -85 33 -126.5t118 -41.5q80 0 145 28l17 -51q-40 -15 -87 -24.5t-87 -9.5q-111 0 -158 59t-47 168v491z" />
    <glyph glyph-name="uni0289" unicode="&#x289;" 
d="M675 304h-124v-304h-55l-7 92h-3q-44 -52 -88.5 -79t-99.5 -27q-87 0 -129 54t-42 163v101h-119v39l119 4v215h67v-215h291v215h66v-215h124v-43zM485 304h-291v-92q0 -87 28.5 -127t91.5 -40q47 0 85 25t86 83v151z" />
    <glyph glyph-name="uni028A" unicode="&#x28a;" 
d="M195 503v3h-131v56h214v-43q-132 -101 -132 -257q0 -59 24 -109t70 -79.5t110 -29.5t109.5 29.5t69 79.5t23.5 109q0 158 -131 257v43h215v-56h-131v-3q117 -110 117 -255q0 -69 -32.5 -129t-94.5 -96.5t-145 -36.5t-145 36.5t-94.5 96.5t-32.5 129q0 147 117 255z" />
    <glyph glyph-name="uni028B" unicode="&#x28b;" 
d="M97 562h67v-311q0 -106 51.5 -156.5t132.5 -50.5q65 0 111.5 37.5t71 102t24.5 144.5q0 94 -30 143.5t-88 49.5q-14 0 -23 -1.5t-15 -4t-9 -3.5l-14 55q19 5 33.5 7t39.5 2q84 0 129.5 -60t45.5 -179q0 -101 -32 -180.5t-95 -125t-152 -45.5q-111 0 -179.5 63.5
t-68.5 191.5v321z" />
    <glyph glyph-name="uni028C" unicode="&#x28c;" 
d="M563 0l-146 340q-43 103 -68 164h-4q-8 -19 -32 -80l-34 -84l-147 -340h-65l245 562h73l247 -562h-69z" />
    <glyph glyph-name="uni028D" unicode="&#x28d;" 
d="M618 0l-82 350l-13 59q-14 62 -20 94h-4q-12 -59 -36 -153l-82 -332h-65l-84 332l-36 153h-4q-20 -85 -34 -153l-80 -350h-66l136 562h84l80 -324l12 -57q5 -19 10.5 -45.5t13.5 -58.5h5q22 114 34 163l79 322h83l139 -562h-70z" />
    <glyph glyph-name="uni028E" unicode="&#x28e;" 
d="M424.5 797.5q53.5 52.5 133.5 52.5q38 0 69 -12l-16 -55q-31 9 -52 9q-56 0 -95.5 -38t-63.5 -103l-35 -82l269 -569h-68l-155 339q-14 29 -19 43q-10 21 -26.5 57t-28.5 60h-5q-34 -82 -64 -160l-137 -339h-65l274 660q31 85 84.5 137.5z" />
    <glyph glyph-name="uni028F" unicode="&#x28f;" 
d="M77 562h74l113 -174l36 -57q31 -46 50 -80h4q15 30 58 96l26 41l113 174h73l-240 -364v-198h-67v198z" />
    <glyph glyph-name="uni0290" unicode="&#x290;" 
d="M528 0h-444v36l411 470h-365v56h463v-35l-411 -470h413v-102q0 -54 14 -82t48 -28q16 0 46 10l14 -52q-12 -6 -29.5 -10.5t-35.5 -4.5q-65 0 -94.5 40t-29.5 120v52z" />
    <glyph glyph-name="uni0291" unicode="&#x291;" 
d="M644 202.5q26 -26.5 26 -73.5q0 -56 -45 -92.5t-127 -36.5h-62q-18 -64 -29 -138l-46 9q13 72 30 129h-307v36l415 470h-369v56h462v-35l-415 -470q156 -2 231 -2q63 174 163 174q47 0 73 -26.5zM593.5 77q28.5 22 28.5 53q0 24 -13 38t-40 14q-30 0 -59.5 -31t-54.5 -96
h60q50 0 78.5 22z" />
    <glyph glyph-name="uni0292" unicode="&#x292;" 
d="M544 161q68 -61 68 -167q0 -79 -38.5 -137.5t-101 -89t-134.5 -30.5q-90 0 -150.5 30t-115.5 81l36 45q47 -46 99 -72t128 -26q56 0 103.5 24.5t76 69.5t28.5 102q0 84 -55.5 132t-159.5 48q-36 0 -58.5 -6.5t-59.5 -25.5l-32 43l317 324h-373v56h466v-35l-304 -315
q35 10 71 10q121 0 189 -61z" />
    <glyph glyph-name="uni0294" unicode="&#x294;" 
d="M422.5 444.5q47.5 37.5 71.5 79.5t24 97q0 79 -49 125.5t-137 46.5q-67 0 -115.5 -27.5t-86.5 -72.5l-37 45q100 112 241 112q72 0 129.5 -26.5t90.5 -78t33 -124.5q0 -66 -28 -116.5t-75 -90t-123 -86.5v-328h-67v362q81 45 128.5 82.5z" />
    <glyph glyph-name="uni0295" unicode="&#x295;" 
d="M215 414.5q-47 39.5 -75 90t-28 116.5q0 73 33 124.5t90.5 78t129.5 26.5q81 0 139 -31.5t103 -80.5l-38 -45q-38 45 -86.5 72.5t-114.5 27.5q-88 0 -137.5 -47t-49.5 -125q0 -55 24 -97t71.5 -79.5t128.5 -82.5v-362h-67v328q-76 47 -123 86.5z" />
    <glyph glyph-name="uni0298" unicode="&#x298;" 
d="M109 653.5q33 96.5 94.5 146.5t146.5 50t147 -50t95 -146.5t33 -232.5q0 -222 -71.5 -328.5t-203.5 -106.5t-203 106.5t-71 328.5q0 136 33 232.5zM532 625.5q-27 83.5 -74 125.5t-108 42t-108 -42t-74 -125.5t-27 -204.5q0 -196 56.5 -286.5t152.5 -90.5t152.5 90.5
t56.5 286.5q0 121 -27 204.5zM302 472.5q20 19.5 48 19.5t48 -19.5t20 -51.5q0 -29 -20.5 -49t-47.5 -20q-28 0 -48 20t-20 49q0 32 20 51.5z" />
    <glyph glyph-name="uni0299" unicode="&#x299;" 
d="M420 562q100 0 156 -34.5t56 -105.5q0 -91 -99 -122v-3q54 -13 88.5 -46t34.5 -90q0 -81 -60.5 -121t-167.5 -40h-266v562h258zM564 416q0 95 -153 95h-183v-191h173q163 0 163 96zM545.5 80.5q43.5 28.5 43.5 83.5q0 50 -46.5 77.5t-133.5 27.5h-181v-217h188
q86 0 129.5 28.5z" />
    <glyph glyph-name="uni029C" unicode="&#x29c;" 
d="M212 562v-238h330v238h67v-562h-67v265h-330v-265h-67v562h67z" />
    </font>
</defs>
</svg>
