<?xml version="1.0" standalone="no"?>
<!DOCTYPE svg PUBLIC "-//W3C//DTD SVG 20010904//EN"
 "http://www.w3.org/TR/2001/REC-SVG-20010904/DTD/svg10.dtd">
<svg version="1.0" xmlns="http://www.w3.org/2000/svg"
 width="48.000000pt" height="48.000000pt" viewBox="0 0 48.000000 48.000000"
 preserveAspectRatio="xMidYMid meet">

<g transform="translate(0.000000,48.000000) scale(0.100000,-0.100000)"
fill="#000000" stroke="none">
<path d="M215 450 c-17 -19 -17 -21 0 -40 22 -24 35 -26 35 -4 0 13 6 15 28 9
164 -40 192 -257 42 -333 -54 -27 -101 -28 -156 -3 -50 23 -82 61 -97 118 -14
53 -32 57 -22 6 9 -52 46 -106 92 -134 57 -36 154 -34 210 3 75 49 107 138 84
226 -16 58 -77 118 -136 133 -26 7 -45 17 -45 25 0 20 -14 17 -35 -6z"/>
<path d="M200 285 c0 -44 0 -45 34 -45 38 0 51 -19 32 -45 -9 -13 -22 -16 -45
-13 -20 3 -30 1 -28 -6 6 -19 67 -19 88 0 36 32 19 84 -28 84 -18 0 -23 6 -23
25 0 21 5 25 30 25 17 0 30 5 30 10 0 6 -20 10 -45 10 l-45 0 0 -45z"/>
</g>
</svg>
