<?xml version="1.0" encoding="UTF-8"?>
<!DOCTYPE svg PUBLIC "-//W3C//DTD SVG 1.1//EN" "http://www.w3.org/Graphics/SVG/1.1/DTD/svg11.dtd">
<svg xmlns="http://www.w3.org/2000/svg" version="1.1" width="48px" height="48px" style="shape-rendering:geometricPrecision; text-rendering:geometricPrecision; image-rendering:optimizeQuality; fill-rule:evenodd; clip-rule:evenodd" xmlns:xlink="http://www.w3.org/1999/xlink">
<g><path style="opacity:0.833" fill="#000000" d="M 18.5,2.5 C 23.6989,2.01439 28.6989,2.68105 33.5,4.5C 34.4519,6.04533 34.7852,7.71199 34.5,9.5C 30.289,7.92219 25.9557,7.42219 21.5,8C 17.7461,11.2486 16.9127,15.0819 19,19.5C 21.9296,21.4028 24.9296,23.0695 28,24.5C 28.2792,28.1703 28.1125,31.837 27.5,35.5C 25.8561,35.7135 24.3561,35.3802 23,34.5C 22.5026,31.854 22.3359,29.1873 22.5,26.5C 11.9774,24.1236 8.81077,17.7902 13,7.5C 14.7297,5.59809 16.563,3.93142 18.5,2.5 Z"/></g>
<g><path style="opacity:0.788" fill="#000000" d="M 22.5,38.5 C 28.2354,37.8213 29.902,40.1546 27.5,45.5C 25.6293,46.767 23.7959,46.767 22,45.5C 21.2967,43.0709 21.4634,40.7375 22.5,38.5 Z"/></g>
</svg>
